<?xml version="1.0" standalone="no"?>
<!DOCTYPE svg PUBLIC "-//W3C//DTD SVG 20010904//EN"
 "http://www.w3.org/TR/2001/REC-SVG-20010904/DTD/svg10.dtd">
<svg version="1.0" xmlns="http://www.w3.org/2000/svg"
 width="250.000000pt" height="250.000000pt" viewBox="0 0 250.000000 250.000000"
 preserveAspectRatio="xMidYMid meet">

<g transform="translate(0.000000,250.000000) scale(0.100000,-0.100000)"
fill="#000000" stroke="none">
<path d="M1076 2484 c-458 -71 -840 -400 -981 -845 -74 -235 -74 -503 0 -738
99 -313 323 -578 610 -723 178 -90 315 -126 515 -134 605 -26 1125 384 1256
991 24 110 24 360 0 470 -143 659 -746 1081 -1400 979z m477 -77 c212 -56 377
-150 533 -302 477 -467 472 -1225 -12 -1685 -384 -365 -971 -427 -1420 -151
-469 290 -675 870 -492 1389 39 111 67 166 136 272 164 247 456 438 759 495
126 23 372 14 496 -18z"/>
<path d="M1300 1493 c0 -471 -2 -511 -19 -548 -66 -144 -244 -170 -349 -51
-83 95 -56 247 55 313 38 22 58 27 110 26 l64 0 -3 111 -3 111 -90 0 c-80 0
-97 -4 -158 -32 -93 -44 -169 -118 -215 -212 -36 -73 -37 -78 -37 -186 0 -103
2 -114 32 -178 43 -91 129 -177 220 -220 64 -30 74 -32 183 -32 108 0 119 2
182 32 115 54 199 147 237 261 19 56 21 85 21 352 0 159 2 290 5 290 3 0 27
-14 54 -30 67 -42 153 -70 234 -77 l68 -6 -3 114 -3 114 -47 7 c-152 21 -284
152 -304 301 l-7 47 -113 0 -114 0 0 -507z"/>
</g>
</svg>
