<svg xmlns="http://www.w3.org/2000/svg" xmlns:xlink="http://www.w3.org/1999/xlink" width="250" zoomAndPan="magnify" viewBox="0 0 187.5 187.499992" height="250" preserveAspectRatio="xMidYMid meet" version="1.0"><defs><clipPath id="id1"><path d="M 0 0 L 187 0 L 187 187 L 0 187 Z M 0 0 " clip-rule="nonzero"/></clipPath></defs><g clip-path="url(#id1)"><path fill="#010101" d="M 93.707031 16.90625 C 118.726562 16.90625 121.6875 16.988281 131.585938 17.441406 C 140.707031 17.851562 145.679688 19.371094 149.003906 20.683594 C 153.359375 22.371094 156.484375 24.421875 159.769531 27.710938 C 163.054688 30.996094 165.070312 34.117188 166.792969 38.472656 C 168.066406 41.761719 169.589844 46.730469 170.039062 55.890625 C 170.492188 65.792969 170.574219 68.75 170.574219 93.769531 C 170.574219 118.789062 170.492188 121.746094 170.039062 131.648438 C 169.628906 140.769531 168.109375 145.738281 166.792969 149.066406 C 165.109375 153.421875 163.054688 156.542969 159.769531 159.832031 C 156.484375 163.117188 153.359375 165.128906 149.003906 166.855469 C 145.71875 168.128906 140.75 169.648438 131.585938 170.101562 C 121.6875 170.554688 118.726562 170.636719 93.707031 170.636719 C 68.691406 170.636719 65.730469 170.554688 55.832031 170.101562 C 46.710938 169.691406 41.738281 168.171875 38.410156 166.855469 C 34.058594 165.171875 30.933594 163.117188 27.648438 159.832031 C 24.363281 156.542969 22.347656 153.421875 20.625 149.066406 C 19.351562 145.78125 17.828125 140.808594 17.378906 131.648438 C 16.925781 121.746094 16.84375 118.789062 16.84375 93.769531 C 16.84375 68.75 16.925781 65.792969 17.378906 55.890625 C 17.789062 46.773438 19.308594 41.800781 20.625 38.472656 C 22.308594 34.117188 24.363281 30.996094 27.648438 27.710938 C 30.933594 24.421875 34.058594 22.410156 38.410156 20.683594 C 41.699219 19.410156 46.667969 17.890625 55.832031 17.441406 C 65.730469 16.988281 68.691406 16.90625 93.707031 16.90625 M 93.707031 0.0195312 C 68.238281 0.0195312 65.074219 0.144531 55.050781 0.59375 C 45.066406 1.046875 38.246094 2.648438 32.289062 4.949219 C 26.128906 7.332031 20.910156 10.539062 15.695312 15.753906 C 10.515625 20.972656 7.3125 26.191406 4.929688 32.351562 C 2.628906 38.308594 1.027344 45.128906 0.574219 55.113281 C 0.125 65.09375 0 68.300781 0 93.730469 C 0 119.199219 0.125 122.363281 0.574219 132.386719 C 1.027344 142.371094 2.628906 149.191406 4.929688 155.148438 C 7.3125 161.308594 10.515625 166.527344 15.734375 171.746094 C 20.953125 176.960938 26.167969 180.167969 32.332031 182.550781 C 38.289062 184.851562 45.109375 186.453125 55.089844 186.902344 C 65.074219 187.355469 68.277344 187.480469 93.75 187.480469 C 119.222656 187.480469 122.382812 187.355469 132.410156 186.902344 C 142.390625 186.453125 149.210938 184.851562 155.167969 182.550781 C 161.332031 180.167969 166.546875 176.960938 171.765625 171.746094 C 176.984375 166.527344 180.1875 161.308594 182.570312 155.148438 C 184.871094 149.191406 186.472656 142.371094 186.925781 132.386719 C 187.375 122.40625 187.5 119.199219 187.5 93.730469 C 187.5 68.257812 187.375 65.09375 186.925781 55.070312 C 186.472656 45.089844 184.871094 38.269531 182.570312 32.3125 C 180.1875 26.148438 176.984375 20.929688 171.765625 15.714844 C 166.546875 10.496094 161.332031 7.292969 155.167969 4.910156 C 149.210938 2.609375 142.390625 1.007812 132.410156 0.554688 C 122.382812 0.144531 119.179688 0.0195312 93.707031 0.0195312 " fill-opacity="1" fill-rule="nonzero"/></g><path fill="#010101" d="M 93.707031 45.621094 C 67.128906 45.621094 45.601562 67.148438 45.601562 93.730469 C 45.601562 120.308594 67.167969 141.878906 93.75 141.878906 C 120.332031 141.878906 141.898438 120.351562 141.898438 93.730469 C 141.859375 67.148438 120.289062 45.621094 93.707031 45.621094 M 93.707031 124.992188 C 76.453125 124.992188 62.484375 111.023438 62.484375 93.769531 C 62.484375 76.515625 76.453125 62.546875 93.707031 62.546875 C 110.964844 62.546875 124.929688 76.515625 124.929688 93.769531 C 124.972656 110.984375 110.964844 124.992188 93.707031 124.992188 " fill-opacity="1" fill-rule="nonzero"/><path fill="#010101" d="M 155.003906 43.730469 C 155.003906 49.9375 149.949219 54.988281 143.746094 54.988281 C 137.542969 54.988281 132.492188 49.9375 132.492188 43.730469 C 132.492188 37.527344 137.542969 32.476562 143.746094 32.476562 C 149.949219 32.476562 155.003906 37.488281 155.003906 43.730469 " fill-opacity="1" fill-rule="nonzero"/></svg>