<svg xmlns="http://www.w3.org/2000/svg" xmlns:xlink="http://www.w3.org/1999/xlink" width="250" zoomAndPan="magnify" viewBox="0 0 187.5 187.499992" height="250" preserveAspectRatio="xMidYMid meet" version="1.0"><defs><clipPath id="id1"><path d="M 0 0 L 187 0 L 187 187 L 0 187 Z M 0 0 " clip-rule="nonzero"/></clipPath></defs><g clip-path="url(#id1)"><path fill="#000000" d="M 165.527344 0 L 21.972656 0 C 9.855469 0 0 9.855469 0 21.972656 L 0 165.527344 C 0 177.644531 9.855469 187.5 21.972656 187.5 L 165.527344 187.5 C 177.644531 187.5 187.5 177.644531 187.5 165.527344 L 187.5 21.972656 C 187.5 9.855469 177.644531 0 165.527344 0 Z M 172.851562 165.527344 C 172.851562 169.566406 169.566406 172.851562 165.527344 172.851562 L 122.3125 172.851562 L 122.3125 119.382812 L 145.761719 119.382812 L 148.496094 96.679688 L 122.3125 96.679688 L 122.3125 72.144531 C 122.3125 65.878906 127.039062 61.15625 133.300781 61.15625 L 149.78125 61.15625 L 149.78125 39.917969 C 145.441406 39.304688 137.074219 38.453125 133.300781 38.453125 C 124.757812 38.453125 116.199219 42.054688 109.8125 48.335938 C 103.234375 54.808594 99.609375 63.285156 99.609375 72.207031 L 99.609375 96.679688 L 75.804688 96.679688 L 75.804688 119.382812 L 99.609375 119.382812 L 99.609375 172.851562 L 21.972656 172.851562 C 17.933594 172.851562 14.648438 169.566406 14.648438 165.527344 L 14.648438 21.972656 C 14.648438 17.933594 17.933594 14.648438 21.972656 14.648438 L 165.527344 14.648438 C 169.566406 14.648438 172.851562 17.933594 172.851562 21.972656 Z M 172.851562 165.527344 " fill-opacity="1" fill-rule="nonzero"/></g></svg>