<svg xmlns="http://www.w3.org/2000/svg" xmlns:xlink="http://www.w3.org/1999/xlink" width="150" zoomAndPan="magnify" viewBox="0 0 112.5 112.499997" height="150" preserveAspectRatio="xMidYMid meet" version="1.0"><defs><filter x="0%" y="0%" width="100%" height="100%" id="id1"><feColorMatrix values="0 0 0 0 1 0 0 0 0 1 0 0 0 0 1 0 0 0 1 0" color-interpolation-filters="sRGB"/></filter><g/><clipPath id="id2"><path d="M 0 0 L 112.003906 0 L 112.003906 112.003906 L 0 112.003906 Z M 0 0 " clip-rule="nonzero"/></clipPath><clipPath id="id3"><path d="M 0.621094 0 L 112.003906 0 L 112.003906 111 L 0.621094 111 Z M 0.621094 0 " clip-rule="nonzero"/></clipPath><mask id="id4"><g filter="url(#id1)"><rect x="-11.25" width="135" fill="#000000" y="-11.25" height="134.999996" fill-opacity="0.298"/></g></mask><clipPath id="id5"><path d="M 0.699219 0.703125 L 68.796875 0.703125 L 68.796875 57.703125 L 0.699219 57.703125 Z M 0.699219 0.703125 " clip-rule="nonzero"/></clipPath><clipPath id="id6"><rect x="0" width="69" y="0" height="59"/></clipPath></defs><g clip-path="url(#id2)"><path fill="#ffffff" d="M 0 0 L 112.5 0 L 112.5 120 L 0 120 Z M 0 0 " fill-opacity="1" fill-rule="nonzero"/><path fill="#ffffff" d="M 0 0 L 112.5 0 L 112.5 112.5 L 0 112.5 Z M 0 0 " fill-opacity="1" fill-rule="nonzero"/><path fill="#ffffff" d="M 0 0 L 112.5 0 L 112.5 112.5 L 0 112.5 Z M 0 0 " fill-opacity="1" fill-rule="nonzero"/><path fill="#ffffff" d="M 0 0 L 112.5 0 L 112.5 112.5 L 0 112.5 Z M 0 0 " fill-opacity="1" fill-rule="nonzero"/></g><path fill="#03989e" d="M 108.300781 54.210938 C 108.300781 55.957031 108.214844 57.703125 108.042969 59.441406 C 107.871094 61.179688 107.617188 62.90625 107.277344 64.621094 C 106.9375 66.332031 106.511719 68.027344 106.003906 69.699219 C 105.5 71.371094 104.910156 73.015625 104.242188 74.628906 C 103.574219 76.242188 102.828125 77.820312 102.007812 79.359375 C 101.183594 80.902344 100.285156 82.398438 99.316406 83.851562 C 98.347656 85.304688 97.308594 86.707031 96.199219 88.058594 C 95.09375 89.410156 93.921875 90.703125 92.6875 91.9375 C 91.453125 93.171875 90.160156 94.34375 88.8125 95.453125 C 87.460938 96.5625 86.0625 97.601562 84.609375 98.570312 C 83.15625 99.542969 81.660156 100.441406 80.121094 101.265625 C 78.582031 102.085938 77.003906 102.832031 75.394531 103.503906 C 73.78125 104.171875 72.136719 104.757812 70.46875 105.265625 C 68.796875 105.773438 67.105469 106.199219 65.394531 106.539062 C 63.679688 106.878906 61.957031 107.136719 60.21875 107.304688 C 58.480469 107.476562 56.738281 107.5625 54.992188 107.5625 C 53.246094 107.5625 51.503906 107.476562 49.769531 107.304688 C 48.03125 107.136719 46.304688 106.878906 44.59375 106.539062 C 42.878906 106.199219 41.1875 105.773438 39.519531 105.265625 C 37.847656 104.757812 36.207031 104.171875 34.59375 103.503906 C 32.980469 102.832031 31.402344 102.085938 29.863281 101.265625 C 28.324219 100.441406 26.828125 99.542969 25.375 98.570312 C 23.925781 97.601562 22.523438 96.5625 21.175781 95.453125 C 19.824219 94.34375 18.535156 93.171875 17.296875 91.9375 C 16.0625 90.703125 14.894531 89.410156 13.785156 88.058594 C 12.679688 86.707031 11.640625 85.304688 10.667969 83.851562 C 9.699219 82.398438 8.804688 80.902344 7.980469 79.359375 C 7.15625 77.820312 6.410156 76.242188 5.742188 74.628906 C 5.074219 73.015625 4.488281 71.371094 3.980469 69.699219 C 3.472656 68.027344 3.050781 66.332031 2.710938 64.621094 C 2.367188 62.90625 2.113281 61.179688 1.941406 59.441406 C 1.769531 57.703125 1.683594 55.957031 1.683594 54.210938 C 1.683594 52.464844 1.769531 50.722656 1.941406 48.980469 C 2.113281 47.242188 2.367188 45.515625 2.710938 43.804688 C 3.050781 42.089844 3.472656 40.394531 3.980469 38.722656 C 4.488281 37.050781 5.074219 35.410156 5.742188 33.792969 C 6.410156 32.179688 7.15625 30.601562 7.980469 29.0625 C 8.804688 27.519531 9.699219 26.023438 10.667969 24.570312 C 11.640625 23.117188 12.679688 21.714844 13.785156 20.363281 C 14.894531 19.015625 16.0625 17.722656 17.296875 16.484375 C 18.535156 15.25 19.824219 14.078125 21.175781 12.96875 C 22.523438 11.859375 23.925781 10.820312 25.375 9.851562 C 26.828125 8.878906 28.324219 7.984375 29.863281 7.160156 C 31.402344 6.335938 32.980469 5.589844 34.59375 4.921875 C 36.207031 4.25 37.847656 3.664062 39.519531 3.15625 C 41.1875 2.648438 42.878906 2.226562 44.59375 1.882812 C 46.304688 1.542969 48.03125 1.289062 49.769531 1.117188 C 51.503906 0.945312 53.246094 0.859375 54.992188 0.859375 C 56.738281 0.859375 58.480469 0.945312 60.21875 1.117188 C 61.957031 1.289062 63.679688 1.542969 65.394531 1.882812 C 67.105469 2.226562 68.796875 2.648438 70.46875 3.15625 C 72.136719 3.664062 73.78125 4.25 75.394531 4.921875 C 77.003906 5.589844 78.582031 6.335938 80.121094 7.160156 C 81.660156 7.984375 83.15625 8.878906 84.609375 9.851562 C 86.0625 10.820312 87.460938 11.859375 88.8125 12.96875 C 90.160156 14.078125 91.453125 15.25 92.6875 16.484375 C 93.921875 17.722656 95.09375 19.015625 96.199219 20.363281 C 97.308594 21.714844 98.347656 23.117188 99.316406 24.570312 C 100.285156 26.023438 101.183594 27.519531 102.007812 29.0625 C 102.828125 30.601562 103.574219 32.179688 104.242188 33.792969 C 104.910156 35.410156 105.5 37.050781 106.003906 38.722656 C 106.511719 40.394531 106.9375 42.089844 107.277344 43.804688 C 107.617188 45.515625 107.871094 47.242188 108.042969 48.980469 C 108.214844 50.722656 108.300781 52.464844 108.300781 54.210938 Z M 108.300781 54.210938 " fill-opacity="1" fill-rule="nonzero"/><g clip-path="url(#id3)"><path fill="#00c2cb" d="M 91.992188 14.691406 C 82.289062 5.585938 69.328125 0 54.992188 0 C 25.121094 0 0.828125 24.3125 0.828125 54.210938 C 0.828125 71.222656 8.722656 86.34375 20.914062 96.308594 C 30.613281 105.414062 43.660156 111 57.910156 111 C 87.785156 111 112.078125 86.6875 112.078125 56.789062 C 112.164062 39.863281 104.265625 24.65625 91.992188 14.691406 Z M 1.683594 54.210938 C 1.683594 24.742188 25.550781 0.859375 54.992188 0.859375 C 84.4375 0.859375 108.300781 24.742188 108.300781 54.210938 C 108.300781 83.679688 84.4375 107.5625 54.992188 107.5625 C 25.550781 107.5625 1.683594 83.59375 1.683594 54.210938 Z M 1.683594 54.210938 " fill-opacity="1" fill-rule="nonzero"/></g><g mask="url(#id4)"><g transform="matrix(1, 0, 0, 1, 22, 27)"><g clip-path="url(#id6)"><path fill="#00c2cb" d="M 23.824219 15.648438 L 25.625 16.113281 L 33.925781 18.234375 L 33.925781 30.398438 L 23.824219 27.820312 Z M 34.59375 12.023438 L 43.566406 14.746094 L 34.59375 17.039062 L 25.613281 14.746094 Z M 45.359375 27.820312 L 35.253906 30.398438 L 35.253906 18.234375 L 43.519531 16.125 L 45.359375 15.648438 Z M 20.15625 31.910156 C 20.320312 31.910156 20.488281 31.847656 20.621094 31.726562 L 23.351562 29.0625 L 34.421875 31.894531 C 34.480469 31.90625 34.535156 31.910156 34.59375 31.910156 C 34.644531 31.910156 34.703125 31.90625 34.757812 31.894531 L 45.84375 29.058594 L 48.796875 31.742188 C 48.925781 31.855469 49.082031 31.910156 49.242188 31.910156 C 49.421875 31.910156 49.601562 31.839844 49.734375 31.699219 C 49.984375 31.425781 49.960938 31.011719 49.691406 30.761719 L 46.691406 28.042969 L 46.691406 14.804688 C 46.691406 14.792969 46.683594 14.785156 46.683594 14.777344 C 46.679688 14.691406 46.65625 14.617188 46.625 14.542969 C 46.617188 14.523438 46.605469 14.503906 46.59375 14.480469 C 46.558594 14.414062 46.511719 14.351562 46.445312 14.300781 C 46.441406 14.292969 46.4375 14.285156 46.429688 14.28125 C 46.429688 14.277344 46.425781 14.277344 46.425781 14.277344 C 46.363281 14.230469 46.292969 14.191406 46.21875 14.171875 L 35.253906 10.84375 L 35.253906 6.164062 C 35.253906 5.800781 34.957031 5.507812 34.59375 5.507812 C 34.222656 5.507812 33.925781 5.800781 33.925781 6.164062 L 33.925781 10.84375 L 22.964844 14.171875 C 22.886719 14.191406 22.816406 14.230469 22.761719 14.277344 C 22.753906 14.277344 22.753906 14.277344 22.75 14.28125 C 22.742188 14.285156 22.738281 14.292969 22.734375 14.300781 C 22.675781 14.351562 22.621094 14.414062 22.585938 14.480469 C 22.574219 14.503906 22.5625 14.523438 22.554688 14.542969 C 22.523438 14.617188 22.5 14.691406 22.5 14.777344 C 22.5 14.785156 22.496094 14.792969 22.496094 14.804688 L 22.496094 28.050781 L 19.6875 30.785156 C 19.429688 31.035156 19.425781 31.453125 19.679688 31.714844 C 19.8125 31.847656 19.980469 31.910156 20.15625 31.910156 " fill-opacity="1" fill-rule="nonzero"/><g clip-path="url(#id5)"><path fill="#00c2cb" d="M 67.253906 36.148438 L 2.144531 36.148438 L 2.144531 2.023438 L 67.253906 2.023438 Z M 67.253906 45.933594 L 2.144531 45.933594 L 2.144531 37.46875 L 67.253906 37.46875 Z M 38.570312 56.449219 L 30.828125 56.449219 L 30.828125 47.253906 L 38.570312 47.253906 Z M 67.917969 0.703125 L 1.476562 0.703125 C 1.113281 0.703125 0.816406 0.996094 0.816406 1.363281 L 0.816406 46.597656 C 0.816406 46.957031 1.113281 47.253906 1.476562 47.253906 L 29.496094 47.253906 L 29.496094 56.449219 L 23.359375 56.449219 C 22.988281 56.449219 22.691406 56.746094 22.691406 57.109375 C 22.691406 57.46875 22.988281 57.765625 23.359375 57.765625 L 46.039062 57.765625 C 46.410156 57.765625 46.707031 57.46875 46.707031 57.109375 C 46.707031 56.746094 46.410156 56.449219 46.039062 56.449219 L 39.902344 56.449219 L 39.902344 47.253906 L 67.917969 47.253906 C 68.285156 47.253906 68.582031 46.957031 68.582031 46.597656 L 68.582031 1.363281 C 68.582031 0.996094 68.285156 0.703125 67.917969 0.703125 " fill-opacity="1" fill-rule="nonzero"/></g></g></g></g><g fill="#000000" fill-opacity="1"><g transform="translate(27.771445, 41.301227)"><g><path d="M 0.921875 0 C 0.878906 0 0.835938 -0.015625 0.796875 -0.046875 C 0.765625 -0.078125 0.75 -0.117188 0.75 -0.171875 L 0.75 -9.625 C 0.75 -9.675781 0.765625 -9.71875 0.796875 -9.75 C 0.835938 -9.78125 0.878906 -9.796875 0.921875 -9.796875 L 3.3125 -9.796875 C 4.113281 -9.796875 4.753906 -9.550781 5.234375 -9.0625 C 5.722656 -8.582031 5.96875 -7.9375 5.96875 -7.125 L 5.96875 -2.671875 C 5.96875 -1.859375 5.722656 -1.207031 5.234375 -0.71875 C 4.753906 -0.238281 4.113281 0 3.3125 0 Z M 2.375 -1.46875 C 2.375 -1.425781 2.398438 -1.40625 2.453125 -1.40625 L 3.296875 -1.40625 C 3.597656 -1.40625 3.84375 -1.53125 4.03125 -1.78125 C 4.226562 -2.03125 4.332031 -2.359375 4.34375 -2.765625 L 4.34375 -7.03125 C 4.34375 -7.445312 4.242188 -7.78125 4.046875 -8.03125 C 3.859375 -8.28125 3.601562 -8.40625 3.28125 -8.40625 L 2.453125 -8.40625 C 2.398438 -8.40625 2.375 -8.378906 2.375 -8.328125 Z M 2.375 -1.46875 "/></g></g></g><g fill="#000000" fill-opacity="1"><g transform="translate(34.375762, 41.301227)"><g><path d="M 0.921875 0 C 0.878906 0 0.835938 -0.015625 0.796875 -0.046875 C 0.765625 -0.078125 0.75 -0.117188 0.75 -0.171875 L 0.75 -9.625 C 0.75 -9.675781 0.765625 -9.71875 0.796875 -9.75 C 0.835938 -9.78125 0.878906 -9.796875 0.921875 -9.796875 L 2.21875 -9.796875 C 2.257812 -9.796875 2.296875 -9.78125 2.328125 -9.75 C 2.359375 -9.71875 2.375 -9.675781 2.375 -9.625 L 2.375 -0.171875 C 2.375 -0.117188 2.359375 -0.078125 2.328125 -0.046875 C 2.296875 -0.015625 2.257812 0 2.21875 0 Z M 0.921875 0 "/></g></g></g><g fill="#000000" fill-opacity="1"><g transform="translate(37.510012, 41.301227)"><g><path d="M 3.0625 0.109375 C 2.289062 0.109375 1.664062 -0.117188 1.1875 -0.578125 C 0.707031 -1.046875 0.46875 -1.660156 0.46875 -2.421875 L 0.46875 -2.78125 C 0.46875 -2.832031 0.484375 -2.875 0.515625 -2.90625 C 0.554688 -2.9375 0.597656 -2.953125 0.640625 -2.953125 L 1.921875 -2.953125 C 1.960938 -2.953125 2 -2.9375 2.03125 -2.90625 C 2.070312 -2.875 2.09375 -2.832031 2.09375 -2.78125 L 2.09375 -2.5 C 2.09375 -2.132812 2.179688 -1.835938 2.359375 -1.609375 C 2.535156 -1.390625 2.769531 -1.28125 3.0625 -1.28125 C 3.351562 -1.28125 3.59375 -1.382812 3.78125 -1.59375 C 3.96875 -1.8125 4.0625 -2.09375 4.0625 -2.4375 C 4.0625 -2.675781 4.007812 -2.882812 3.90625 -3.0625 C 3.800781 -3.238281 3.65625 -3.40625 3.46875 -3.5625 C 3.28125 -3.726562 2.984375 -3.957031 2.578125 -4.25 C 2.109375 -4.59375 1.726562 -4.894531 1.4375 -5.15625 C 1.15625 -5.414062 0.921875 -5.726562 0.734375 -6.09375 C 0.546875 -6.46875 0.453125 -6.894531 0.453125 -7.375 C 0.453125 -8.15625 0.679688 -8.769531 1.140625 -9.21875 C 1.609375 -9.675781 2.226562 -9.90625 3 -9.90625 C 3.769531 -9.90625 4.394531 -9.664062 4.875 -9.1875 C 5.351562 -8.707031 5.59375 -8.070312 5.59375 -7.28125 L 5.59375 -6.9375 C 5.59375 -6.894531 5.570312 -6.859375 5.53125 -6.828125 C 5.5 -6.796875 5.460938 -6.78125 5.421875 -6.78125 L 4.15625 -6.78125 C 4.113281 -6.78125 4.070312 -6.796875 4.03125 -6.828125 C 4 -6.859375 3.984375 -6.894531 3.984375 -6.9375 L 3.984375 -7.3125 C 3.984375 -7.675781 3.890625 -7.96875 3.703125 -8.1875 C 3.523438 -8.40625 3.289062 -8.515625 3 -8.515625 C 2.71875 -8.515625 2.488281 -8.410156 2.3125 -8.203125 C 2.132812 -8.003906 2.046875 -7.726562 2.046875 -7.375 C 2.046875 -7.039062 2.140625 -6.753906 2.328125 -6.515625 C 2.523438 -6.285156 2.898438 -5.96875 3.453125 -5.5625 C 4.023438 -5.132812 4.457031 -4.785156 4.75 -4.515625 C 5.039062 -4.253906 5.265625 -3.960938 5.421875 -3.640625 C 5.578125 -3.328125 5.65625 -2.953125 5.65625 -2.515625 C 5.65625 -1.722656 5.414062 -1.085938 4.9375 -0.609375 C 4.46875 -0.128906 3.84375 0.109375 3.0625 0.109375 Z M 3.0625 0.109375 "/></g></g></g><g fill="#000000" fill-opacity="1"><g transform="translate(43.582624, 41.301227)"><g><path d="M 5.640625 -8.5625 C 5.640625 -8.519531 5.625 -8.484375 5.59375 -8.453125 C 5.5625 -8.421875 5.519531 -8.40625 5.46875 -8.40625 L 2.453125 -8.40625 C 2.398438 -8.40625 2.375 -8.378906 2.375 -8.328125 L 2.375 -5.6875 C 2.375 -5.632812 2.398438 -5.609375 2.453125 -5.609375 L 4.234375 -5.609375 C 4.285156 -5.609375 4.328125 -5.59375 4.359375 -5.5625 C 4.390625 -5.53125 4.40625 -5.492188 4.40625 -5.453125 L 4.40625 -4.375 C 4.40625 -4.320312 4.390625 -4.28125 4.359375 -4.25 C 4.328125 -4.21875 4.285156 -4.203125 4.234375 -4.203125 L 2.453125 -4.203125 C 2.398438 -4.203125 2.375 -4.175781 2.375 -4.125 L 2.375 -1.46875 C 2.375 -1.425781 2.398438 -1.40625 2.453125 -1.40625 L 5.46875 -1.40625 C 5.519531 -1.40625 5.5625 -1.382812 5.59375 -1.34375 C 5.625 -1.3125 5.640625 -1.273438 5.640625 -1.234375 L 5.640625 -0.171875 C 5.640625 -0.117188 5.625 -0.078125 5.59375 -0.046875 C 5.5625 -0.015625 5.519531 0 5.46875 0 L 0.921875 0 C 0.878906 0 0.835938 -0.015625 0.796875 -0.046875 C 0.765625 -0.078125 0.75 -0.117188 0.75 -0.171875 L 0.75 -9.625 C 0.75 -9.675781 0.765625 -9.71875 0.796875 -9.75 C 0.835938 -9.78125 0.878906 -9.796875 0.921875 -9.796875 L 5.46875 -9.796875 C 5.519531 -9.796875 5.5625 -9.78125 5.59375 -9.75 C 5.625 -9.71875 5.640625 -9.675781 5.640625 -9.625 Z M 5.640625 -8.5625 "/></g></g></g><g fill="#000000" fill-opacity="1"><g transform="translate(49.669221, 41.301227)"><g><path d="M 4.734375 -9.625 C 4.734375 -9.675781 4.75 -9.71875 4.78125 -9.75 C 4.8125 -9.78125 4.851562 -9.796875 4.90625 -9.796875 L 6.171875 -9.796875 C 6.222656 -9.796875 6.265625 -9.78125 6.296875 -9.75 C 6.328125 -9.71875 6.34375 -9.675781 6.34375 -9.625 L 6.34375 -0.171875 C 6.34375 -0.117188 6.328125 -0.078125 6.296875 -0.046875 C 6.265625 -0.015625 6.222656 0 6.171875 0 L 4.703125 0 C 4.609375 0 4.546875 -0.046875 4.515625 -0.140625 L 2.4375 -6.078125 C 2.425781 -6.109375 2.410156 -6.117188 2.390625 -6.109375 C 2.367188 -6.109375 2.359375 -6.09375 2.359375 -6.0625 L 2.359375 -0.171875 C 2.359375 -0.117188 2.34375 -0.078125 2.3125 -0.046875 C 2.28125 -0.015625 2.242188 0 2.203125 0 L 0.921875 0 C 0.878906 0 0.835938 -0.015625 0.796875 -0.046875 C 0.765625 -0.078125 0.75 -0.117188 0.75 -0.171875 L 0.75 -9.625 C 0.75 -9.675781 0.765625 -9.71875 0.796875 -9.75 C 0.835938 -9.78125 0.878906 -9.796875 0.921875 -9.796875 L 2.359375 -9.796875 C 2.453125 -9.796875 2.515625 -9.75 2.546875 -9.65625 L 4.640625 -3.765625 C 4.648438 -3.734375 4.664062 -3.71875 4.6875 -3.71875 C 4.71875 -3.726562 4.734375 -3.75 4.734375 -3.78125 Z M 4.6875 -11.3125 C 4.5625 -11.3125 4.441406 -11.332031 4.328125 -11.375 C 4.222656 -11.414062 4.085938 -11.484375 3.921875 -11.578125 C 3.859375 -11.617188 3.789062 -11.660156 3.71875 -11.703125 C 3.644531 -11.753906 3.578125 -11.789062 3.515625 -11.8125 C 3.460938 -11.832031 3.398438 -11.84375 3.328125 -11.84375 C 3.109375 -11.84375 2.929688 -11.738281 2.796875 -11.53125 C 2.734375 -11.4375 2.65625 -11.414062 2.5625 -11.46875 L 2.109375 -11.796875 C 2.023438 -11.847656 2 -11.921875 2.03125 -12.015625 C 2.164062 -12.316406 2.332031 -12.535156 2.53125 -12.671875 C 2.738281 -12.816406 2.960938 -12.890625 3.203125 -12.890625 C 3.347656 -12.890625 3.484375 -12.863281 3.609375 -12.8125 C 3.742188 -12.757812 3.894531 -12.679688 4.0625 -12.578125 C 4.101562 -12.554688 4.160156 -12.519531 4.234375 -12.46875 C 4.304688 -12.414062 4.378906 -12.375 4.453125 -12.34375 C 4.523438 -12.320312 4.597656 -12.3125 4.671875 -12.3125 C 4.890625 -12.3125 5.066406 -12.414062 5.203125 -12.625 C 5.253906 -12.726562 5.328125 -12.75 5.421875 -12.6875 L 5.875 -12.375 C 5.914062 -12.351562 5.9375 -12.304688 5.9375 -12.234375 C 5.9375 -12.179688 5.921875 -12.125 5.890625 -12.0625 C 5.734375 -11.800781 5.539062 -11.609375 5.3125 -11.484375 C 5.09375 -11.367188 4.882812 -11.3125 4.6875 -11.3125 Z M 4.6875 -11.3125 "/></g></g></g><g fill="#000000" fill-opacity="1"><g transform="translate(56.763264, 41.301227)"><g><path d="M 3.265625 0.109375 C 2.460938 0.109375 1.816406 -0.128906 1.328125 -0.609375 C 0.835938 -1.097656 0.59375 -1.742188 0.59375 -2.546875 L 0.59375 -7.25 C 0.59375 -8.050781 0.835938 -8.691406 1.328125 -9.171875 C 1.816406 -9.660156 2.460938 -9.90625 3.265625 -9.90625 C 4.066406 -9.90625 4.710938 -9.660156 5.203125 -9.171875 C 5.703125 -8.691406 5.953125 -8.050781 5.953125 -7.25 L 5.953125 -2.546875 C 5.953125 -1.742188 5.703125 -1.097656 5.203125 -0.609375 C 4.710938 -0.128906 4.066406 0.109375 3.265625 0.109375 Z M 3.265625 -1.28125 C 3.578125 -1.28125 3.832031 -1.390625 4.03125 -1.609375 C 4.226562 -1.835938 4.328125 -2.128906 4.328125 -2.484375 L 4.328125 -7.328125 C 4.328125 -7.679688 4.226562 -7.96875 4.03125 -8.1875 C 3.832031 -8.40625 3.578125 -8.515625 3.265625 -8.515625 C 2.941406 -8.515625 2.6875 -8.40625 2.5 -8.1875 C 2.3125 -7.96875 2.21875 -7.679688 2.21875 -7.328125 L 2.21875 -2.484375 C 2.21875 -2.128906 2.3125 -1.835938 2.5 -1.609375 C 2.6875 -1.390625 2.941406 -1.28125 3.265625 -1.28125 Z M 3.265625 -1.28125 "/></g></g></g><g fill="#000000" fill-opacity="1"><g transform="translate(63.297611, 41.301227)"><g><path d="M 3.0625 0.109375 C 2.289062 0.109375 1.664062 -0.117188 1.1875 -0.578125 C 0.707031 -1.046875 0.46875 -1.660156 0.46875 -2.421875 L 0.46875 -2.78125 C 0.46875 -2.832031 0.484375 -2.875 0.515625 -2.90625 C 0.554688 -2.9375 0.597656 -2.953125 0.640625 -2.953125 L 1.921875 -2.953125 C 1.960938 -2.953125 2 -2.9375 2.03125 -2.90625 C 2.070312 -2.875 2.09375 -2.832031 2.09375 -2.78125 L 2.09375 -2.5 C 2.09375 -2.132812 2.179688 -1.835938 2.359375 -1.609375 C 2.535156 -1.390625 2.769531 -1.28125 3.0625 -1.28125 C 3.351562 -1.28125 3.59375 -1.382812 3.78125 -1.59375 C 3.96875 -1.8125 4.0625 -2.09375 4.0625 -2.4375 C 4.0625 -2.675781 4.007812 -2.882812 3.90625 -3.0625 C 3.800781 -3.238281 3.65625 -3.40625 3.46875 -3.5625 C 3.28125 -3.726562 2.984375 -3.957031 2.578125 -4.25 C 2.109375 -4.59375 1.726562 -4.894531 1.4375 -5.15625 C 1.15625 -5.414062 0.921875 -5.726562 0.734375 -6.09375 C 0.546875 -6.46875 0.453125 -6.894531 0.453125 -7.375 C 0.453125 -8.15625 0.679688 -8.769531 1.140625 -9.21875 C 1.609375 -9.675781 2.226562 -9.90625 3 -9.90625 C 3.769531 -9.90625 4.394531 -9.664062 4.875 -9.1875 C 5.351562 -8.707031 5.59375 -8.070312 5.59375 -7.28125 L 5.59375 -6.9375 C 5.59375 -6.894531 5.570312 -6.859375 5.53125 -6.828125 C 5.5 -6.796875 5.460938 -6.78125 5.421875 -6.78125 L 4.15625 -6.78125 C 4.113281 -6.78125 4.070312 -6.796875 4.03125 -6.828125 C 4 -6.859375 3.984375 -6.894531 3.984375 -6.9375 L 3.984375 -7.3125 C 3.984375 -7.675781 3.890625 -7.96875 3.703125 -8.1875 C 3.523438 -8.40625 3.289062 -8.515625 3 -8.515625 C 2.71875 -8.515625 2.488281 -8.410156 2.3125 -8.203125 C 2.132812 -8.003906 2.046875 -7.726562 2.046875 -7.375 C 2.046875 -7.039062 2.140625 -6.753906 2.328125 -6.515625 C 2.523438 -6.285156 2.898438 -5.96875 3.453125 -5.5625 C 4.023438 -5.132812 4.457031 -4.785156 4.75 -4.515625 C 5.039062 -4.253906 5.265625 -3.960938 5.421875 -3.640625 C 5.578125 -3.328125 5.65625 -2.953125 5.65625 -2.515625 C 5.65625 -1.722656 5.414062 -1.085938 4.9375 -0.609375 C 4.46875 -0.128906 3.84375 0.109375 3.0625 0.109375 Z M 3.0625 0.109375 "/></g></g></g><g fill="#000000" fill-opacity="1"><g transform="translate(69.370223, 41.301227)"><g/></g></g><g fill="#000000" fill-opacity="1"><g transform="translate(72.168658, 41.301227)"><g><path d="M 5.296875 -4.296875 C 5.378906 -3.921875 5.421875 -3.503906 5.421875 -3.046875 C 5.421875 -2.585938 5.382812 -2.195312 5.3125 -1.875 C 5.207031 -1.238281 4.957031 -0.75 4.5625 -0.40625 C 4.164062 -0.0625 3.625 0.109375 2.9375 0.109375 C 2.226562 0.109375 1.648438 -0.078125 1.203125 -0.453125 C 0.753906 -0.828125 0.503906 -1.34375 0.453125 -2 C 0.429688 -2.207031 0.410156 -2.503906 0.390625 -2.890625 C 0.390625 -3.003906 0.445312 -3.0625 0.5625 -3.0625 L 1.84375 -3.0625 C 1.957031 -3.0625 2.015625 -3.003906 2.015625 -2.890625 C 2.035156 -2.578125 2.054688 -2.34375 2.078125 -2.1875 C 2.117188 -1.894531 2.210938 -1.671875 2.359375 -1.515625 C 2.515625 -1.359375 2.707031 -1.28125 2.9375 -1.28125 C 3.164062 -1.28125 3.351562 -1.351562 3.5 -1.5 C 3.644531 -1.644531 3.742188 -1.851562 3.796875 -2.125 C 3.835938 -2.40625 3.859375 -2.769531 3.859375 -3.21875 C 3.859375 -3.695312 3.828125 -4.09375 3.765625 -4.40625 C 3.710938 -4.65625 3.613281 -4.84375 3.46875 -4.96875 C 3.332031 -5.101562 3.15625 -5.171875 2.9375 -5.171875 C 2.800781 -5.171875 2.675781 -5.128906 2.5625 -5.046875 C 2.507812 -5.003906 2.46875 -4.984375 2.4375 -4.984375 C 2.414062 -4.984375 2.378906 -5.003906 2.328125 -5.046875 L 1.671875 -5.71875 C 1.628906 -5.75 1.609375 -5.789062 1.609375 -5.84375 C 1.609375 -5.875 1.625 -5.910156 1.65625 -5.953125 L 3.40625 -8.328125 C 3.425781 -8.347656 3.425781 -8.363281 3.40625 -8.375 C 3.394531 -8.394531 3.375 -8.40625 3.34375 -8.40625 L 0.6875 -8.40625 C 0.632812 -8.40625 0.59375 -8.421875 0.5625 -8.453125 C 0.53125 -8.492188 0.515625 -8.535156 0.515625 -8.578125 L 0.515625 -9.625 C 0.515625 -9.675781 0.53125 -9.71875 0.5625 -9.75 C 0.59375 -9.78125 0.632812 -9.796875 0.6875 -9.796875 L 5.21875 -9.796875 C 5.269531 -9.796875 5.3125 -9.78125 5.34375 -9.75 C 5.375 -9.71875 5.390625 -9.675781 5.390625 -9.625 L 5.390625 -8.53125 C 5.390625 -8.457031 5.363281 -8.382812 5.3125 -8.3125 L 3.71875 -6.125 C 3.6875 -6.070312 3.695312 -6.039062 3.75 -6.03125 C 4.132812 -5.988281 4.460938 -5.804688 4.734375 -5.484375 C 5.015625 -5.171875 5.203125 -4.773438 5.296875 -4.296875 Z M 5.296875 -4.296875 "/></g></g></g><g fill="#000000" fill-opacity="1"><g transform="translate(78.129336, 41.301227)"><g><path d="M 0.921875 0 C 0.878906 0 0.835938 -0.015625 0.796875 -0.046875 C 0.765625 -0.078125 0.75 -0.117188 0.75 -0.171875 L 0.75 -9.625 C 0.75 -9.675781 0.765625 -9.71875 0.796875 -9.75 C 0.835938 -9.78125 0.878906 -9.796875 0.921875 -9.796875 L 3.3125 -9.796875 C 4.113281 -9.796875 4.753906 -9.550781 5.234375 -9.0625 C 5.722656 -8.582031 5.96875 -7.9375 5.96875 -7.125 L 5.96875 -2.671875 C 5.96875 -1.859375 5.722656 -1.207031 5.234375 -0.71875 C 4.753906 -0.238281 4.113281 0 3.3125 0 Z M 2.375 -1.46875 C 2.375 -1.425781 2.398438 -1.40625 2.453125 -1.40625 L 3.296875 -1.40625 C 3.597656 -1.40625 3.84375 -1.53125 4.03125 -1.78125 C 4.226562 -2.03125 4.332031 -2.359375 4.34375 -2.765625 L 4.34375 -7.03125 C 4.34375 -7.445312 4.242188 -7.78125 4.046875 -8.03125 C 3.859375 -8.28125 3.601562 -8.40625 3.28125 -8.40625 L 2.453125 -8.40625 C 2.398438 -8.40625 2.375 -8.378906 2.375 -8.328125 Z M 2.375 -1.46875 "/></g></g></g><g fill="#000000" fill-opacity="1"><g transform="translate(56.248005, 60.801225)"><g/></g></g><g fill="#000000" fill-opacity="1"><g transform="translate(34.00582, 80.301223)"><g><path d="M 2.578125 0 C 2.472656 0 2.410156 -0.0507812 2.390625 -0.15625 L 0.390625 -9.625 L 0.375 -9.671875 C 0.375 -9.753906 0.425781 -9.796875 0.53125 -9.796875 L 1.953125 -9.796875 C 2.054688 -9.796875 2.113281 -9.742188 2.125 -9.640625 L 3.296875 -2.90625 C 3.296875 -2.882812 3.304688 -2.875 3.328125 -2.875 C 3.347656 -2.875 3.363281 -2.882812 3.375 -2.90625 L 4.515625 -9.640625 C 4.515625 -9.742188 4.570312 -9.796875 4.6875 -9.796875 L 6.0625 -9.796875 C 6.1875 -9.796875 6.234375 -9.738281 6.203125 -9.625 L 4.1875 -0.15625 C 4.164062 -0.0507812 4.101562 0 4 0 Z M 2.578125 0 "/></g></g></g><g fill="#000000" fill-opacity="1"><g transform="translate(40.59614, 80.301223)"><g><path d="M 5.640625 -8.5625 C 5.640625 -8.519531 5.625 -8.484375 5.59375 -8.453125 C 5.5625 -8.421875 5.519531 -8.40625 5.46875 -8.40625 L 2.453125 -8.40625 C 2.398438 -8.40625 2.375 -8.378906 2.375 -8.328125 L 2.375 -5.6875 C 2.375 -5.632812 2.398438 -5.609375 2.453125 -5.609375 L 4.234375 -5.609375 C 4.285156 -5.609375 4.328125 -5.59375 4.359375 -5.5625 C 4.390625 -5.53125 4.40625 -5.492188 4.40625 -5.453125 L 4.40625 -4.375 C 4.40625 -4.320312 4.390625 -4.28125 4.359375 -4.25 C 4.328125 -4.21875 4.285156 -4.203125 4.234375 -4.203125 L 2.453125 -4.203125 C 2.398438 -4.203125 2.375 -4.175781 2.375 -4.125 L 2.375 -1.46875 C 2.375 -1.425781 2.398438 -1.40625 2.453125 -1.40625 L 5.46875 -1.40625 C 5.519531 -1.40625 5.5625 -1.382812 5.59375 -1.34375 C 5.625 -1.3125 5.640625 -1.273438 5.640625 -1.234375 L 5.640625 -0.171875 C 5.640625 -0.117188 5.625 -0.078125 5.59375 -0.046875 C 5.5625 -0.015625 5.519531 0 5.46875 0 L 0.921875 0 C 0.878906 0 0.835938 -0.015625 0.796875 -0.046875 C 0.765625 -0.078125 0.75 -0.117188 0.75 -0.171875 L 0.75 -9.625 C 0.75 -9.675781 0.765625 -9.71875 0.796875 -9.75 C 0.835938 -9.78125 0.878906 -9.796875 0.921875 -9.796875 L 5.46875 -9.796875 C 5.519531 -9.796875 5.5625 -9.78125 5.59375 -9.75 C 5.625 -9.71875 5.640625 -9.675781 5.640625 -9.625 Z M 5.640625 -8.5625 "/></g></g></g><g fill="#000000" fill-opacity="1"><g transform="translate(46.682737, 80.301223)"><g><path d="M 4.640625 0 C 4.546875 0 4.484375 -0.046875 4.453125 -0.140625 L 3.265625 -4.15625 C 3.242188 -4.195312 3.21875 -4.21875 3.1875 -4.21875 L 2.453125 -4.21875 C 2.398438 -4.21875 2.375 -4.191406 2.375 -4.140625 L 2.375 -0.171875 C 2.375 -0.117188 2.359375 -0.078125 2.328125 -0.046875 C 2.296875 -0.015625 2.257812 0 2.21875 0 L 0.921875 0 C 0.878906 0 0.835938 -0.015625 0.796875 -0.046875 C 0.765625 -0.078125 0.75 -0.117188 0.75 -0.171875 L 0.75 -9.625 C 0.75 -9.675781 0.765625 -9.71875 0.796875 -9.75 C 0.835938 -9.78125 0.878906 -9.796875 0.921875 -9.796875 L 3.5625 -9.796875 C 4.050781 -9.796875 4.484375 -9.675781 4.859375 -9.4375 C 5.242188 -9.207031 5.539062 -8.875 5.75 -8.4375 C 5.957031 -8 6.0625 -7.5 6.0625 -6.9375 C 6.0625 -6.363281 5.945312 -5.863281 5.71875 -5.4375 C 5.5 -5.019531 5.1875 -4.707031 4.78125 -4.5 C 4.75 -4.488281 4.738281 -4.457031 4.75 -4.40625 L 6.125 -0.203125 C 6.125 -0.179688 6.125 -0.15625 6.125 -0.125 C 6.125 -0.0390625 6.078125 0 5.984375 0 Z M 2.453125 -8.40625 C 2.398438 -8.40625 2.375 -8.378906 2.375 -8.328125 L 2.375 -5.546875 C 2.375 -5.492188 2.398438 -5.46875 2.453125 -5.46875 L 3.296875 -5.46875 C 3.640625 -5.46875 3.914062 -5.597656 4.125 -5.859375 C 4.332031 -6.128906 4.4375 -6.488281 4.4375 -6.9375 C 4.4375 -7.382812 4.332031 -7.738281 4.125 -8 C 3.914062 -8.269531 3.640625 -8.40625 3.296875 -8.40625 Z M 2.453125 -8.40625 "/></g></g></g><g fill="#000000" fill-opacity="1"><g transform="translate(53.133141, 80.301223)"><g/></g></g><g fill="#000000" fill-opacity="1"><g transform="translate(55.931576, 80.301223)"><g><path d="M 4.734375 0 C 4.617188 0 4.554688 -0.0507812 4.546875 -0.15625 L 4.28125 -1.625 C 4.28125 -1.664062 4.253906 -1.6875 4.203125 -1.6875 L 2.15625 -1.6875 C 2.101562 -1.6875 2.078125 -1.664062 2.078125 -1.625 L 1.8125 -0.15625 C 1.800781 -0.0507812 1.738281 0 1.625 0 L 0.34375 0 C 0.21875 0 0.171875 -0.0625 0.203125 -0.1875 L 2.265625 -9.640625 C 2.285156 -9.742188 2.347656 -9.796875 2.453125 -9.796875 L 3.9375 -9.796875 C 4.039062 -9.796875 4.097656 -9.742188 4.109375 -9.640625 L 6.1875 -0.1875 L 6.1875 -0.125 C 6.1875 -0.0390625 6.132812 0 6.03125 0 Z M 2.328125 -3.03125 C 2.316406 -2.988281 2.335938 -2.96875 2.390625 -2.96875 L 3.953125 -2.96875 C 4.003906 -2.96875 4.023438 -2.988281 4.015625 -3.03125 L 3.203125 -7.46875 C 3.191406 -7.488281 3.175781 -7.5 3.15625 -7.5 C 3.144531 -7.5 3.132812 -7.488281 3.125 -7.46875 Z M 2.328125 -3.03125 "/></g></g></g><g fill="#000000" fill-opacity="1"><g transform="translate(62.312011, 80.301223)"><g><path d="M 3.171875 -9.90625 C 3.960938 -9.90625 4.59375 -9.65625 5.0625 -9.15625 C 5.539062 -8.65625 5.78125 -8 5.78125 -7.1875 L 5.78125 -2.625 C 5.78125 -1.976562 5.625 -1.421875 5.3125 -0.953125 C 5.007812 -0.492188 4.585938 -0.179688 4.046875 -0.015625 C 4.003906 -0.00390625 3.984375 0.0195312 3.984375 0.0625 L 3.984375 1.28125 C 3.984375 1.332031 3.96875 1.375 3.9375 1.40625 C 3.90625 1.4375 3.867188 1.453125 3.828125 1.453125 L 2.53125 1.453125 C 2.488281 1.453125 2.445312 1.4375 2.40625 1.40625 C 2.375 1.375 2.359375 1.332031 2.359375 1.28125 L 2.359375 0.0625 C 2.359375 0.0195312 2.34375 -0.00390625 2.3125 -0.015625 C 1.78125 -0.191406 1.359375 -0.507812 1.046875 -0.96875 C 0.742188 -1.425781 0.59375 -1.976562 0.59375 -2.625 L 0.59375 -7.1875 C 0.59375 -8 0.828125 -8.65625 1.296875 -9.15625 C 1.773438 -9.65625 2.398438 -9.90625 3.171875 -9.90625 Z M 4.15625 -7.34375 C 4.15625 -7.695312 4.0625 -7.976562 3.875 -8.1875 C 3.695312 -8.40625 3.460938 -8.515625 3.171875 -8.515625 C 2.890625 -8.515625 2.660156 -8.40625 2.484375 -8.1875 C 2.304688 -7.976562 2.21875 -7.695312 2.21875 -7.34375 L 2.21875 -2.453125 C 2.21875 -2.109375 2.304688 -1.828125 2.484375 -1.609375 C 2.660156 -1.390625 2.890625 -1.28125 3.171875 -1.28125 C 3.460938 -1.28125 3.695312 -1.390625 3.875 -1.609375 C 4.0625 -1.828125 4.15625 -2.109375 4.15625 -2.453125 Z M 4.15625 -7.34375 "/></g></g></g><g fill="#000000" fill-opacity="1"><g transform="translate(68.678462, 80.301223)"><g><path d="M 3.34375 0.109375 C 2.539062 0.109375 1.898438 -0.144531 1.421875 -0.65625 C 0.941406 -1.175781 0.703125 -1.863281 0.703125 -2.71875 L 0.703125 -9.625 C 0.703125 -9.675781 0.71875 -9.71875 0.75 -9.75 C 0.78125 -9.78125 0.820312 -9.796875 0.875 -9.796875 L 2.15625 -9.796875 C 2.195312 -9.796875 2.234375 -9.78125 2.265625 -9.75 C 2.304688 -9.71875 2.328125 -9.675781 2.328125 -9.625 L 2.328125 -2.546875 C 2.328125 -2.171875 2.421875 -1.863281 2.609375 -1.625 C 2.796875 -1.394531 3.039062 -1.28125 3.34375 -1.28125 C 3.65625 -1.28125 3.90625 -1.394531 4.09375 -1.625 C 4.28125 -1.863281 4.375 -2.171875 4.375 -2.546875 L 4.375 -9.625 C 4.375 -9.675781 4.390625 -9.71875 4.421875 -9.75 C 4.453125 -9.78125 4.488281 -9.796875 4.53125 -9.796875 L 5.828125 -9.796875 C 5.867188 -9.796875 5.90625 -9.78125 5.9375 -9.75 C 5.96875 -9.71875 5.984375 -9.675781 5.984375 -9.625 L 5.984375 -2.71875 C 5.984375 -1.863281 5.738281 -1.175781 5.25 -0.65625 C 4.769531 -0.144531 4.132812 0.109375 3.34375 0.109375 Z M 3.34375 0.109375 "/></g></g></g><g fill="#000000" fill-opacity="1"><g transform="translate(75.366732, 80.301223)"><g><path d="M 0.921875 0 C 0.878906 0 0.835938 -0.015625 0.796875 -0.046875 C 0.765625 -0.078125 0.75 -0.117188 0.75 -0.171875 L 0.75 -9.625 C 0.75 -9.675781 0.765625 -9.71875 0.796875 -9.75 C 0.835938 -9.78125 0.878906 -9.796875 0.921875 -9.796875 L 2.21875 -9.796875 C 2.257812 -9.796875 2.296875 -9.78125 2.328125 -9.75 C 2.359375 -9.71875 2.375 -9.675781 2.375 -9.625 L 2.375 -0.171875 C 2.375 -0.117188 2.359375 -0.078125 2.328125 -0.046875 C 2.296875 -0.015625 2.257812 0 2.21875 0 Z M 0.921875 0 "/></g></g></g></svg>