<svg xmlns="http://www.w3.org/2000/svg" xmlns:xlink="http://www.w3.org/1999/xlink" width="150" zoomAndPan="magnify" viewBox="0 0 112.5 112.499997" height="150" preserveAspectRatio="xMidYMid meet" version="1.0"><defs><filter x="0%" y="0%" width="100%" height="100%" id="id1"><feColorMatrix values="0 0 0 0 1 0 0 0 0 1 0 0 0 0 1 0 0 0 1 0" color-interpolation-filters="sRGB"/></filter><g/><clipPath id="id2"><path d="M 1 0 L 112.003906 0 L 112.003906 111 L 1 111 Z M 1 0 " clip-rule="nonzero"/></clipPath><mask id="id3"><g filter="url(#id1)"><rect x="-11.25" width="135" fill="#000000" y="-11.25" height="134.999996" fill-opacity="0.298"/></g></mask><clipPath id="id4"><path d="M 2 53 L 65 53 L 65 73.84375 L 2 73.84375 Z M 2 53 " clip-rule="nonzero"/></clipPath><clipPath id="id5"><path d="M 0.773438 0.34375 L 66 0.34375 L 66 42 L 0.773438 42 Z M 0.773438 0.34375 " clip-rule="nonzero"/></clipPath><clipPath id="id6"><rect x="0" width="67" y="0" height="74"/></clipPath></defs><path fill="#03989e" d="M 108.488281 54.210938 C 108.488281 55.957031 108.402344 57.703125 108.230469 59.441406 C 108.058594 61.179688 107.804688 62.90625 107.464844 64.621094 C 107.125 66.332031 106.699219 68.027344 106.191406 69.699219 C 105.6875 71.371094 105.097656 73.015625 104.429688 74.628906 C 103.761719 76.242188 103.015625 77.820312 102.195312 79.359375 C 101.371094 80.902344 100.472656 82.398438 99.503906 83.851562 C 98.535156 85.304688 97.496094 86.707031 96.386719 88.058594 C 95.28125 89.410156 94.109375 90.703125 92.875 91.9375 C 91.640625 93.171875 90.347656 94.34375 89 95.453125 C 87.648438 96.5625 86.25 97.601562 84.796875 98.570312 C 83.34375 99.542969 81.851562 100.441406 80.308594 101.265625 C 78.769531 102.085938 77.195312 102.832031 75.582031 103.503906 C 73.96875 104.171875 72.328125 104.757812 70.65625 105.265625 C 68.984375 105.773438 67.292969 106.199219 65.582031 106.539062 C 63.867188 106.878906 62.144531 107.136719 60.40625 107.304688 C 58.667969 107.476562 56.925781 107.5625 55.179688 107.5625 C 53.433594 107.5625 51.695312 107.476562 49.957031 107.304688 C 48.21875 107.136719 46.492188 106.878906 44.78125 106.539062 C 43.070312 106.199219 41.378906 105.773438 39.707031 105.265625 C 38.035156 104.757812 36.394531 104.171875 34.78125 103.503906 C 33.167969 102.832031 31.59375 102.085938 30.050781 101.265625 C 28.511719 100.441406 27.015625 99.542969 25.566406 98.570312 C 24.113281 97.601562 22.714844 96.5625 21.363281 95.453125 C 20.015625 94.34375 18.722656 93.171875 17.488281 91.9375 C 16.253906 90.703125 15.082031 89.410156 13.972656 88.058594 C 12.867188 86.707031 11.828125 85.304688 10.859375 83.851562 C 9.886719 82.398438 8.992188 80.902344 8.167969 79.359375 C 7.347656 77.820312 6.601562 76.242188 5.933594 74.628906 C 5.265625 73.015625 4.675781 71.371094 4.167969 69.699219 C 3.664062 68.027344 3.238281 66.332031 2.898438 64.621094 C 2.558594 62.90625 2.300781 61.179688 2.132812 59.441406 C 1.960938 57.703125 1.875 55.957031 1.875 54.210938 C 1.875 52.464844 1.960938 50.722656 2.132812 48.980469 C 2.300781 47.242188 2.558594 45.515625 2.898438 43.804688 C 3.238281 42.089844 3.664062 40.394531 4.167969 38.722656 C 4.675781 37.050781 5.265625 35.410156 5.933594 33.792969 C 6.601562 32.179688 7.347656 30.601562 8.167969 29.0625 C 8.992188 27.519531 9.886719 26.023438 10.859375 24.570312 C 11.828125 23.117188 12.867188 21.714844 13.972656 20.363281 C 15.082031 19.015625 16.253906 17.722656 17.488281 16.484375 C 18.722656 15.25 20.015625 14.078125 21.363281 12.96875 C 22.714844 11.859375 24.113281 10.820312 25.566406 9.851562 C 27.015625 8.878906 28.511719 7.984375 30.050781 7.160156 C 31.59375 6.335938 33.167969 5.589844 34.78125 4.921875 C 36.394531 4.25 38.035156 3.664062 39.707031 3.15625 C 41.378906 2.648438 43.070312 2.226562 44.78125 1.882812 C 46.492188 1.542969 48.21875 1.289062 49.957031 1.117188 C 51.695312 0.945312 53.433594 0.859375 55.179688 0.859375 C 56.925781 0.859375 58.667969 0.945312 60.40625 1.117188 C 62.144531 1.289062 63.867188 1.542969 65.582031 1.882812 C 67.292969 2.226562 68.984375 2.648438 70.65625 3.15625 C 72.328125 3.664062 73.96875 4.25 75.582031 4.921875 C 77.195312 5.589844 78.769531 6.335938 80.308594 7.160156 C 81.851562 7.984375 83.34375 8.878906 84.796875 9.851562 C 86.25 10.820312 87.648438 11.859375 89 12.96875 C 90.347656 14.078125 91.640625 15.25 92.875 16.484375 C 94.109375 17.722656 95.28125 19.015625 96.386719 20.363281 C 97.496094 21.714844 98.535156 23.117188 99.503906 24.570312 C 100.472656 26.023438 101.371094 27.519531 102.195312 29.0625 C 103.015625 30.601562 103.761719 32.179688 104.429688 33.792969 C 105.097656 35.410156 105.6875 37.050781 106.191406 38.722656 C 106.699219 40.394531 107.125 42.089844 107.464844 43.804688 C 107.804688 45.515625 108.058594 47.242188 108.230469 48.980469 C 108.402344 50.722656 108.488281 52.464844 108.488281 54.210938 Z M 108.488281 54.210938 " fill-opacity="1" fill-rule="nonzero"/><g clip-path="url(#id2)"><path fill="#00c2cb" d="M 92.179688 14.691406 C 82.480469 5.585938 69.515625 0 55.179688 0 C 25.308594 0 1.015625 24.3125 1.015625 54.210938 C 1.015625 71.222656 8.914062 86.34375 21.101562 96.308594 C 30.800781 105.414062 43.851562 111 58.101562 111 C 87.972656 111 112.265625 86.6875 112.265625 56.789062 C 112.351562 39.863281 104.453125 24.65625 92.179688 14.691406 Z M 1.875 54.210938 C 1.875 24.742188 25.738281 0.859375 55.179688 0.859375 C 84.625 0.859375 108.488281 24.742188 108.488281 54.210938 C 108.488281 83.679688 84.625 107.5625 55.179688 107.5625 C 25.738281 107.5625 1.875 83.59375 1.875 54.210938 Z M 1.875 54.210938 " fill-opacity="1" fill-rule="nonzero"/></g><g mask="url(#id3)"><g transform="matrix(1, 0, 0, 1, 23, 19)"><g clip-path="url(#id6)"><g clip-path="url(#id4)"><path fill="#00c2cb" d="M 61.082031 73.84375 L 5.625 73.84375 C 5.621094 73.84375 5.621094 73.84375 5.617188 73.84375 C 4.199219 73.835938 2.953125 73.117188 2.363281 71.960938 C 1.835938 70.945312 1.9375 69.78125 2.625 68.84375 L 13.042969 54.636719 C 14.160156 53.113281 15.847656 53.148438 17.34375 53.175781 C 17.558594 53.175781 17.78125 53.183594 18.003906 53.183594 C 18.460938 53.183594 18.832031 53.550781 18.832031 54.003906 C 18.832031 54.453125 18.460938 54.824219 18.003906 54.824219 C 17.769531 54.824219 17.539062 54.820312 17.308594 54.816406 C 15.828125 54.789062 14.964844 54.8125 14.382812 55.601562 L 3.964844 69.804688 C 3.527344 70.402344 3.695312 70.945312 3.835938 71.21875 C 4.082031 71.691406 4.679688 72.199219 5.636719 72.199219 L 61.082031 72.199219 C 62.039062 72.199219 62.636719 71.691406 62.882812 71.21875 C 63.023438 70.945312 63.191406 70.402344 62.757812 69.804688 L 52.339844 55.601562 C 51.757812 54.816406 50.953125 54.789062 49.472656 54.816406 C 49.257812 54.820312 49.042969 54.824219 48.820312 54.824219 C 48.359375 54.824219 47.992188 54.453125 47.992188 54.003906 C 47.992188 53.550781 48.359375 53.183594 48.820312 53.183594 C 49.03125 53.183594 49.238281 53.179688 49.449219 53.175781 C 50.972656 53.148438 52.5625 53.121094 53.675781 54.636719 L 64.09375 68.84375 C 64.785156 69.78125 64.882812 70.945312 64.359375 71.960938 C 63.765625 73.121094 62.507812 73.84375 61.082031 73.84375 " fill-opacity="1" fill-rule="nonzero"/></g><path fill="#00c2cb" d="M 33.300781 46.296875 C 32.839844 46.296875 32.472656 45.929688 32.472656 45.476562 L 32.472656 44.511719 C 32.472656 43.183594 31.382812 42.101562 30.039062 42.101562 L 25.945312 42.101562 C 24.011719 42.101562 23 40.585938 23 39.089844 C 23 38.324219 23.257812 37.605469 23.726562 37.0625 C 24.265625 36.4375 25.054688 36.09375 25.945312 36.09375 L 41.328125 36.09375 C 42.039062 36.09375 42.617188 35.519531 42.617188 34.816406 C 42.617188 34.113281 42.039062 33.539062 41.328125 33.539062 L 36.5625 33.539062 C 34.308594 33.539062 32.472656 31.722656 32.472656 29.484375 L 32.472656 27.269531 C 32.472656 26.816406 32.84375 26.449219 33.300781 26.449219 C 33.757812 26.449219 34.128906 26.816406 34.128906 27.269531 L 34.128906 29.484375 C 34.128906 30.8125 35.222656 31.898438 36.5625 31.898438 L 41.328125 31.898438 C 42.949219 31.898438 44.273438 33.207031 44.273438 34.816406 C 44.273438 36.425781 42.949219 37.738281 41.328125 37.738281 L 25.945312 37.738281 C 25.535156 37.738281 25.210938 37.867188 24.984375 38.128906 C 24.773438 38.371094 24.65625 38.722656 24.65625 39.089844 C 24.65625 39.230469 24.691406 40.457031 25.945312 40.457031 L 30.039062 40.457031 C 32.292969 40.457031 34.128906 42.277344 34.128906 44.511719 L 34.128906 45.476562 C 34.128906 45.929688 33.757812 46.296875 33.300781 46.296875 " fill-opacity="1" fill-rule="nonzero"/><path fill="#00c2cb" d="M 25.265625 6.867188 C 24.71875 6.867188 24.28125 7.304688 24.28125 7.84375 L 24.28125 19.566406 C 24.28125 20.101562 24.71875 20.542969 25.265625 20.542969 L 41.457031 20.542969 C 42 20.542969 42.441406 20.101562 42.441406 19.566406 L 42.441406 7.84375 C 42.441406 7.304688 42 6.867188 41.457031 6.867188 Z M 41.457031 22.183594 L 25.265625 22.183594 C 23.808594 22.183594 22.621094 21.007812 22.621094 19.566406 L 22.621094 7.84375 C 22.621094 6.398438 23.808594 5.222656 25.265625 5.222656 L 41.457031 5.222656 C 42.914062 5.222656 44.097656 6.398438 44.097656 7.84375 L 44.097656 19.566406 C 44.097656 21.007812 42.914062 22.183594 41.457031 22.183594 " fill-opacity="1" fill-rule="nonzero"/><g clip-path="url(#id5)"><path fill="#00c2cb" d="M 60.609375 41.042969 L 53.71875 41.042969 C 53.261719 41.042969 52.890625 40.675781 52.890625 40.222656 C 52.890625 39.769531 53.261719 39.402344 53.71875 39.402344 L 60.609375 39.402344 C 62.597656 39.402344 64.277344 38.21875 64.277344 36.816406 L 64.277344 4.570312 C 64.277344 3.167969 62.597656 1.984375 60.609375 1.984375 L 6.113281 1.984375 C 4.121094 1.984375 2.441406 3.167969 2.441406 4.570312 L 2.441406 36.816406 C 2.441406 38.21875 4.121094 39.402344 6.113281 39.402344 L 13 39.402344 C 13.457031 39.402344 13.828125 39.769531 13.828125 40.222656 C 13.828125 40.675781 13.457031 41.042969 13 41.042969 L 6.113281 41.042969 C 3.175781 41.042969 0.785156 39.148438 0.785156 36.816406 L 0.785156 4.570312 C 0.785156 2.238281 3.175781 0.34375 6.113281 0.34375 L 60.609375 0.34375 C 63.542969 0.34375 65.933594 2.238281 65.933594 4.570312 L 65.933594 36.816406 C 65.933594 39.148438 63.542969 41.042969 60.609375 41.042969 " fill-opacity="1" fill-rule="nonzero"/></g><path fill="#00c2cb" d="M 37.875 28.09375 L 28.84375 28.09375 C 27.855469 28.09375 27.050781 27.296875 27.050781 26.316406 L 27.050781 21.359375 C 27.050781 20.910156 27.421875 20.542969 27.878906 20.542969 C 28.335938 20.542969 28.707031 20.910156 28.707031 21.359375 L 28.707031 26.316406 C 28.707031 26.390625 28.769531 26.449219 28.84375 26.449219 L 37.875 26.449219 C 37.949219 26.449219 38.011719 26.390625 38.011719 26.316406 L 38.011719 21.359375 C 38.011719 20.910156 38.382812 20.542969 38.839844 20.542969 C 39.296875 20.542969 39.667969 20.910156 39.667969 21.359375 L 39.667969 26.316406 C 39.667969 27.296875 38.863281 28.09375 37.875 28.09375 " fill-opacity="1" fill-rule="nonzero"/><path fill="#00c2cb" d="M 59.21875 12.023438 L 43.269531 12.023438 C 42.8125 12.023438 42.441406 11.65625 42.441406 11.203125 C 42.441406 10.75 42.8125 10.378906 43.269531 10.378906 L 59.21875 10.378906 C 59.671875 10.378906 60.046875 10.75 60.046875 11.203125 C 60.046875 11.65625 59.671875 12.023438 59.21875 12.023438 " fill-opacity="1" fill-rule="nonzero"/><path fill="#00c2cb" d="M 59.21875 17.027344 L 43.269531 17.027344 C 42.8125 17.027344 42.441406 16.660156 42.441406 16.207031 C 42.441406 15.753906 42.8125 15.386719 43.269531 15.386719 L 59.21875 15.386719 C 59.671875 15.386719 60.046875 15.753906 60.046875 16.207031 C 60.046875 16.660156 59.671875 17.027344 59.21875 17.027344 " fill-opacity="1" fill-rule="nonzero"/><path fill="#00c2cb" d="M 23.449219 12.023438 L 7.414062 12.023438 C 6.957031 12.023438 6.585938 11.65625 6.585938 11.203125 C 6.585938 10.75 6.957031 10.378906 7.414062 10.378906 L 23.449219 10.378906 C 23.910156 10.378906 24.28125 10.75 24.28125 11.203125 C 24.28125 11.65625 23.910156 12.023438 23.449219 12.023438 " fill-opacity="1" fill-rule="nonzero"/><path fill="#00c2cb" d="M 23.449219 17.027344 L 7.414062 17.027344 C 6.957031 17.027344 6.585938 16.660156 6.585938 16.207031 C 6.585938 15.753906 6.957031 15.386719 7.414062 15.386719 L 23.449219 15.386719 C 23.910156 15.386719 24.28125 15.753906 24.28125 16.207031 C 24.28125 16.660156 23.910156 17.027344 23.449219 17.027344 " fill-opacity="1" fill-rule="nonzero"/><path fill="#00c2cb" d="M 22.210938 63.03125 L 32.53125 67.238281 L 32.53125 55.207031 L 22.210938 51 Z M 33.359375 69.28125 C 33.253906 69.28125 33.144531 69.261719 33.042969 69.222656 L 21.066406 64.339844 C 20.757812 64.214844 20.554688 63.914062 20.554688 63.578125 L 20.554688 49.773438 C 20.554688 49.503906 20.691406 49.242188 20.917969 49.089844 C 21.152344 48.941406 21.441406 48.910156 21.699219 49.015625 L 33.675781 53.894531 C 33.984375 54.023438 34.1875 54.324219 34.1875 54.65625 L 34.1875 68.460938 C 34.1875 68.734375 34.050781 68.992188 33.820312 69.144531 C 33.679688 69.234375 33.523438 69.28125 33.359375 69.28125 " fill-opacity="1" fill-rule="nonzero"/><path fill="#00c2cb" d="M 33.359375 69.28125 C 33.03125 69.28125 32.726562 69.089844 32.59375 68.773438 C 32.417969 68.355469 32.621094 67.875 33.042969 67.703125 L 44.507812 63.03125 L 44.507812 51 L 33.675781 55.414062 C 33.25 55.585938 32.769531 55.386719 32.59375 54.96875 C 32.417969 54.546875 32.621094 54.070312 33.042969 53.894531 L 45.019531 49.015625 C 45.277344 48.910156 45.570312 48.941406 45.800781 49.089844 C 46.03125 49.242188 46.164062 49.503906 46.164062 49.773438 L 46.164062 63.578125 C 46.164062 63.914062 45.960938 64.214844 45.652344 64.339844 L 33.675781 69.222656 C 33.570312 69.265625 33.464844 69.28125 33.359375 69.28125 " fill-opacity="1" fill-rule="nonzero"/><path fill="#00c2cb" d="M 45.335938 50.597656 C 45.246094 50.597656 45.148438 50.578125 45.054688 50.542969 L 33.359375 46.351562 L 21.664062 50.542969 C 21.234375 50.703125 20.761719 50.480469 20.605469 50.054688 C 20.449219 49.628906 20.671875 49.15625 21.097656 49.003906 L 33.078125 44.703125 C 33.257812 44.640625 33.460938 44.640625 33.640625 44.703125 L 45.621094 49.003906 C 46.050781 49.15625 46.273438 49.628906 46.117188 50.054688 C 45.996094 50.390625 45.675781 50.597656 45.335938 50.597656 " fill-opacity="1" fill-rule="nonzero"/></g></g></g><g fill="#000000" fill-opacity="1"><g transform="translate(16.275018, 41.999998)"><g><path d="M 0.921875 0 C 0.878906 0 0.835938 -0.015625 0.796875 -0.046875 C 0.765625 -0.078125 0.75 -0.117188 0.75 -0.171875 L 0.75 -9.625 C 0.75 -9.675781 0.765625 -9.71875 0.796875 -9.75 C 0.835938 -9.78125 0.878906 -9.796875 0.921875 -9.796875 L 2.21875 -9.796875 C 2.257812 -9.796875 2.296875 -9.78125 2.328125 -9.75 C 2.359375 -9.71875 2.375 -9.675781 2.375 -9.625 L 2.375 -0.171875 C 2.375 -0.117188 2.359375 -0.078125 2.328125 -0.046875 C 2.296875 -0.015625 2.257812 0 2.21875 0 Z M 0.921875 0 "/></g></g></g><g fill="#000000" fill-opacity="1"><g transform="translate(19.409268, 41.999998)"><g><path d="M 5.15625 -9.6875 C 5.195312 -9.757812 5.265625 -9.796875 5.359375 -9.796875 L 6.65625 -9.796875 C 6.695312 -9.796875 6.734375 -9.78125 6.765625 -9.75 C 6.796875 -9.71875 6.8125 -9.675781 6.8125 -9.625 L 6.8125 -0.171875 C 6.8125 -0.117188 6.796875 -0.078125 6.765625 -0.046875 C 6.734375 -0.015625 6.695312 0 6.65625 0 L 5.359375 0 C 5.316406 0 5.273438 -0.015625 5.234375 -0.046875 C 5.203125 -0.078125 5.1875 -0.117188 5.1875 -0.171875 L 5.1875 -6.78125 C 5.1875 -6.8125 5.175781 -6.828125 5.15625 -6.828125 C 5.144531 -6.828125 5.128906 -6.816406 5.109375 -6.796875 L 3.890625 -4.578125 C 3.847656 -4.503906 3.804688 -4.46875 3.765625 -4.46875 C 3.722656 -4.46875 3.679688 -4.503906 3.640625 -4.578125 L 2.421875 -6.796875 C 2.398438 -6.816406 2.378906 -6.828125 2.359375 -6.828125 C 2.347656 -6.828125 2.34375 -6.8125 2.34375 -6.78125 L 2.34375 -0.171875 C 2.34375 -0.117188 2.320312 -0.078125 2.28125 -0.046875 C 2.25 -0.015625 2.210938 0 2.171875 0 L 0.875 0 C 0.832031 0 0.796875 -0.015625 0.765625 -0.046875 C 0.734375 -0.078125 0.71875 -0.117188 0.71875 -0.171875 L 0.71875 -9.625 C 0.71875 -9.675781 0.734375 -9.71875 0.765625 -9.75 C 0.796875 -9.78125 0.832031 -9.796875 0.875 -9.796875 L 2.171875 -9.796875 C 2.265625 -9.796875 2.332031 -9.757812 2.375 -9.6875 L 3.734375 -7.296875 C 3.765625 -7.253906 3.796875 -7.253906 3.828125 -7.296875 Z M 5.15625 -9.6875 "/></g></g></g><g fill="#000000" fill-opacity="1"><g transform="translate(26.937065, 41.999998)"><g><path d="M 3.546875 -9.8125 C 4.035156 -9.8125 4.46875 -9.691406 4.84375 -9.453125 C 5.226562 -9.210938 5.523438 -8.867188 5.734375 -8.421875 C 5.941406 -7.984375 6.046875 -7.488281 6.046875 -6.9375 C 6.046875 -6.09375 5.820312 -5.410156 5.375 -4.890625 C 4.9375 -4.378906 4.351562 -4.125 3.625 -4.125 L 2.4375 -4.125 C 2.382812 -4.125 2.359375 -4.101562 2.359375 -4.0625 L 2.359375 -0.171875 C 2.359375 -0.117188 2.34375 -0.078125 2.3125 -0.046875 C 2.28125 -0.015625 2.242188 0 2.203125 0 L 0.90625 0 C 0.863281 0 0.820312 -0.015625 0.78125 -0.046875 C 0.75 -0.078125 0.734375 -0.117188 0.734375 -0.171875 L 0.734375 -9.640625 C 0.734375 -9.691406 0.75 -9.734375 0.78125 -9.765625 C 0.820312 -9.796875 0.863281 -9.8125 0.90625 -9.8125 Z M 3.28125 -5.40625 C 3.625 -5.40625 3.898438 -5.535156 4.109375 -5.796875 C 4.316406 -6.066406 4.421875 -6.429688 4.421875 -6.890625 C 4.421875 -7.359375 4.316406 -7.726562 4.109375 -8 C 3.898438 -8.269531 3.625 -8.40625 3.28125 -8.40625 L 2.4375 -8.40625 C 2.382812 -8.40625 2.359375 -8.382812 2.359375 -8.34375 L 2.359375 -5.46875 C 2.359375 -5.425781 2.382812 -5.40625 2.4375 -5.40625 Z M 3.28125 -5.40625 "/></g></g></g><g fill="#000000" fill-opacity="1"><g transform="translate(33.331496, 41.999998)"><g><path d="M 4.640625 0 C 4.546875 0 4.484375 -0.046875 4.453125 -0.140625 L 3.265625 -4.15625 C 3.242188 -4.195312 3.21875 -4.21875 3.1875 -4.21875 L 2.453125 -4.21875 C 2.398438 -4.21875 2.375 -4.191406 2.375 -4.140625 L 2.375 -0.171875 C 2.375 -0.117188 2.359375 -0.078125 2.328125 -0.046875 C 2.296875 -0.015625 2.257812 0 2.21875 0 L 0.921875 0 C 0.878906 0 0.835938 -0.015625 0.796875 -0.046875 C 0.765625 -0.078125 0.75 -0.117188 0.75 -0.171875 L 0.75 -9.625 C 0.75 -9.675781 0.765625 -9.71875 0.796875 -9.75 C 0.835938 -9.78125 0.878906 -9.796875 0.921875 -9.796875 L 3.5625 -9.796875 C 4.050781 -9.796875 4.484375 -9.675781 4.859375 -9.4375 C 5.242188 -9.207031 5.539062 -8.875 5.75 -8.4375 C 5.957031 -8 6.0625 -7.5 6.0625 -6.9375 C 6.0625 -6.363281 5.945312 -5.863281 5.71875 -5.4375 C 5.5 -5.019531 5.1875 -4.707031 4.78125 -4.5 C 4.75 -4.488281 4.738281 -4.457031 4.75 -4.40625 L 6.125 -0.203125 C 6.125 -0.179688 6.125 -0.15625 6.125 -0.125 C 6.125 -0.0390625 6.078125 0 5.984375 0 Z M 2.453125 -8.40625 C 2.398438 -8.40625 2.375 -8.378906 2.375 -8.328125 L 2.375 -5.546875 C 2.375 -5.492188 2.398438 -5.46875 2.453125 -5.46875 L 3.296875 -5.46875 C 3.640625 -5.46875 3.914062 -5.597656 4.125 -5.859375 C 4.332031 -6.128906 4.4375 -6.488281 4.4375 -6.9375 C 4.4375 -7.382812 4.332031 -7.738281 4.125 -8 C 3.914062 -8.269531 3.640625 -8.40625 3.296875 -8.40625 Z M 2.453125 -8.40625 "/></g></g></g><g fill="#000000" fill-opacity="1"><g transform="translate(39.781901, 41.999998)"><g><path d="M 5.640625 -8.5625 C 5.640625 -8.519531 5.625 -8.484375 5.59375 -8.453125 C 5.5625 -8.421875 5.519531 -8.40625 5.46875 -8.40625 L 2.453125 -8.40625 C 2.398438 -8.40625 2.375 -8.378906 2.375 -8.328125 L 2.375 -5.6875 C 2.375 -5.632812 2.398438 -5.609375 2.453125 -5.609375 L 4.234375 -5.609375 C 4.285156 -5.609375 4.328125 -5.59375 4.359375 -5.5625 C 4.390625 -5.53125 4.40625 -5.492188 4.40625 -5.453125 L 4.40625 -4.375 C 4.40625 -4.320312 4.390625 -4.28125 4.359375 -4.25 C 4.328125 -4.21875 4.285156 -4.203125 4.234375 -4.203125 L 2.453125 -4.203125 C 2.398438 -4.203125 2.375 -4.175781 2.375 -4.125 L 2.375 -1.46875 C 2.375 -1.425781 2.398438 -1.40625 2.453125 -1.40625 L 5.46875 -1.40625 C 5.519531 -1.40625 5.5625 -1.382812 5.59375 -1.34375 C 5.625 -1.3125 5.640625 -1.273438 5.640625 -1.234375 L 5.640625 -0.171875 C 5.640625 -0.117188 5.625 -0.078125 5.59375 -0.046875 C 5.5625 -0.015625 5.519531 0 5.46875 0 L 0.921875 0 C 0.878906 0 0.835938 -0.015625 0.796875 -0.046875 C 0.765625 -0.078125 0.75 -0.117188 0.75 -0.171875 L 0.75 -9.625 C 0.75 -9.675781 0.765625 -9.71875 0.796875 -9.75 C 0.835938 -9.78125 0.878906 -9.796875 0.921875 -9.796875 L 5.46875 -9.796875 C 5.519531 -9.796875 5.5625 -9.78125 5.59375 -9.75 C 5.625 -9.71875 5.640625 -9.675781 5.640625 -9.625 Z M 5.640625 -8.5625 "/></g></g></g><g fill="#000000" fill-opacity="1"><g transform="translate(45.868498, 41.999998)"><g><path d="M 3.0625 0.109375 C 2.289062 0.109375 1.664062 -0.117188 1.1875 -0.578125 C 0.707031 -1.046875 0.46875 -1.660156 0.46875 -2.421875 L 0.46875 -2.78125 C 0.46875 -2.832031 0.484375 -2.875 0.515625 -2.90625 C 0.554688 -2.9375 0.597656 -2.953125 0.640625 -2.953125 L 1.921875 -2.953125 C 1.960938 -2.953125 2 -2.9375 2.03125 -2.90625 C 2.070312 -2.875 2.09375 -2.832031 2.09375 -2.78125 L 2.09375 -2.5 C 2.09375 -2.132812 2.179688 -1.835938 2.359375 -1.609375 C 2.535156 -1.390625 2.769531 -1.28125 3.0625 -1.28125 C 3.351562 -1.28125 3.59375 -1.382812 3.78125 -1.59375 C 3.96875 -1.8125 4.0625 -2.09375 4.0625 -2.4375 C 4.0625 -2.675781 4.007812 -2.882812 3.90625 -3.0625 C 3.800781 -3.238281 3.65625 -3.40625 3.46875 -3.5625 C 3.28125 -3.726562 2.984375 -3.957031 2.578125 -4.25 C 2.109375 -4.59375 1.726562 -4.894531 1.4375 -5.15625 C 1.15625 -5.414062 0.921875 -5.726562 0.734375 -6.09375 C 0.546875 -6.46875 0.453125 -6.894531 0.453125 -7.375 C 0.453125 -8.15625 0.679688 -8.769531 1.140625 -9.21875 C 1.609375 -9.675781 2.226562 -9.90625 3 -9.90625 C 3.769531 -9.90625 4.394531 -9.664062 4.875 -9.1875 C 5.351562 -8.707031 5.59375 -8.070312 5.59375 -7.28125 L 5.59375 -6.9375 C 5.59375 -6.894531 5.570312 -6.859375 5.53125 -6.828125 C 5.5 -6.796875 5.460938 -6.78125 5.421875 -6.78125 L 4.15625 -6.78125 C 4.113281 -6.78125 4.070312 -6.796875 4.03125 -6.828125 C 4 -6.859375 3.984375 -6.894531 3.984375 -6.9375 L 3.984375 -7.3125 C 3.984375 -7.675781 3.890625 -7.96875 3.703125 -8.1875 C 3.523438 -8.40625 3.289062 -8.515625 3 -8.515625 C 2.71875 -8.515625 2.488281 -8.410156 2.3125 -8.203125 C 2.132812 -8.003906 2.046875 -7.726562 2.046875 -7.375 C 2.046875 -7.039062 2.140625 -6.753906 2.328125 -6.515625 C 2.523438 -6.285156 2.898438 -5.96875 3.453125 -5.5625 C 4.023438 -5.132812 4.457031 -4.785156 4.75 -4.515625 C 5.039062 -4.253906 5.265625 -3.960938 5.421875 -3.640625 C 5.578125 -3.328125 5.65625 -2.953125 5.65625 -2.515625 C 5.65625 -1.722656 5.414062 -1.085938 4.9375 -0.609375 C 4.46875 -0.128906 3.84375 0.109375 3.0625 0.109375 Z M 3.0625 0.109375 "/></g></g></g><g fill="#000000" fill-opacity="1"><g transform="translate(51.94111, 41.999998)"><g><path d="M 0.921875 0 C 0.878906 0 0.835938 -0.015625 0.796875 -0.046875 C 0.765625 -0.078125 0.75 -0.117188 0.75 -0.171875 L 0.75 -9.625 C 0.75 -9.675781 0.765625 -9.71875 0.796875 -9.75 C 0.835938 -9.78125 0.878906 -9.796875 0.921875 -9.796875 L 2.21875 -9.796875 C 2.257812 -9.796875 2.296875 -9.78125 2.328125 -9.75 C 2.359375 -9.71875 2.375 -9.675781 2.375 -9.625 L 2.375 -0.171875 C 2.375 -0.117188 2.359375 -0.078125 2.328125 -0.046875 C 2.296875 -0.015625 2.257812 0 2.21875 0 Z M 0.921875 0 "/></g></g></g><g fill="#000000" fill-opacity="1"><g transform="translate(55.07536, 41.999998)"><g><path d="M 3.265625 0.109375 C 2.460938 0.109375 1.816406 -0.128906 1.328125 -0.609375 C 0.835938 -1.097656 0.59375 -1.742188 0.59375 -2.546875 L 0.59375 -7.25 C 0.59375 -8.050781 0.835938 -8.691406 1.328125 -9.171875 C 1.816406 -9.660156 2.460938 -9.90625 3.265625 -9.90625 C 4.066406 -9.90625 4.710938 -9.660156 5.203125 -9.171875 C 5.703125 -8.691406 5.953125 -8.050781 5.953125 -7.25 L 5.953125 -2.546875 C 5.953125 -1.742188 5.703125 -1.097656 5.203125 -0.609375 C 4.710938 -0.128906 4.066406 0.109375 3.265625 0.109375 Z M 3.265625 -1.28125 C 3.578125 -1.28125 3.832031 -1.390625 4.03125 -1.609375 C 4.226562 -1.835938 4.328125 -2.128906 4.328125 -2.484375 L 4.328125 -7.328125 C 4.328125 -7.679688 4.226562 -7.96875 4.03125 -8.1875 C 3.832031 -8.40625 3.578125 -8.515625 3.265625 -8.515625 C 2.941406 -8.515625 2.6875 -8.40625 2.5 -8.1875 C 2.3125 -7.96875 2.21875 -7.679688 2.21875 -7.328125 L 2.21875 -2.484375 C 2.21875 -2.128906 2.3125 -1.835938 2.5 -1.609375 C 2.6875 -1.390625 2.941406 -1.28125 3.265625 -1.28125 Z M 3.265625 -1.28125 "/></g></g></g><g fill="#000000" fill-opacity="1"><g transform="translate(61.609707, 41.999998)"><g><path d="M 4.734375 -9.625 C 4.734375 -9.675781 4.75 -9.71875 4.78125 -9.75 C 4.8125 -9.78125 4.851562 -9.796875 4.90625 -9.796875 L 6.171875 -9.796875 C 6.222656 -9.796875 6.265625 -9.78125 6.296875 -9.75 C 6.328125 -9.71875 6.34375 -9.675781 6.34375 -9.625 L 6.34375 -0.171875 C 6.34375 -0.117188 6.328125 -0.078125 6.296875 -0.046875 C 6.265625 -0.015625 6.222656 0 6.171875 0 L 4.703125 0 C 4.609375 0 4.546875 -0.046875 4.515625 -0.140625 L 2.4375 -6.078125 C 2.425781 -6.109375 2.410156 -6.117188 2.390625 -6.109375 C 2.367188 -6.109375 2.359375 -6.09375 2.359375 -6.0625 L 2.359375 -0.171875 C 2.359375 -0.117188 2.34375 -0.078125 2.3125 -0.046875 C 2.28125 -0.015625 2.242188 0 2.203125 0 L 0.921875 0 C 0.878906 0 0.835938 -0.015625 0.796875 -0.046875 C 0.765625 -0.078125 0.75 -0.117188 0.75 -0.171875 L 0.75 -9.625 C 0.75 -9.675781 0.765625 -9.71875 0.796875 -9.75 C 0.835938 -9.78125 0.878906 -9.796875 0.921875 -9.796875 L 2.359375 -9.796875 C 2.453125 -9.796875 2.515625 -9.75 2.546875 -9.65625 L 4.640625 -3.765625 C 4.648438 -3.734375 4.664062 -3.71875 4.6875 -3.71875 C 4.71875 -3.726562 4.734375 -3.75 4.734375 -3.78125 Z M 4.734375 -9.625 "/></g></g></g><g fill="#000000" fill-opacity="1"><g transform="translate(68.70375, 41.999998)"><g><path d="M 5.640625 -8.5625 C 5.640625 -8.519531 5.625 -8.484375 5.59375 -8.453125 C 5.5625 -8.421875 5.519531 -8.40625 5.46875 -8.40625 L 2.453125 -8.40625 C 2.398438 -8.40625 2.375 -8.378906 2.375 -8.328125 L 2.375 -5.6875 C 2.375 -5.632812 2.398438 -5.609375 2.453125 -5.609375 L 4.234375 -5.609375 C 4.285156 -5.609375 4.328125 -5.59375 4.359375 -5.5625 C 4.390625 -5.53125 4.40625 -5.492188 4.40625 -5.453125 L 4.40625 -4.375 C 4.40625 -4.320312 4.390625 -4.28125 4.359375 -4.25 C 4.328125 -4.21875 4.285156 -4.203125 4.234375 -4.203125 L 2.453125 -4.203125 C 2.398438 -4.203125 2.375 -4.175781 2.375 -4.125 L 2.375 -1.46875 C 2.375 -1.425781 2.398438 -1.40625 2.453125 -1.40625 L 5.46875 -1.40625 C 5.519531 -1.40625 5.5625 -1.382812 5.59375 -1.34375 C 5.625 -1.3125 5.640625 -1.273438 5.640625 -1.234375 L 5.640625 -0.171875 C 5.640625 -0.117188 5.625 -0.078125 5.59375 -0.046875 C 5.5625 -0.015625 5.519531 0 5.46875 0 L 0.921875 0 C 0.878906 0 0.835938 -0.015625 0.796875 -0.046875 C 0.765625 -0.078125 0.75 -0.117188 0.75 -0.171875 L 0.75 -9.625 C 0.75 -9.675781 0.765625 -9.71875 0.796875 -9.75 C 0.835938 -9.78125 0.878906 -9.796875 0.921875 -9.796875 L 5.46875 -9.796875 C 5.519531 -9.796875 5.5625 -9.78125 5.59375 -9.75 C 5.625 -9.71875 5.640625 -9.675781 5.640625 -9.625 Z M 5.640625 -8.5625 "/></g></g></g><g fill="#000000" fill-opacity="1"><g transform="translate(74.790347, 41.999998)"><g><path d="M 3.0625 0.109375 C 2.289062 0.109375 1.664062 -0.117188 1.1875 -0.578125 C 0.707031 -1.046875 0.46875 -1.660156 0.46875 -2.421875 L 0.46875 -2.78125 C 0.46875 -2.832031 0.484375 -2.875 0.515625 -2.90625 C 0.554688 -2.9375 0.597656 -2.953125 0.640625 -2.953125 L 1.921875 -2.953125 C 1.960938 -2.953125 2 -2.9375 2.03125 -2.90625 C 2.070312 -2.875 2.09375 -2.832031 2.09375 -2.78125 L 2.09375 -2.5 C 2.09375 -2.132812 2.179688 -1.835938 2.359375 -1.609375 C 2.535156 -1.390625 2.769531 -1.28125 3.0625 -1.28125 C 3.351562 -1.28125 3.59375 -1.382812 3.78125 -1.59375 C 3.96875 -1.8125 4.0625 -2.09375 4.0625 -2.4375 C 4.0625 -2.675781 4.007812 -2.882812 3.90625 -3.0625 C 3.800781 -3.238281 3.65625 -3.40625 3.46875 -3.5625 C 3.28125 -3.726562 2.984375 -3.957031 2.578125 -4.25 C 2.109375 -4.59375 1.726562 -4.894531 1.4375 -5.15625 C 1.15625 -5.414062 0.921875 -5.726562 0.734375 -6.09375 C 0.546875 -6.46875 0.453125 -6.894531 0.453125 -7.375 C 0.453125 -8.15625 0.679688 -8.769531 1.140625 -9.21875 C 1.609375 -9.675781 2.226562 -9.90625 3 -9.90625 C 3.769531 -9.90625 4.394531 -9.664062 4.875 -9.1875 C 5.351562 -8.707031 5.59375 -8.070312 5.59375 -7.28125 L 5.59375 -6.9375 C 5.59375 -6.894531 5.570312 -6.859375 5.53125 -6.828125 C 5.5 -6.796875 5.460938 -6.78125 5.421875 -6.78125 L 4.15625 -6.78125 C 4.113281 -6.78125 4.070312 -6.796875 4.03125 -6.828125 C 4 -6.859375 3.984375 -6.894531 3.984375 -6.9375 L 3.984375 -7.3125 C 3.984375 -7.675781 3.890625 -7.96875 3.703125 -8.1875 C 3.523438 -8.40625 3.289062 -8.515625 3 -8.515625 C 2.71875 -8.515625 2.488281 -8.410156 2.3125 -8.203125 C 2.132812 -8.003906 2.046875 -7.726562 2.046875 -7.375 C 2.046875 -7.039062 2.140625 -6.753906 2.328125 -6.515625 C 2.523438 -6.285156 2.898438 -5.96875 3.453125 -5.5625 C 4.023438 -5.132812 4.457031 -4.785156 4.75 -4.515625 C 5.039062 -4.253906 5.265625 -3.960938 5.421875 -3.640625 C 5.578125 -3.328125 5.65625 -2.953125 5.65625 -2.515625 C 5.65625 -1.722656 5.414062 -1.085938 4.9375 -0.609375 C 4.46875 -0.128906 3.84375 0.109375 3.0625 0.109375 Z M 3.0625 0.109375 "/></g></g></g><g fill="#000000" fill-opacity="1"><g transform="translate(83.661394, 41.999998)"><g><path d="M 5.296875 -4.296875 C 5.378906 -3.921875 5.421875 -3.503906 5.421875 -3.046875 C 5.421875 -2.585938 5.382812 -2.195312 5.3125 -1.875 C 5.207031 -1.238281 4.957031 -0.75 4.5625 -0.40625 C 4.164062 -0.0625 3.625 0.109375 2.9375 0.109375 C 2.226562 0.109375 1.648438 -0.078125 1.203125 -0.453125 C 0.753906 -0.828125 0.503906 -1.34375 0.453125 -2 C 0.429688 -2.207031 0.410156 -2.503906 0.390625 -2.890625 C 0.390625 -3.003906 0.445312 -3.0625 0.5625 -3.0625 L 1.84375 -3.0625 C 1.957031 -3.0625 2.015625 -3.003906 2.015625 -2.890625 C 2.035156 -2.578125 2.054688 -2.34375 2.078125 -2.1875 C 2.117188 -1.894531 2.210938 -1.671875 2.359375 -1.515625 C 2.515625 -1.359375 2.707031 -1.28125 2.9375 -1.28125 C 3.164062 -1.28125 3.351562 -1.351562 3.5 -1.5 C 3.644531 -1.644531 3.742188 -1.851562 3.796875 -2.125 C 3.835938 -2.40625 3.859375 -2.769531 3.859375 -3.21875 C 3.859375 -3.695312 3.828125 -4.09375 3.765625 -4.40625 C 3.710938 -4.65625 3.613281 -4.84375 3.46875 -4.96875 C 3.332031 -5.101562 3.15625 -5.171875 2.9375 -5.171875 C 2.800781 -5.171875 2.675781 -5.128906 2.5625 -5.046875 C 2.507812 -5.003906 2.46875 -4.984375 2.4375 -4.984375 C 2.414062 -4.984375 2.378906 -5.003906 2.328125 -5.046875 L 1.671875 -5.71875 C 1.628906 -5.75 1.609375 -5.789062 1.609375 -5.84375 C 1.609375 -5.875 1.625 -5.910156 1.65625 -5.953125 L 3.40625 -8.328125 C 3.425781 -8.347656 3.425781 -8.363281 3.40625 -8.375 C 3.394531 -8.394531 3.375 -8.40625 3.34375 -8.40625 L 0.6875 -8.40625 C 0.632812 -8.40625 0.59375 -8.421875 0.5625 -8.453125 C 0.53125 -8.492188 0.515625 -8.535156 0.515625 -8.578125 L 0.515625 -9.625 C 0.515625 -9.675781 0.53125 -9.71875 0.5625 -9.75 C 0.59375 -9.78125 0.632812 -9.796875 0.6875 -9.796875 L 5.21875 -9.796875 C 5.269531 -9.796875 5.3125 -9.78125 5.34375 -9.75 C 5.375 -9.71875 5.390625 -9.675781 5.390625 -9.625 L 5.390625 -8.53125 C 5.390625 -8.457031 5.363281 -8.382812 5.3125 -8.3125 L 3.71875 -6.125 C 3.6875 -6.070312 3.695312 -6.039062 3.75 -6.03125 C 4.132812 -5.988281 4.460938 -5.804688 4.734375 -5.484375 C 5.015625 -5.171875 5.203125 -4.773438 5.296875 -4.296875 Z M 5.296875 -4.296875 "/></g></g></g><g fill="#000000" fill-opacity="1"><g transform="translate(89.622072, 41.999998)"><g><path d="M 0.921875 0 C 0.878906 0 0.835938 -0.015625 0.796875 -0.046875 C 0.765625 -0.078125 0.75 -0.117188 0.75 -0.171875 L 0.75 -9.625 C 0.75 -9.675781 0.765625 -9.71875 0.796875 -9.75 C 0.835938 -9.78125 0.878906 -9.796875 0.921875 -9.796875 L 3.3125 -9.796875 C 4.113281 -9.796875 4.753906 -9.550781 5.234375 -9.0625 C 5.722656 -8.582031 5.96875 -7.9375 5.96875 -7.125 L 5.96875 -2.671875 C 5.96875 -1.859375 5.722656 -1.207031 5.234375 -0.71875 C 4.753906 -0.238281 4.113281 0 3.3125 0 Z M 2.375 -1.46875 C 2.375 -1.425781 2.398438 -1.40625 2.453125 -1.40625 L 3.296875 -1.40625 C 3.597656 -1.40625 3.84375 -1.53125 4.03125 -1.78125 C 4.226562 -2.03125 4.332031 -2.359375 4.34375 -2.765625 L 4.34375 -7.03125 C 4.34375 -7.445312 4.242188 -7.78125 4.046875 -8.03125 C 3.859375 -8.28125 3.601562 -8.40625 3.28125 -8.40625 L 2.453125 -8.40625 C 2.398438 -8.40625 2.375 -8.378906 2.375 -8.328125 Z M 2.375 -1.46875 "/></g></g></g><g fill="#000000" fill-opacity="1"><g transform="translate(56.24767, 61.499996)"><g/></g></g><g fill="#000000" fill-opacity="1"><g transform="translate(34.005485, 80.999994)"><g><path d="M 2.578125 0 C 2.472656 0 2.410156 -0.0507812 2.390625 -0.15625 L 0.390625 -9.625 L 0.375 -9.671875 C 0.375 -9.753906 0.425781 -9.796875 0.53125 -9.796875 L 1.953125 -9.796875 C 2.054688 -9.796875 2.113281 -9.742188 2.125 -9.640625 L 3.296875 -2.90625 C 3.296875 -2.882812 3.304688 -2.875 3.328125 -2.875 C 3.347656 -2.875 3.363281 -2.882812 3.375 -2.90625 L 4.515625 -9.640625 C 4.515625 -9.742188 4.570312 -9.796875 4.6875 -9.796875 L 6.0625 -9.796875 C 6.1875 -9.796875 6.234375 -9.738281 6.203125 -9.625 L 4.1875 -0.15625 C 4.164062 -0.0507812 4.101562 0 4 0 Z M 2.578125 0 "/></g></g></g><g fill="#000000" fill-opacity="1"><g transform="translate(40.595805, 80.999994)"><g><path d="M 5.640625 -8.5625 C 5.640625 -8.519531 5.625 -8.484375 5.59375 -8.453125 C 5.5625 -8.421875 5.519531 -8.40625 5.46875 -8.40625 L 2.453125 -8.40625 C 2.398438 -8.40625 2.375 -8.378906 2.375 -8.328125 L 2.375 -5.6875 C 2.375 -5.632812 2.398438 -5.609375 2.453125 -5.609375 L 4.234375 -5.609375 C 4.285156 -5.609375 4.328125 -5.59375 4.359375 -5.5625 C 4.390625 -5.53125 4.40625 -5.492188 4.40625 -5.453125 L 4.40625 -4.375 C 4.40625 -4.320312 4.390625 -4.28125 4.359375 -4.25 C 4.328125 -4.21875 4.285156 -4.203125 4.234375 -4.203125 L 2.453125 -4.203125 C 2.398438 -4.203125 2.375 -4.175781 2.375 -4.125 L 2.375 -1.46875 C 2.375 -1.425781 2.398438 -1.40625 2.453125 -1.40625 L 5.46875 -1.40625 C 5.519531 -1.40625 5.5625 -1.382812 5.59375 -1.34375 C 5.625 -1.3125 5.640625 -1.273438 5.640625 -1.234375 L 5.640625 -0.171875 C 5.640625 -0.117188 5.625 -0.078125 5.59375 -0.046875 C 5.5625 -0.015625 5.519531 0 5.46875 0 L 0.921875 0 C 0.878906 0 0.835938 -0.015625 0.796875 -0.046875 C 0.765625 -0.078125 0.75 -0.117188 0.75 -0.171875 L 0.75 -9.625 C 0.75 -9.675781 0.765625 -9.71875 0.796875 -9.75 C 0.835938 -9.78125 0.878906 -9.796875 0.921875 -9.796875 L 5.46875 -9.796875 C 5.519531 -9.796875 5.5625 -9.78125 5.59375 -9.75 C 5.625 -9.71875 5.640625 -9.675781 5.640625 -9.625 Z M 5.640625 -8.5625 "/></g></g></g><g fill="#000000" fill-opacity="1"><g transform="translate(46.682401, 80.999994)"><g><path d="M 4.640625 0 C 4.546875 0 4.484375 -0.046875 4.453125 -0.140625 L 3.265625 -4.15625 C 3.242188 -4.195312 3.21875 -4.21875 3.1875 -4.21875 L 2.453125 -4.21875 C 2.398438 -4.21875 2.375 -4.191406 2.375 -4.140625 L 2.375 -0.171875 C 2.375 -0.117188 2.359375 -0.078125 2.328125 -0.046875 C 2.296875 -0.015625 2.257812 0 2.21875 0 L 0.921875 0 C 0.878906 0 0.835938 -0.015625 0.796875 -0.046875 C 0.765625 -0.078125 0.75 -0.117188 0.75 -0.171875 L 0.75 -9.625 C 0.75 -9.675781 0.765625 -9.71875 0.796875 -9.75 C 0.835938 -9.78125 0.878906 -9.796875 0.921875 -9.796875 L 3.5625 -9.796875 C 4.050781 -9.796875 4.484375 -9.675781 4.859375 -9.4375 C 5.242188 -9.207031 5.539062 -8.875 5.75 -8.4375 C 5.957031 -8 6.0625 -7.5 6.0625 -6.9375 C 6.0625 -6.363281 5.945312 -5.863281 5.71875 -5.4375 C 5.5 -5.019531 5.1875 -4.707031 4.78125 -4.5 C 4.75 -4.488281 4.738281 -4.457031 4.75 -4.40625 L 6.125 -0.203125 C 6.125 -0.179688 6.125 -0.15625 6.125 -0.125 C 6.125 -0.0390625 6.078125 0 5.984375 0 Z M 2.453125 -8.40625 C 2.398438 -8.40625 2.375 -8.378906 2.375 -8.328125 L 2.375 -5.546875 C 2.375 -5.492188 2.398438 -5.46875 2.453125 -5.46875 L 3.296875 -5.46875 C 3.640625 -5.46875 3.914062 -5.597656 4.125 -5.859375 C 4.332031 -6.128906 4.4375 -6.488281 4.4375 -6.9375 C 4.4375 -7.382812 4.332031 -7.738281 4.125 -8 C 3.914062 -8.269531 3.640625 -8.40625 3.296875 -8.40625 Z M 2.453125 -8.40625 "/></g></g></g><g fill="#000000" fill-opacity="1"><g transform="translate(55.931241, 80.999994)"><g><path d="M 4.734375 0 C 4.617188 0 4.554688 -0.0507812 4.546875 -0.15625 L 4.28125 -1.625 C 4.28125 -1.664062 4.253906 -1.6875 4.203125 -1.6875 L 2.15625 -1.6875 C 2.101562 -1.6875 2.078125 -1.664062 2.078125 -1.625 L 1.8125 -0.15625 C 1.800781 -0.0507812 1.738281 0 1.625 0 L 0.34375 0 C 0.21875 0 0.171875 -0.0625 0.203125 -0.1875 L 2.265625 -9.640625 C 2.285156 -9.742188 2.347656 -9.796875 2.453125 -9.796875 L 3.9375 -9.796875 C 4.039062 -9.796875 4.097656 -9.742188 4.109375 -9.640625 L 6.1875 -0.1875 L 6.1875 -0.125 C 6.1875 -0.0390625 6.132812 0 6.03125 0 Z M 2.328125 -3.03125 C 2.316406 -2.988281 2.335938 -2.96875 2.390625 -2.96875 L 3.953125 -2.96875 C 4.003906 -2.96875 4.023438 -2.988281 4.015625 -3.03125 L 3.203125 -7.46875 C 3.191406 -7.488281 3.175781 -7.5 3.15625 -7.5 C 3.144531 -7.5 3.132812 -7.488281 3.125 -7.46875 Z M 2.328125 -3.03125 "/></g></g></g><g fill="#000000" fill-opacity="1"><g transform="translate(62.311676, 80.999994)"><g><path d="M 3.171875 -9.90625 C 3.960938 -9.90625 4.59375 -9.65625 5.0625 -9.15625 C 5.539062 -8.65625 5.78125 -8 5.78125 -7.1875 L 5.78125 -2.625 C 5.78125 -1.976562 5.625 -1.421875 5.3125 -0.953125 C 5.007812 -0.492188 4.585938 -0.179688 4.046875 -0.015625 C 4.003906 -0.00390625 3.984375 0.0195312 3.984375 0.0625 L 3.984375 1.28125 C 3.984375 1.332031 3.96875 1.375 3.9375 1.40625 C 3.90625 1.4375 3.867188 1.453125 3.828125 1.453125 L 2.53125 1.453125 C 2.488281 1.453125 2.445312 1.4375 2.40625 1.40625 C 2.375 1.375 2.359375 1.332031 2.359375 1.28125 L 2.359375 0.0625 C 2.359375 0.0195312 2.34375 -0.00390625 2.3125 -0.015625 C 1.78125 -0.191406 1.359375 -0.507812 1.046875 -0.96875 C 0.742188 -1.425781 0.59375 -1.976562 0.59375 -2.625 L 0.59375 -7.1875 C 0.59375 -8 0.828125 -8.65625 1.296875 -9.15625 C 1.773438 -9.65625 2.398438 -9.90625 3.171875 -9.90625 Z M 4.15625 -7.34375 C 4.15625 -7.695312 4.0625 -7.976562 3.875 -8.1875 C 3.695312 -8.40625 3.460938 -8.515625 3.171875 -8.515625 C 2.890625 -8.515625 2.660156 -8.40625 2.484375 -8.1875 C 2.304688 -7.976562 2.21875 -7.695312 2.21875 -7.34375 L 2.21875 -2.453125 C 2.21875 -2.109375 2.304688 -1.828125 2.484375 -1.609375 C 2.660156 -1.390625 2.890625 -1.28125 3.171875 -1.28125 C 3.460938 -1.28125 3.695312 -1.390625 3.875 -1.609375 C 4.0625 -1.828125 4.15625 -2.109375 4.15625 -2.453125 Z M 4.15625 -7.34375 "/></g></g></g><g fill="#000000" fill-opacity="1"><g transform="translate(68.678127, 80.999994)"><g><path d="M 3.34375 0.109375 C 2.539062 0.109375 1.898438 -0.144531 1.421875 -0.65625 C 0.941406 -1.175781 0.703125 -1.863281 0.703125 -2.71875 L 0.703125 -9.625 C 0.703125 -9.675781 0.71875 -9.71875 0.75 -9.75 C 0.78125 -9.78125 0.820312 -9.796875 0.875 -9.796875 L 2.15625 -9.796875 C 2.195312 -9.796875 2.234375 -9.78125 2.265625 -9.75 C 2.304688 -9.71875 2.328125 -9.675781 2.328125 -9.625 L 2.328125 -2.546875 C 2.328125 -2.171875 2.421875 -1.863281 2.609375 -1.625 C 2.796875 -1.394531 3.039062 -1.28125 3.34375 -1.28125 C 3.65625 -1.28125 3.90625 -1.394531 4.09375 -1.625 C 4.28125 -1.863281 4.375 -2.171875 4.375 -2.546875 L 4.375 -9.625 C 4.375 -9.675781 4.390625 -9.71875 4.421875 -9.75 C 4.453125 -9.78125 4.488281 -9.796875 4.53125 -9.796875 L 5.828125 -9.796875 C 5.867188 -9.796875 5.90625 -9.78125 5.9375 -9.75 C 5.96875 -9.71875 5.984375 -9.675781 5.984375 -9.625 L 5.984375 -2.71875 C 5.984375 -1.863281 5.738281 -1.175781 5.25 -0.65625 C 4.769531 -0.144531 4.132812 0.109375 3.34375 0.109375 Z M 3.34375 0.109375 "/></g></g></g><g fill="#000000" fill-opacity="1"><g transform="translate(75.366397, 80.999994)"><g><path d="M 0.921875 0 C 0.878906 0 0.835938 -0.015625 0.796875 -0.046875 C 0.765625 -0.078125 0.75 -0.117188 0.75 -0.171875 L 0.75 -9.625 C 0.75 -9.675781 0.765625 -9.71875 0.796875 -9.75 C 0.835938 -9.78125 0.878906 -9.796875 0.921875 -9.796875 L 2.21875 -9.796875 C 2.257812 -9.796875 2.296875 -9.78125 2.328125 -9.75 C 2.359375 -9.71875 2.375 -9.675781 2.375 -9.625 L 2.375 -0.171875 C 2.375 -0.117188 2.359375 -0.078125 2.328125 -0.046875 C 2.296875 -0.015625 2.257812 0 2.21875 0 Z M 0.921875 0 "/></g></g></g></svg>