<svg xmlns="http://www.w3.org/2000/svg" xmlns:xlink="http://www.w3.org/1999/xlink" width="150" zoomAndPan="magnify" viewBox="0 0 112.5 112.499997" height="150" preserveAspectRatio="xMidYMid meet" version="1.0"><defs><g/><clipPath id="id1"><path d="M 0.621094 0 L 112.003906 0 L 112.003906 111 L 0.621094 111 Z M 0.621094 0 " clip-rule="nonzero"/></clipPath><clipPath id="id2"><path d="M 22.261719 19.65625 L 90.511719 19.65625 L 90.511719 76.65625 L 22.261719 76.65625 Z M 22.261719 19.65625 " clip-rule="nonzero"/></clipPath></defs><path fill="#03989e" d="M 108.300781 54.210938 C 108.300781 55.957031 108.214844 57.703125 108.042969 59.441406 C 107.871094 61.179688 107.617188 62.90625 107.277344 64.621094 C 106.9375 66.332031 106.511719 68.027344 106.003906 69.699219 C 105.5 71.371094 104.910156 73.015625 104.242188 74.628906 C 103.574219 76.242188 102.828125 77.820312 102.007812 79.359375 C 101.183594 80.902344 100.285156 82.398438 99.316406 83.851562 C 98.347656 85.304688 97.308594 86.707031 96.199219 88.058594 C 95.09375 89.410156 93.921875 90.703125 92.6875 91.9375 C 91.453125 93.171875 90.160156 94.34375 88.8125 95.453125 C 87.460938 96.5625 86.0625 97.601562 84.609375 98.570312 C 83.15625 99.542969 81.660156 100.441406 80.121094 101.265625 C 78.582031 102.085938 77.003906 102.832031 75.394531 103.503906 C 73.78125 104.171875 72.136719 104.757812 70.46875 105.265625 C 68.796875 105.773438 67.105469 106.199219 65.394531 106.539062 C 63.679688 106.878906 61.957031 107.136719 60.21875 107.304688 C 58.480469 107.476562 56.738281 107.5625 54.992188 107.5625 C 53.246094 107.5625 51.503906 107.476562 49.769531 107.304688 C 48.03125 107.136719 46.304688 106.878906 44.59375 106.539062 C 42.878906 106.199219 41.1875 105.773438 39.519531 105.265625 C 37.847656 104.757812 36.207031 104.171875 34.59375 103.503906 C 32.980469 102.832031 31.402344 102.085938 29.863281 101.265625 C 28.324219 100.441406 26.828125 99.542969 25.375 98.570312 C 23.925781 97.601562 22.523438 96.5625 21.175781 95.453125 C 19.824219 94.34375 18.535156 93.171875 17.296875 91.9375 C 16.0625 90.703125 14.894531 89.410156 13.785156 88.058594 C 12.679688 86.707031 11.640625 85.304688 10.667969 83.851562 C 9.699219 82.398438 8.804688 80.902344 7.980469 79.359375 C 7.15625 77.820312 6.410156 76.242188 5.742188 74.628906 C 5.074219 73.015625 4.488281 71.371094 3.980469 69.699219 C 3.472656 68.027344 3.050781 66.332031 2.710938 64.621094 C 2.367188 62.90625 2.113281 61.179688 1.941406 59.441406 C 1.769531 57.703125 1.683594 55.957031 1.683594 54.210938 C 1.683594 52.464844 1.769531 50.722656 1.941406 48.980469 C 2.113281 47.242188 2.367188 45.515625 2.710938 43.804688 C 3.050781 42.089844 3.472656 40.394531 3.980469 38.722656 C 4.488281 37.050781 5.074219 35.410156 5.742188 33.792969 C 6.410156 32.179688 7.15625 30.601562 7.980469 29.0625 C 8.804688 27.519531 9.699219 26.023438 10.667969 24.570312 C 11.640625 23.117188 12.679688 21.714844 13.785156 20.363281 C 14.894531 19.015625 16.0625 17.722656 17.296875 16.484375 C 18.535156 15.25 19.824219 14.078125 21.175781 12.96875 C 22.523438 11.859375 23.925781 10.820312 25.375 9.851562 C 26.828125 8.878906 28.324219 7.984375 29.863281 7.160156 C 31.402344 6.335938 32.980469 5.589844 34.59375 4.921875 C 36.207031 4.25 37.847656 3.664062 39.519531 3.15625 C 41.1875 2.648438 42.878906 2.226562 44.59375 1.882812 C 46.304688 1.542969 48.03125 1.289062 49.769531 1.117188 C 51.503906 0.945312 53.246094 0.859375 54.992188 0.859375 C 56.738281 0.859375 58.480469 0.945312 60.21875 1.117188 C 61.957031 1.289062 63.679688 1.542969 65.394531 1.882812 C 67.105469 2.226562 68.796875 2.648438 70.46875 3.15625 C 72.136719 3.664062 73.78125 4.25 75.394531 4.921875 C 77.003906 5.589844 78.582031 6.335938 80.121094 7.160156 C 81.660156 7.984375 83.15625 8.878906 84.609375 9.851562 C 86.0625 10.820312 87.460938 11.859375 88.8125 12.96875 C 90.160156 14.078125 91.453125 15.25 92.6875 16.484375 C 93.921875 17.722656 95.09375 19.015625 96.199219 20.363281 C 97.308594 21.714844 98.347656 23.117188 99.316406 24.570312 C 100.285156 26.023438 101.183594 27.519531 102.007812 29.0625 C 102.828125 30.601562 103.574219 32.179688 104.242188 33.792969 C 104.910156 35.410156 105.5 37.050781 106.003906 38.722656 C 106.511719 40.394531 106.9375 42.089844 107.277344 43.804688 C 107.617188 45.515625 107.871094 47.242188 108.042969 48.980469 C 108.214844 50.722656 108.300781 52.464844 108.300781 54.210938 Z M 108.300781 54.210938 " fill-opacity="1" fill-rule="nonzero"/><g clip-path="url(#id1)"><path fill="#00c2cb" d="M 91.992188 14.691406 C 82.289062 5.585938 69.328125 0 54.992188 0 C 25.121094 0 0.828125 24.3125 0.828125 54.210938 C 0.828125 71.222656 8.722656 86.34375 20.914062 96.308594 C 30.613281 105.414062 43.660156 111 57.910156 111 C 87.785156 111 112.078125 86.6875 112.078125 56.789062 C 112.164062 39.863281 104.265625 24.65625 91.992188 14.691406 Z M 1.683594 54.210938 C 1.683594 24.742188 25.550781 0.859375 54.992188 0.859375 C 84.4375 0.859375 108.300781 24.742188 108.300781 54.210938 C 108.300781 83.679688 84.4375 107.5625 54.992188 107.5625 C 25.550781 107.5625 1.683594 83.59375 1.683594 54.210938 Z M 1.683594 54.210938 " fill-opacity="1" fill-rule="nonzero"/></g><path fill="#000000" d="M 45.515625 34.605469 L 47.3125 35.070312 L 55.617188 37.191406 L 55.617188 49.355469 L 45.515625 46.777344 Z M 56.28125 30.980469 L 65.257812 33.699219 L 56.28125 35.996094 L 47.304688 33.699219 Z M 67.050781 46.777344 L 56.945312 49.355469 L 56.945312 37.191406 L 65.207031 35.078125 L 67.050781 34.605469 Z M 41.84375 50.867188 C 42.007812 50.867188 42.179688 50.800781 42.3125 50.679688 L 45.042969 48.019531 L 56.113281 50.851562 C 56.171875 50.859375 56.222656 50.867188 56.28125 50.867188 C 56.335938 50.867188 56.394531 50.859375 56.445312 50.851562 L 67.53125 48.011719 L 70.488281 50.695312 C 70.613281 50.8125 70.773438 50.867188 70.929688 50.867188 C 71.113281 50.867188 71.292969 50.796875 71.425781 50.65625 C 71.671875 50.382812 71.652344 49.964844 71.382812 49.71875 L 68.378906 46.996094 L 68.378906 33.757812 C 68.378906 33.746094 68.375 33.742188 68.375 33.730469 C 68.371094 33.648438 68.347656 33.574219 68.316406 33.5 C 68.304688 33.480469 68.296875 33.457031 68.285156 33.4375 C 68.246094 33.367188 68.199219 33.304688 68.136719 33.257812 C 68.132812 33.246094 68.125 33.242188 68.121094 33.238281 C 68.121094 33.230469 68.113281 33.230469 68.113281 33.230469 C 68.050781 33.183594 67.984375 33.148438 67.910156 33.125 L 56.945312 29.800781 L 56.945312 25.121094 C 56.945312 24.757812 56.648438 24.460938 56.28125 24.460938 C 55.910156 24.460938 55.617188 24.757812 55.617188 25.121094 L 55.617188 29.800781 L 44.65625 33.125 C 44.578125 33.148438 44.507812 33.183594 44.449219 33.230469 C 44.445312 33.230469 44.445312 33.230469 44.4375 33.238281 C 44.433594 33.242188 44.429688 33.246094 44.421875 33.257812 C 44.363281 33.304688 44.3125 33.367188 44.273438 33.4375 C 44.265625 33.457031 44.253906 33.480469 44.242188 33.5 C 44.210938 33.574219 44.191406 33.648438 44.191406 33.730469 C 44.191406 33.742188 44.183594 33.746094 44.183594 33.757812 L 44.183594 47.007812 L 41.378906 49.738281 C 41.121094 49.992188 41.113281 50.40625 41.367188 50.671875 C 41.5 50.800781 41.671875 50.867188 41.84375 50.867188 " fill-opacity="1" fill-rule="nonzero"/><g clip-path="url(#id2)"><path fill="#000000" d="M 88.941406 55.101562 L 23.835938 55.101562 L 23.835938 20.976562 L 88.941406 20.976562 Z M 88.941406 64.886719 L 23.835938 64.886719 L 23.835938 56.425781 L 88.941406 56.425781 Z M 60.257812 75.40625 L 52.519531 75.40625 L 52.519531 66.210938 L 60.257812 66.210938 Z M 89.609375 19.65625 L 23.167969 19.65625 C 22.800781 19.65625 22.503906 19.953125 22.503906 20.320312 L 22.503906 65.550781 C 22.503906 65.914062 22.800781 66.210938 23.167969 66.210938 L 51.183594 66.210938 L 51.183594 75.40625 L 45.046875 75.40625 C 44.675781 75.40625 44.382812 75.699219 44.382812 76.0625 C 44.382812 76.425781 44.675781 76.722656 45.046875 76.722656 L 67.730469 76.722656 C 68.097656 76.722656 68.394531 76.425781 68.394531 76.0625 C 68.394531 75.699219 68.097656 75.40625 67.730469 75.40625 L 61.59375 75.40625 L 61.59375 66.210938 L 89.609375 66.210938 C 89.976562 66.210938 90.269531 65.914062 90.269531 65.550781 L 90.269531 20.320312 C 90.269531 19.953125 89.976562 19.65625 89.609375 19.65625 " fill-opacity="1" fill-rule="nonzero"/></g><g fill="#000000" fill-opacity="1"><g transform="translate(37.423365, 92.404903)"><g><path d="M 0.71875 0 C 0.6875 0 0.65625 -0.0078125 0.625 -0.03125 C 0.601562 -0.0625 0.59375 -0.09375 0.59375 -0.125 L 0.59375 -7.5625 C 0.59375 -7.601562 0.601562 -7.632812 0.625 -7.65625 C 0.65625 -7.6875 0.6875 -7.703125 0.71875 -7.703125 L 2.609375 -7.703125 C 3.234375 -7.703125 3.734375 -7.507812 4.109375 -7.125 C 4.492188 -6.75 4.6875 -6.238281 4.6875 -5.59375 L 4.6875 -2.09375 C 4.6875 -1.457031 4.492188 -0.945312 4.109375 -0.5625 C 3.734375 -0.1875 3.234375 0 2.609375 0 Z M 1.875 -1.15625 C 1.875 -1.113281 1.890625 -1.09375 1.921875 -1.09375 L 2.578125 -1.109375 C 2.828125 -1.109375 3.023438 -1.203125 3.171875 -1.390625 C 3.328125 -1.585938 3.40625 -1.847656 3.40625 -2.171875 L 3.40625 -5.515625 C 3.40625 -5.847656 3.328125 -6.109375 3.171875 -6.296875 C 3.023438 -6.492188 2.828125 -6.59375 2.578125 -6.59375 L 1.921875 -6.59375 C 1.890625 -6.59375 1.875 -6.578125 1.875 -6.546875 Z M 1.875 -1.15625 "/></g></g></g><g fill="#000000" fill-opacity="1"><g transform="translate(42.614439, 92.404903)"><g><path d="M 1.171875 -6.390625 C 0.953125 -6.390625 0.765625 -6.460938 0.609375 -6.609375 C 0.460938 -6.753906 0.390625 -6.941406 0.390625 -7.171875 C 0.390625 -7.398438 0.460938 -7.585938 0.609375 -7.734375 C 0.765625 -7.878906 0.953125 -7.953125 1.171875 -7.953125 C 1.398438 -7.953125 1.585938 -7.878906 1.734375 -7.734375 C 1.878906 -7.585938 1.953125 -7.398438 1.953125 -7.171875 C 1.953125 -6.941406 1.875 -6.753906 1.71875 -6.609375 C 1.570312 -6.460938 1.390625 -6.390625 1.171875 -6.390625 Z M 0.6875 0 C 0.644531 0 0.609375 -0.0078125 0.578125 -0.03125 C 0.554688 -0.0625 0.546875 -0.09375 0.546875 -0.125 L 0.546875 -5.484375 C 0.546875 -5.523438 0.554688 -5.554688 0.578125 -5.578125 C 0.609375 -5.609375 0.644531 -5.625 0.6875 -5.625 L 1.6875 -5.625 C 1.726562 -5.625 1.757812 -5.609375 1.78125 -5.578125 C 1.8125 -5.554688 1.828125 -5.523438 1.828125 -5.484375 L 1.828125 -0.125 C 1.828125 -0.09375 1.8125 -0.0625 1.78125 -0.03125 C 1.757812 -0.0078125 1.726562 0 1.6875 0 Z M 0.6875 0 "/></g></g></g><g fill="#000000" fill-opacity="1"><g transform="translate(44.979017, 92.404903)"><g><path d="M 2.234375 0.0625 C 1.648438 0.0625 1.1875 -0.0703125 0.84375 -0.34375 C 0.5 -0.625 0.328125 -1.003906 0.328125 -1.484375 L 0.328125 -1.5625 C 0.328125 -1.59375 0.335938 -1.617188 0.359375 -1.640625 C 0.390625 -1.671875 0.425781 -1.6875 0.46875 -1.6875 L 1.40625 -1.6875 C 1.445312 -1.6875 1.476562 -1.671875 1.5 -1.640625 C 1.53125 -1.617188 1.546875 -1.59375 1.546875 -1.5625 L 1.546875 -1.5 C 1.546875 -1.332031 1.613281 -1.1875 1.75 -1.0625 C 1.882812 -0.945312 2.050781 -0.890625 2.25 -0.890625 C 2.4375 -0.890625 2.582031 -0.941406 2.6875 -1.046875 C 2.800781 -1.160156 2.859375 -1.300781 2.859375 -1.46875 C 2.859375 -1.613281 2.8125 -1.734375 2.71875 -1.828125 C 2.625 -1.929688 2.519531 -2.007812 2.40625 -2.0625 C 2.300781 -2.113281 2.101562 -2.203125 1.8125 -2.328125 C 1.394531 -2.484375 1.050781 -2.6875 0.78125 -2.9375 C 0.519531 -3.1875 0.390625 -3.554688 0.390625 -4.046875 C 0.390625 -4.554688 0.550781 -4.957031 0.875 -5.25 C 1.195312 -5.539062 1.640625 -5.6875 2.203125 -5.6875 C 2.773438 -5.6875 3.226562 -5.535156 3.5625 -5.234375 C 3.894531 -4.929688 4.0625 -4.519531 4.0625 -4 C 4.0625 -3.96875 4.046875 -3.9375 4.015625 -3.90625 C 3.992188 -3.882812 3.960938 -3.875 3.921875 -3.875 L 3 -3.875 C 2.96875 -3.875 2.9375 -3.882812 2.90625 -3.90625 C 2.882812 -3.9375 2.875 -3.96875 2.875 -4 L 2.875 -4.0625 C 2.875 -4.238281 2.8125 -4.382812 2.6875 -4.5 C 2.570312 -4.625 2.421875 -4.6875 2.234375 -4.6875 C 2.046875 -4.6875 1.894531 -4.625 1.78125 -4.5 C 1.664062 -4.382812 1.609375 -4.238281 1.609375 -4.0625 C 1.609375 -3.925781 1.648438 -3.8125 1.734375 -3.71875 C 1.828125 -3.625 1.925781 -3.546875 2.03125 -3.484375 C 2.144531 -3.429688 2.328125 -3.351562 2.578125 -3.25 C 2.890625 -3.125 3.148438 -3 3.359375 -2.875 C 3.566406 -2.75 3.75 -2.578125 3.90625 -2.359375 C 4.0625 -2.140625 4.140625 -1.863281 4.140625 -1.53125 C 4.140625 -1.039062 3.96875 -0.648438 3.625 -0.359375 C 3.28125 -0.078125 2.816406 0.0625 2.234375 0.0625 Z M 2.234375 0.0625 "/></g></g></g><g fill="#000000" fill-opacity="1"><g transform="translate(49.356238, 92.404903)"><g><path d="M 4.3125 -2.46875 C 4.3125 -2.4375 4.296875 -2.40625 4.265625 -2.375 C 4.242188 -2.351562 4.21875 -2.34375 4.1875 -2.34375 L 1.75 -2.34375 C 1.707031 -2.34375 1.6875 -2.320312 1.6875 -2.28125 L 1.6875 -1.796875 C 1.6875 -1.566406 1.75 -1.378906 1.875 -1.234375 C 2 -1.085938 2.160156 -1.015625 2.359375 -1.015625 C 2.535156 -1.015625 2.679688 -1.066406 2.796875 -1.171875 C 2.921875 -1.273438 3 -1.410156 3.03125 -1.578125 C 3.050781 -1.648438 3.097656 -1.6875 3.171875 -1.6875 L 4.15625 -1.65625 C 4.195312 -1.65625 4.226562 -1.640625 4.25 -1.609375 C 4.28125 -1.585938 4.289062 -1.550781 4.28125 -1.5 C 4.226562 -0.988281 4.039062 -0.59375 3.71875 -0.3125 C 3.394531 -0.0390625 2.941406 0.09375 2.359375 0.09375 C 1.765625 0.09375 1.289062 -0.0664062 0.9375 -0.390625 C 0.59375 -0.710938 0.421875 -1.144531 0.421875 -1.6875 L 0.421875 -3.921875 C 0.421875 -4.460938 0.59375 -4.894531 0.9375 -5.21875 C 1.289062 -5.539062 1.765625 -5.703125 2.359375 -5.703125 C 2.960938 -5.703125 3.4375 -5.539062 3.78125 -5.21875 C 4.132812 -4.894531 4.3125 -4.460938 4.3125 -3.921875 Z M 2.359375 -4.609375 C 2.160156 -4.609375 2 -4.535156 1.875 -4.390625 C 1.75 -4.242188 1.6875 -4.054688 1.6875 -3.828125 L 1.6875 -3.328125 C 1.6875 -3.296875 1.707031 -3.28125 1.75 -3.28125 L 2.984375 -3.28125 C 3.023438 -3.28125 3.046875 -3.296875 3.046875 -3.328125 L 3.046875 -3.828125 C 3.046875 -4.066406 2.984375 -4.253906 2.859375 -4.390625 C 2.734375 -4.535156 2.566406 -4.609375 2.359375 -4.609375 Z M 2.359375 -4.609375 "/></g></g></g><g fill="#000000" fill-opacity="1"><g transform="translate(54.041403, 92.404903)"><g><path d="M 2.109375 -6.953125 C 1.953125 -6.953125 1.828125 -6.867188 1.734375 -6.703125 C 1.679688 -6.617188 1.617188 -6.609375 1.546875 -6.671875 L 1.21875 -6.90625 C 1.164062 -6.945312 1.148438 -7.003906 1.171875 -7.078125 C 1.253906 -7.316406 1.367188 -7.492188 1.515625 -7.609375 C 1.671875 -7.722656 1.84375 -7.78125 2.03125 -7.78125 C 2.207031 -7.78125 2.410156 -7.695312 2.640625 -7.53125 C 2.671875 -7.5 2.710938 -7.460938 2.765625 -7.421875 C 2.828125 -7.390625 2.878906 -7.363281 2.921875 -7.34375 C 2.972656 -7.320312 3.023438 -7.3125 3.078125 -7.3125 C 3.242188 -7.3125 3.375 -7.394531 3.46875 -7.5625 C 3.488281 -7.59375 3.515625 -7.613281 3.546875 -7.625 C 3.585938 -7.632812 3.625 -7.625 3.65625 -7.59375 L 3.953125 -7.375 C 4.015625 -7.320312 4.03125 -7.257812 4 -7.1875 C 3.894531 -6.957031 3.757812 -6.789062 3.59375 -6.6875 C 3.425781 -6.582031 3.257812 -6.53125 3.09375 -6.53125 C 3 -6.53125 2.910156 -6.546875 2.828125 -6.578125 C 2.753906 -6.617188 2.660156 -6.675781 2.546875 -6.75 C 2.492188 -6.769531 2.441406 -6.796875 2.390625 -6.828125 C 2.335938 -6.867188 2.289062 -6.898438 2.25 -6.921875 C 2.207031 -6.941406 2.160156 -6.953125 2.109375 -6.953125 Z M 2.921875 -5.703125 C 3.390625 -5.703125 3.742188 -5.539062 3.984375 -5.21875 C 4.234375 -4.90625 4.359375 -4.457031 4.359375 -3.875 L 4.359375 -0.125 C 4.359375 -0.09375 4.347656 -0.0625 4.328125 -0.03125 C 4.304688 -0.0078125 4.273438 0 4.234375 0 L 3.21875 0 C 3.1875 0 3.15625 -0.0078125 3.125 -0.03125 C 3.101562 -0.0625 3.09375 -0.09375 3.09375 -0.125 L 3.09375 -3.765625 C 3.09375 -4.035156 3.035156 -4.242188 2.921875 -4.390625 C 2.816406 -4.535156 2.660156 -4.609375 2.453125 -4.609375 C 2.242188 -4.609375 2.078125 -4.53125 1.953125 -4.375 C 1.835938 -4.21875 1.78125 -4.003906 1.78125 -3.734375 L 1.78125 -0.125 C 1.78125 -0.09375 1.765625 -0.0625 1.734375 -0.03125 C 1.710938 -0.0078125 1.6875 0 1.65625 0 L 0.640625 0 C 0.597656 0 0.5625 -0.0078125 0.53125 -0.03125 C 0.507812 -0.0625 0.5 -0.09375 0.5 -0.125 L 0.5 -5.484375 C 0.5 -5.523438 0.507812 -5.554688 0.53125 -5.578125 C 0.5625 -5.609375 0.597656 -5.625 0.640625 -5.625 L 1.65625 -5.625 C 1.6875 -5.625 1.710938 -5.609375 1.734375 -5.578125 C 1.765625 -5.554688 1.78125 -5.523438 1.78125 -5.484375 L 1.78125 -5.265625 C 1.78125 -5.242188 1.789062 -5.226562 1.8125 -5.21875 C 1.832031 -5.21875 1.851562 -5.234375 1.875 -5.265625 C 2.125 -5.554688 2.472656 -5.703125 2.921875 -5.703125 Z M 2.921875 -5.703125 "/></g></g></g><g fill="#000000" fill-opacity="1"><g transform="translate(58.869545, 92.404903)"><g><path d="M 2.375 0.09375 C 1.769531 0.09375 1.289062 -0.0664062 0.9375 -0.390625 C 0.59375 -0.710938 0.421875 -1.148438 0.421875 -1.703125 L 0.421875 -3.921875 C 0.421875 -4.460938 0.59375 -4.894531 0.9375 -5.21875 C 1.289062 -5.539062 1.769531 -5.703125 2.375 -5.703125 C 2.976562 -5.703125 3.457031 -5.539062 3.8125 -5.21875 C 4.164062 -4.894531 4.34375 -4.460938 4.34375 -3.921875 L 4.34375 -1.703125 C 4.34375 -1.148438 4.164062 -0.710938 3.8125 -0.390625 C 3.46875 -0.0664062 2.988281 0.09375 2.375 0.09375 Z M 2.375 -1.015625 C 2.582031 -1.015625 2.75 -1.085938 2.875 -1.234375 C 3 -1.378906 3.0625 -1.566406 3.0625 -1.796875 L 3.0625 -3.828125 C 3.0625 -4.054688 3 -4.242188 2.875 -4.390625 C 2.75 -4.535156 2.582031 -4.609375 2.375 -4.609375 C 2.164062 -4.609375 2 -4.535156 1.875 -4.390625 C 1.75 -4.253906 1.6875 -4.066406 1.6875 -3.828125 L 1.6875 -1.796875 C 1.6875 -1.566406 1.75 -1.378906 1.875 -1.234375 C 2 -1.085938 2.164062 -1.015625 2.375 -1.015625 Z M 2.375 -1.015625 "/></g></g></g><g fill="#000000" fill-opacity="1"><g transform="translate(63.620697, 92.404903)"><g/></g></g><g fill="#000000" fill-opacity="1"><g transform="translate(65.820303, 92.404903)"><g><path d="M 4.15625 -3.375 C 4.21875 -3.082031 4.25 -2.753906 4.25 -2.390625 C 4.25 -2.035156 4.226562 -1.726562 4.1875 -1.46875 C 4.09375 -0.96875 3.890625 -0.582031 3.578125 -0.3125 C 3.265625 -0.0390625 2.84375 0.09375 2.3125 0.09375 C 1.75 0.09375 1.289062 -0.0507812 0.9375 -0.34375 C 0.59375 -0.644531 0.398438 -1.054688 0.359375 -1.578125 C 0.335938 -1.734375 0.320312 -1.96875 0.3125 -2.28125 C 0.3125 -2.363281 0.351562 -2.40625 0.4375 -2.40625 L 1.453125 -2.40625 C 1.535156 -2.40625 1.578125 -2.363281 1.578125 -2.28125 C 1.597656 -2.03125 1.613281 -1.84375 1.625 -1.71875 C 1.664062 -1.488281 1.742188 -1.3125 1.859375 -1.1875 C 1.972656 -1.070312 2.125 -1.015625 2.3125 -1.015625 C 2.488281 -1.015625 2.632812 -1.070312 2.75 -1.1875 C 2.863281 -1.300781 2.941406 -1.460938 2.984375 -1.671875 C 3.015625 -1.890625 3.03125 -2.175781 3.03125 -2.53125 C 3.03125 -2.90625 3.003906 -3.21875 2.953125 -3.46875 C 2.910156 -3.65625 2.832031 -3.800781 2.71875 -3.90625 C 2.613281 -4.007812 2.476562 -4.0625 2.3125 -4.0625 C 2.195312 -4.0625 2.097656 -4.023438 2.015625 -3.953125 C 1.972656 -3.929688 1.9375 -3.921875 1.90625 -3.921875 C 1.894531 -3.921875 1.867188 -3.929688 1.828125 -3.953125 L 1.3125 -4.484375 C 1.28125 -4.515625 1.265625 -4.550781 1.265625 -4.59375 C 1.265625 -4.613281 1.273438 -4.640625 1.296875 -4.671875 L 2.671875 -6.546875 C 2.679688 -6.554688 2.679688 -6.566406 2.671875 -6.578125 C 2.660156 -6.597656 2.644531 -6.609375 2.625 -6.609375 L 0.53125 -6.609375 C 0.5 -6.609375 0.46875 -6.617188 0.4375 -6.640625 C 0.414062 -6.671875 0.40625 -6.707031 0.40625 -6.75 L 0.40625 -7.5625 C 0.40625 -7.601562 0.414062 -7.632812 0.4375 -7.65625 C 0.46875 -7.6875 0.5 -7.703125 0.53125 -7.703125 L 4.109375 -7.703125 C 4.140625 -7.703125 4.164062 -7.6875 4.1875 -7.65625 C 4.21875 -7.632812 4.234375 -7.601562 4.234375 -7.5625 L 4.234375 -6.703125 C 4.234375 -6.648438 4.21875 -6.59375 4.1875 -6.53125 L 2.921875 -4.8125 C 2.890625 -4.769531 2.898438 -4.742188 2.953125 -4.734375 C 3.253906 -4.703125 3.507812 -4.5625 3.71875 -4.3125 C 3.9375 -4.0625 4.082031 -3.75 4.15625 -3.375 Z M 4.15625 -3.375 "/></g></g></g><g fill="#000000" fill-opacity="1"><g transform="translate(70.505468, 92.404903)"><g><path d="M 0.71875 0 C 0.6875 0 0.65625 -0.0078125 0.625 -0.03125 C 0.601562 -0.0625 0.59375 -0.09375 0.59375 -0.125 L 0.59375 -7.5625 C 0.59375 -7.601562 0.601562 -7.632812 0.625 -7.65625 C 0.65625 -7.6875 0.6875 -7.703125 0.71875 -7.703125 L 2.609375 -7.703125 C 3.234375 -7.703125 3.734375 -7.507812 4.109375 -7.125 C 4.492188 -6.75 4.6875 -6.238281 4.6875 -5.59375 L 4.6875 -2.09375 C 4.6875 -1.457031 4.492188 -0.945312 4.109375 -0.5625 C 3.734375 -0.1875 3.234375 0 2.609375 0 Z M 1.875 -1.15625 C 1.875 -1.113281 1.890625 -1.09375 1.921875 -1.09375 L 2.578125 -1.109375 C 2.828125 -1.109375 3.023438 -1.203125 3.171875 -1.390625 C 3.328125 -1.585938 3.40625 -1.847656 3.40625 -2.171875 L 3.40625 -5.515625 C 3.40625 -5.847656 3.328125 -6.109375 3.171875 -6.296875 C 3.023438 -6.492188 2.828125 -6.59375 2.578125 -6.59375 L 1.921875 -6.59375 C 1.890625 -6.59375 1.875 -6.578125 1.875 -6.546875 Z M 1.875 -1.15625 "/></g></g></g></svg>