<svg xmlns="http://www.w3.org/2000/svg" xmlns:xlink="http://www.w3.org/1999/xlink" width="250" zoomAndPan="magnify" viewBox="0 0 187.5 112.499997" height="150" preserveAspectRatio="xMidYMid meet" version="1.0"><defs><g/><clipPath id="id1"><path d="M 0.164062 1.644531 L 111.71875 1.644531 L 111.71875 112.003906 L 0.164062 112.003906 Z M 0.164062 1.644531 " clip-rule="nonzero"/></clipPath><clipPath id="id2"><path d="M 30 55 L 82 55 L 82 72.765625 L 30 72.765625 Z M 30 55 " clip-rule="nonzero"/></clipPath><clipPath id="id3"><path d="M 29.421875 12.875 L 82.578125 12.875 L 82.578125 47 L 29.421875 47 Z M 29.421875 12.875 " clip-rule="nonzero"/></clipPath><clipPath id="id4"><path d="M 120.484375 38.9375 L 186.835938 38.9375 L 186.835938 73.375 L 120.484375 73.375 Z M 120.484375 38.9375 " clip-rule="nonzero"/></clipPath></defs><path fill="#03989e" d="M 107.65625 55.757812 C 107.65625 57.503906 107.570312 59.242188 107.398438 60.980469 C 107.226562 62.714844 106.972656 64.4375 106.632812 66.148438 C 106.292969 67.859375 105.871094 69.550781 105.363281 71.21875 C 104.859375 72.886719 104.269531 74.527344 103.605469 76.140625 C 102.9375 77.75 102.191406 79.324219 101.371094 80.863281 C 100.550781 82.402344 99.65625 83.898438 98.6875 85.347656 C 97.71875 86.796875 96.683594 88.195312 95.578125 89.546875 C 94.472656 90.894531 93.300781 92.183594 92.070312 93.417969 C 90.835938 94.652344 89.546875 95.820312 88.199219 96.925781 C 86.851562 98.035156 85.453125 99.070312 84.003906 100.039062 C 82.558594 101.011719 81.0625 101.90625 79.527344 102.726562 C 77.988281 103.550781 76.417969 104.296875 74.804688 104.960938 C 73.195312 105.628906 71.558594 106.21875 69.890625 106.722656 C 68.222656 107.230469 66.53125 107.652344 64.824219 107.992188 C 63.113281 108.332031 61.394531 108.589844 59.660156 108.761719 C 57.925781 108.929688 56.183594 109.015625 54.441406 109.015625 C 52.699219 109.015625 50.960938 108.929688 49.226562 108.761719 C 47.492188 108.589844 45.769531 108.332031 44.0625 107.992188 C 42.351562 107.652344 40.664062 107.230469 38.996094 106.722656 C 37.328125 106.21875 35.6875 105.628906 34.078125 104.960938 C 32.46875 104.296875 30.894531 103.550781 29.359375 102.726562 C 27.820312 101.90625 26.328125 101.011719 24.878906 100.039062 C 23.429688 99.070312 22.03125 98.035156 20.683594 96.925781 C 19.335938 95.820312 18.046875 94.652344 16.816406 93.417969 C 15.582031 92.183594 14.414062 90.894531 13.308594 89.546875 C 12.203125 88.195312 11.167969 86.796875 10.199219 85.347656 C 9.230469 83.898438 8.335938 82.402344 7.511719 80.863281 C 6.691406 79.324219 5.949219 77.75 5.28125 76.140625 C 4.613281 74.527344 4.027344 72.886719 3.519531 71.21875 C 3.015625 69.550781 2.59375 67.859375 2.253906 66.148438 C 1.914062 64.4375 1.65625 62.714844 1.484375 60.980469 C 1.316406 59.242188 1.230469 57.503906 1.230469 55.757812 C 1.230469 54.015625 1.316406 52.273438 1.484375 50.539062 C 1.65625 48.800781 1.914062 47.078125 2.253906 45.367188 C 2.59375 43.65625 3.015625 41.96875 3.519531 40.296875 C 4.027344 38.628906 4.613281 36.988281 5.28125 35.378906 C 5.949219 33.765625 6.691406 32.191406 7.511719 30.652344 C 8.335938 29.113281 9.230469 27.621094 10.199219 26.171875 C 11.167969 24.71875 12.203125 23.320312 13.308594 21.972656 C 14.414062 20.625 15.582031 19.332031 16.816406 18.101562 C 18.046875 16.867188 19.335938 15.695312 20.683594 14.589844 C 22.03125 13.484375 23.429688 12.445312 24.878906 11.476562 C 26.328125 10.507812 27.820312 9.613281 29.359375 8.789062 C 30.894531 7.96875 32.46875 7.222656 34.078125 6.554688 C 35.6875 5.886719 37.328125 5.300781 38.996094 4.792969 C 40.664062 4.289062 42.351562 3.863281 44.0625 3.523438 C 45.769531 3.183594 47.492188 2.929688 49.226562 2.757812 C 50.960938 2.585938 52.699219 2.5 54.441406 2.5 C 56.183594 2.5 57.925781 2.585938 59.660156 2.757812 C 61.394531 2.929688 63.113281 3.183594 64.824219 3.523438 C 66.53125 3.863281 68.222656 4.289062 69.890625 4.792969 C 71.558594 5.300781 73.195312 5.886719 74.804688 6.554688 C 76.417969 7.222656 77.988281 7.96875 79.527344 8.789062 C 81.0625 9.613281 82.558594 10.507812 84.003906 11.476562 C 85.453125 12.445312 86.851562 13.484375 88.199219 14.589844 C 89.546875 15.695312 90.835938 16.867188 92.070312 18.101562 C 93.300781 19.332031 94.472656 20.625 95.578125 21.972656 C 96.683594 23.320312 97.71875 24.71875 98.6875 26.171875 C 99.65625 27.621094 100.550781 29.113281 101.371094 30.652344 C 102.191406 32.191406 102.9375 33.765625 103.605469 35.378906 C 104.269531 36.988281 104.859375 38.628906 105.363281 40.296875 C 105.871094 41.96875 106.292969 43.65625 106.632812 45.367188 C 106.972656 47.078125 107.226562 48.800781 107.398438 50.539062 C 107.570312 52.273438 107.65625 54.015625 107.65625 55.757812 Z M 107.65625 55.757812 " fill-opacity="1" fill-rule="nonzero"/><g clip-path="url(#id1)"><path fill="#00c2cb" d="M 91.375 16.308594 C 81.691406 7.21875 68.753906 1.644531 54.441406 1.644531 C 24.621094 1.644531 0.375 25.914062 0.375 55.757812 C 0.375 72.738281 8.257812 87.832031 20.425781 97.78125 C 30.105469 106.871094 43.132812 112.445312 57.355469 112.445312 C 87.175781 112.445312 111.425781 88.175781 111.425781 58.332031 C 111.511719 41.4375 103.628906 26.257812 91.375 16.308594 Z M 1.230469 55.757812 C 1.230469 26.34375 25.050781 2.5 54.441406 2.5 C 83.832031 2.5 107.65625 26.34375 107.65625 55.757812 C 107.65625 85.175781 83.832031 109.015625 54.441406 109.015625 C 25.050781 109.015625 1.230469 85.089844 1.230469 55.757812 Z M 1.230469 55.757812 " fill-opacity="1" fill-rule="nonzero"/></g><g clip-path="url(#id2)"><path fill="#000000" d="M 78.554688 72.765625 L 33.375 72.765625 C 33.375 72.765625 33.371094 72.765625 33.367188 72.765625 C 32.214844 72.761719 31.199219 72.175781 30.714844 71.234375 C 30.289062 70.40625 30.371094 69.457031 30.929688 68.691406 L 39.417969 57.117188 C 40.328125 55.875 41.703125 55.902344 42.921875 55.925781 C 43.097656 55.925781 43.277344 55.929688 43.460938 55.929688 C 43.832031 55.929688 44.132812 56.230469 44.132812 56.601562 C 44.132812 56.96875 43.832031 57.269531 43.460938 57.269531 C 43.269531 57.269531 43.082031 57.265625 42.894531 57.261719 C 41.6875 57.238281 40.984375 57.257812 40.507812 57.902344 L 32.023438 69.476562 C 31.667969 69.960938 31.804688 70.40625 31.917969 70.628906 C 32.117188 71.015625 32.605469 71.429688 33.386719 71.429688 L 78.554688 71.429688 C 79.335938 71.429688 79.824219 71.015625 80.023438 70.628906 C 80.136719 70.40625 80.273438 69.960938 79.921875 69.476562 L 71.433594 57.902344 C 70.960938 57.261719 70.304688 57.242188 69.097656 57.261719 C 68.925781 57.265625 68.746094 57.269531 68.566406 57.269531 C 68.191406 57.269531 67.890625 56.96875 67.890625 56.601562 C 67.890625 56.230469 68.191406 55.929688 68.566406 55.929688 C 68.738281 55.929688 68.90625 55.929688 69.078125 55.925781 C 70.320312 55.902344 71.617188 55.882812 72.523438 57.117188 L 81.011719 68.691406 C 81.574219 69.457031 81.652344 70.40625 81.226562 71.234375 C 80.742188 72.179688 79.71875 72.765625 78.554688 72.765625 " fill-opacity="1" fill-rule="nonzero"/></g><path fill="#000000" d="M 55.921875 50.320312 C 55.546875 50.320312 55.246094 50.023438 55.246094 49.652344 L 55.246094 48.867188 C 55.246094 47.78125 54.359375 46.902344 53.265625 46.902344 L 49.929688 46.902344 C 48.355469 46.902344 47.53125 45.664062 47.53125 44.449219 C 47.53125 43.824219 47.738281 43.238281 48.121094 42.792969 C 48.5625 42.285156 49.203125 42.007812 49.929688 42.007812 L 62.460938 42.007812 C 63.039062 42.007812 63.511719 41.539062 63.511719 40.964844 C 63.511719 40.390625 63.039062 39.925781 62.460938 39.925781 L 58.582031 39.925781 C 56.742188 39.925781 55.246094 38.441406 55.246094 36.621094 L 55.246094 34.816406 C 55.246094 34.445312 55.550781 34.148438 55.921875 34.148438 C 56.292969 34.148438 56.597656 34.445312 56.597656 34.816406 L 56.597656 36.621094 C 56.597656 37.703125 57.488281 38.585938 58.582031 38.585938 L 62.460938 38.585938 C 63.785156 38.585938 64.863281 39.65625 64.863281 40.964844 C 64.863281 42.277344 63.785156 43.34375 62.460938 43.34375 L 49.929688 43.34375 C 49.59375 43.34375 49.332031 43.453125 49.148438 43.664062 C 48.976562 43.863281 48.878906 44.148438 48.878906 44.449219 C 48.878906 44.5625 48.90625 45.5625 49.929688 45.5625 L 53.265625 45.5625 C 55.101562 45.5625 56.597656 47.042969 56.597656 48.867188 L 56.597656 49.652344 C 56.597656 50.023438 56.292969 50.320312 55.921875 50.320312 " fill-opacity="1" fill-rule="nonzero"/><path fill="#000000" d="M 49.375 18.1875 C 48.933594 18.1875 48.574219 18.546875 48.574219 18.984375 L 48.574219 28.535156 C 48.574219 28.972656 48.933594 29.332031 49.375 29.332031 L 62.566406 29.332031 C 63.011719 29.332031 63.367188 28.972656 63.367188 28.535156 L 63.367188 18.984375 C 63.367188 18.546875 63.011719 18.1875 62.566406 18.1875 Z M 62.566406 30.671875 L 49.375 30.671875 C 48.1875 30.671875 47.222656 29.710938 47.222656 28.535156 L 47.222656 18.984375 C 47.222656 17.808594 48.1875 16.851562 49.375 16.851562 L 62.566406 16.851562 C 63.753906 16.851562 64.71875 17.808594 64.71875 18.984375 L 64.71875 28.535156 C 64.71875 29.710938 63.753906 30.671875 62.566406 30.671875 " fill-opacity="1" fill-rule="nonzero"/><g clip-path="url(#id3)"><path fill="#000000" d="M 78.167969 46.039062 L 72.558594 46.039062 C 72.183594 46.039062 71.882812 45.738281 71.882812 45.371094 C 71.882812 45 72.183594 44.703125 72.558594 44.703125 L 78.167969 44.703125 C 79.789062 44.703125 81.160156 43.738281 81.160156 42.597656 L 81.160156 16.316406 C 81.160156 15.175781 79.789062 14.210938 78.167969 14.210938 L 33.773438 14.210938 C 32.152344 14.210938 30.78125 15.175781 30.78125 16.316406 L 30.78125 42.597656 C 30.78125 43.738281 32.152344 44.703125 33.773438 44.703125 L 39.382812 44.703125 C 39.757812 44.703125 40.058594 45 40.058594 45.371094 C 40.058594 45.738281 39.757812 46.039062 39.382812 46.039062 L 33.773438 46.039062 C 31.378906 46.039062 29.433594 44.496094 29.433594 42.597656 L 29.433594 16.316406 C 29.433594 14.417969 31.378906 12.875 33.773438 12.875 L 78.167969 12.875 C 80.5625 12.875 82.507812 14.417969 82.507812 16.316406 L 82.507812 42.597656 C 82.507812 44.496094 80.5625 46.039062 78.167969 46.039062 " fill-opacity="1" fill-rule="nonzero"/></g><path fill="#000000" d="M 59.648438 35.484375 L 52.292969 35.484375 C 51.488281 35.484375 50.832031 34.835938 50.832031 34.039062 L 50.832031 30 C 50.832031 29.632812 51.132812 29.332031 51.507812 29.332031 C 51.878906 29.332031 52.179688 29.632812 52.179688 30 L 52.179688 34.039062 C 52.179688 34.097656 52.230469 34.148438 52.292969 34.148438 L 59.648438 34.148438 C 59.710938 34.148438 59.761719 34.097656 59.761719 34.039062 L 59.761719 30 C 59.761719 29.632812 60.0625 29.332031 60.4375 29.332031 C 60.808594 29.332031 61.109375 29.632812 61.109375 30 L 61.109375 34.039062 C 61.109375 34.835938 60.453125 35.484375 59.648438 35.484375 " fill-opacity="1" fill-rule="nonzero"/><path fill="#000000" d="M 77.035156 22.390625 L 64.042969 22.390625 C 63.671875 22.390625 63.367188 22.089844 63.367188 21.722656 C 63.367188 21.351562 63.671875 21.050781 64.042969 21.050781 L 77.035156 21.050781 C 77.40625 21.050781 77.710938 21.351562 77.710938 21.722656 C 77.710938 22.089844 77.40625 22.390625 77.035156 22.390625 " fill-opacity="1" fill-rule="nonzero"/><path fill="#000000" d="M 77.035156 26.46875 L 64.042969 26.46875 C 63.671875 26.46875 63.367188 26.167969 63.367188 25.800781 C 63.367188 25.429688 63.671875 25.128906 64.042969 25.128906 L 77.035156 25.128906 C 77.40625 25.128906 77.710938 25.429688 77.710938 25.800781 C 77.710938 26.167969 77.40625 26.46875 77.035156 26.46875 " fill-opacity="1" fill-rule="nonzero"/><path fill="#000000" d="M 47.898438 22.390625 L 34.832031 22.390625 C 34.460938 22.390625 34.15625 22.089844 34.15625 21.722656 C 34.15625 21.351562 34.460938 21.050781 34.832031 21.050781 L 47.898438 21.050781 C 48.269531 21.050781 48.574219 21.351562 48.574219 21.722656 C 48.574219 22.089844 48.269531 22.390625 47.898438 22.390625 " fill-opacity="1" fill-rule="nonzero"/><path fill="#000000" d="M 47.898438 26.46875 L 34.832031 26.46875 C 34.460938 26.46875 34.15625 26.167969 34.15625 25.800781 C 34.15625 25.429688 34.460938 25.128906 34.832031 25.128906 L 47.898438 25.128906 C 48.269531 25.128906 48.574219 25.429688 48.574219 25.800781 C 48.574219 26.167969 48.269531 26.46875 47.898438 26.46875 " fill-opacity="1" fill-rule="nonzero"/><path fill="#000000" d="M 46.886719 63.957031 L 55.296875 67.382812 L 55.296875 57.582031 L 46.886719 54.152344 Z M 55.972656 69.050781 C 55.882812 69.050781 55.796875 69.035156 55.714844 69 L 45.957031 65.023438 C 45.703125 64.921875 45.539062 64.675781 45.539062 64.402344 L 45.539062 53.15625 C 45.539062 52.933594 45.648438 52.722656 45.835938 52.597656 C 46.023438 52.472656 46.261719 52.449219 46.46875 52.535156 L 56.226562 56.511719 C 56.480469 56.617188 56.644531 56.859375 56.644531 57.132812 L 56.644531 68.378906 C 56.644531 68.605469 56.53125 68.8125 56.347656 68.9375 C 56.234375 69.011719 56.101562 69.050781 55.972656 69.050781 " fill-opacity="1" fill-rule="nonzero"/><path fill="#000000" d="M 55.972656 69.050781 C 55.703125 69.050781 55.453125 68.894531 55.347656 68.636719 C 55.203125 68.292969 55.371094 67.902344 55.714844 67.761719 L 65.054688 63.957031 L 65.054688 54.152344 L 56.226562 57.75 C 55.882812 57.890625 55.488281 57.726562 55.347656 57.386719 C 55.203125 57.042969 55.371094 56.65625 55.714844 56.511719 L 65.472656 52.535156 C 65.679688 52.449219 65.917969 52.472656 66.105469 52.597656 C 66.292969 52.722656 66.402344 52.933594 66.402344 53.15625 L 66.402344 64.402344 C 66.402344 64.675781 66.238281 64.921875 65.984375 65.023438 L 56.226562 69 C 56.144531 69.035156 56.054688 69.050781 55.972656 69.050781 " fill-opacity="1" fill-rule="nonzero"/><path fill="#000000" d="M 65.730469 53.824219 C 65.652344 53.824219 65.574219 53.808594 65.5 53.78125 L 55.972656 50.363281 L 46.441406 53.78125 C 46.09375 53.910156 45.707031 53.730469 45.578125 53.382812 C 45.449219 53.035156 45.632812 52.652344 45.980469 52.523438 L 55.742188 49.023438 C 55.886719 48.972656 56.054688 48.972656 56.199219 49.023438 L 65.960938 52.523438 C 66.308594 52.652344 66.492188 53.035156 66.363281 53.382812 C 66.265625 53.65625 66.003906 53.824219 65.730469 53.824219 " fill-opacity="1" fill-rule="nonzero"/><g fill="#000000" fill-opacity="1"><g transform="translate(18.948289, 86.396418)"><g><path d="M 0.921875 0 C 0.878906 0 0.835938 -0.015625 0.796875 -0.046875 C 0.765625 -0.078125 0.75 -0.117188 0.75 -0.171875 L 0.75 -9.609375 C 0.75 -9.660156 0.765625 -9.703125 0.796875 -9.734375 C 0.835938 -9.765625 0.878906 -9.78125 0.921875 -9.78125 L 2.203125 -9.78125 C 2.253906 -9.78125 2.296875 -9.765625 2.328125 -9.734375 C 2.359375 -9.703125 2.375 -9.660156 2.375 -9.609375 L 2.375 -0.171875 C 2.375 -0.117188 2.359375 -0.078125 2.328125 -0.046875 C 2.296875 -0.015625 2.253906 0 2.203125 0 Z M 0.921875 0 "/></g></g></g><g fill="#000000" fill-opacity="1"><g transform="translate(22.076992, 86.396418)"><g><path d="M 5.140625 -9.671875 C 5.179688 -9.742188 5.25 -9.78125 5.34375 -9.78125 L 6.640625 -9.78125 C 6.679688 -9.78125 6.71875 -9.765625 6.75 -9.734375 C 6.78125 -9.703125 6.796875 -9.660156 6.796875 -9.609375 L 6.796875 -0.171875 C 6.796875 -0.117188 6.78125 -0.078125 6.75 -0.046875 C 6.71875 -0.015625 6.679688 0 6.640625 0 L 5.34375 0 C 5.300781 0 5.265625 -0.015625 5.234375 -0.046875 C 5.203125 -0.078125 5.1875 -0.117188 5.1875 -0.171875 L 5.1875 -6.765625 C 5.1875 -6.796875 5.175781 -6.8125 5.15625 -6.8125 C 5.132812 -6.8125 5.113281 -6.800781 5.09375 -6.78125 L 3.890625 -4.5625 C 3.835938 -4.488281 3.789062 -4.453125 3.75 -4.453125 C 3.71875 -4.453125 3.675781 -4.488281 3.625 -4.5625 L 2.421875 -6.78125 C 2.398438 -6.800781 2.378906 -6.8125 2.359375 -6.8125 C 2.335938 -6.8125 2.328125 -6.796875 2.328125 -6.765625 L 2.328125 -0.171875 C 2.328125 -0.117188 2.3125 -0.078125 2.28125 -0.046875 C 2.25 -0.015625 2.210938 0 2.171875 0 L 0.875 0 C 0.832031 0 0.796875 -0.015625 0.765625 -0.046875 C 0.734375 -0.078125 0.71875 -0.117188 0.71875 -0.171875 L 0.71875 -9.609375 C 0.71875 -9.660156 0.734375 -9.703125 0.765625 -9.734375 C 0.796875 -9.765625 0.832031 -9.78125 0.875 -9.78125 L 2.171875 -9.78125 C 2.265625 -9.78125 2.332031 -9.742188 2.375 -9.671875 L 3.734375 -7.28125 C 3.753906 -7.238281 3.78125 -7.238281 3.8125 -7.28125 Z M 5.140625 -9.671875 "/></g></g></g><g fill="#000000" fill-opacity="1"><g transform="translate(29.591465, 86.396418)"><g><path d="M 3.53125 -9.796875 C 4.03125 -9.796875 4.46875 -9.671875 4.84375 -9.421875 C 5.21875 -9.179688 5.507812 -8.84375 5.71875 -8.40625 C 5.925781 -7.96875 6.03125 -7.472656 6.03125 -6.921875 C 6.03125 -6.078125 5.804688 -5.398438 5.359375 -4.890625 C 4.921875 -4.378906 4.34375 -4.125 3.625 -4.125 L 2.4375 -4.125 C 2.382812 -4.125 2.359375 -4.097656 2.359375 -4.046875 L 2.359375 -0.171875 C 2.359375 -0.117188 2.34375 -0.078125 2.3125 -0.046875 C 2.28125 -0.015625 2.238281 0 2.1875 0 L 0.90625 0 C 0.863281 0 0.820312 -0.015625 0.78125 -0.046875 C 0.75 -0.078125 0.734375 -0.117188 0.734375 -0.171875 L 0.734375 -9.625 C 0.734375 -9.664062 0.75 -9.703125 0.78125 -9.734375 C 0.820312 -9.773438 0.863281 -9.796875 0.90625 -9.796875 Z M 3.265625 -5.390625 C 3.609375 -5.390625 3.882812 -5.519531 4.09375 -5.78125 C 4.3125 -6.050781 4.421875 -6.414062 4.421875 -6.875 C 4.421875 -7.34375 4.3125 -7.710938 4.09375 -7.984375 C 3.882812 -8.253906 3.609375 -8.390625 3.265625 -8.390625 L 2.4375 -8.390625 C 2.382812 -8.390625 2.359375 -8.367188 2.359375 -8.328125 L 2.359375 -5.46875 C 2.359375 -5.414062 2.382812 -5.390625 2.4375 -5.390625 Z M 3.265625 -5.390625 "/></g></g></g><g fill="#000000" fill-opacity="1"><g transform="translate(35.974579, 86.396418)"><g><path d="M 4.625 0 C 4.53125 0 4.46875 -0.046875 4.4375 -0.140625 L 3.25 -4.15625 C 3.238281 -4.1875 3.21875 -4.203125 3.1875 -4.203125 L 2.4375 -4.203125 C 2.394531 -4.203125 2.375 -4.179688 2.375 -4.140625 L 2.375 -0.171875 C 2.375 -0.117188 2.359375 -0.078125 2.328125 -0.046875 C 2.296875 -0.015625 2.253906 0 2.203125 0 L 0.921875 0 C 0.878906 0 0.835938 -0.015625 0.796875 -0.046875 C 0.765625 -0.078125 0.75 -0.117188 0.75 -0.171875 L 0.75 -9.609375 C 0.75 -9.660156 0.765625 -9.703125 0.796875 -9.734375 C 0.835938 -9.765625 0.878906 -9.78125 0.921875 -9.78125 L 3.546875 -9.78125 C 4.035156 -9.78125 4.46875 -9.660156 4.84375 -9.421875 C 5.226562 -9.179688 5.523438 -8.84375 5.734375 -8.40625 C 5.941406 -7.976562 6.046875 -7.484375 6.046875 -6.921875 C 6.046875 -6.347656 5.929688 -5.851562 5.703125 -5.4375 C 5.484375 -5.019531 5.175781 -4.703125 4.78125 -4.484375 C 4.738281 -4.472656 4.722656 -4.445312 4.734375 -4.40625 L 6.109375 -0.203125 C 6.117188 -0.179688 6.125 -0.15625 6.125 -0.125 C 6.125 -0.0390625 6.070312 0 5.96875 0 Z M 2.4375 -8.375 C 2.394531 -8.375 2.375 -8.351562 2.375 -8.3125 L 2.375 -5.53125 C 2.375 -5.488281 2.394531 -5.46875 2.4375 -5.46875 L 3.296875 -5.46875 C 3.628906 -5.46875 3.898438 -5.597656 4.109375 -5.859375 C 4.316406 -6.117188 4.421875 -6.472656 4.421875 -6.921875 C 4.421875 -7.359375 4.316406 -7.707031 4.109375 -7.96875 C 3.898438 -8.238281 3.628906 -8.375 3.296875 -8.375 Z M 2.4375 -8.375 "/></g></g></g><g fill="#000000" fill-opacity="1"><g transform="translate(42.413567, 86.396418)"><g><path d="M 5.625 -8.546875 C 5.625 -8.503906 5.609375 -8.460938 5.578125 -8.421875 C 5.546875 -8.390625 5.507812 -8.375 5.46875 -8.375 L 2.4375 -8.375 C 2.394531 -8.375 2.375 -8.351562 2.375 -8.3125 L 2.375 -5.671875 C 2.375 -5.617188 2.394531 -5.59375 2.4375 -5.59375 L 4.234375 -5.59375 C 4.273438 -5.59375 4.3125 -5.578125 4.34375 -5.546875 C 4.382812 -5.515625 4.40625 -5.476562 4.40625 -5.4375 L 4.40625 -4.359375 C 4.40625 -4.304688 4.382812 -4.265625 4.34375 -4.234375 C 4.3125 -4.203125 4.273438 -4.1875 4.234375 -4.1875 L 2.4375 -4.1875 C 2.394531 -4.1875 2.375 -4.164062 2.375 -4.125 L 2.375 -1.46875 C 2.375 -1.414062 2.394531 -1.390625 2.4375 -1.390625 L 5.46875 -1.390625 C 5.507812 -1.390625 5.546875 -1.375 5.578125 -1.34375 C 5.609375 -1.3125 5.625 -1.273438 5.625 -1.234375 L 5.625 -0.171875 C 5.625 -0.117188 5.609375 -0.078125 5.578125 -0.046875 C 5.546875 -0.015625 5.507812 0 5.46875 0 L 0.921875 0 C 0.878906 0 0.835938 -0.015625 0.796875 -0.046875 C 0.765625 -0.078125 0.75 -0.117188 0.75 -0.171875 L 0.75 -9.609375 C 0.75 -9.660156 0.765625 -9.703125 0.796875 -9.734375 C 0.835938 -9.765625 0.878906 -9.78125 0.921875 -9.78125 L 5.46875 -9.78125 C 5.507812 -9.78125 5.546875 -9.765625 5.578125 -9.734375 C 5.609375 -9.703125 5.625 -9.660156 5.625 -9.609375 Z M 5.625 -8.546875 "/></g></g></g><g fill="#000000" fill-opacity="1"><g transform="translate(48.489391, 86.396418)"><g><path d="M 3.0625 0.109375 C 2.289062 0.109375 1.664062 -0.117188 1.1875 -0.578125 C 0.707031 -1.046875 0.46875 -1.660156 0.46875 -2.421875 L 0.46875 -2.78125 C 0.46875 -2.820312 0.484375 -2.859375 0.515625 -2.890625 C 0.554688 -2.929688 0.597656 -2.953125 0.640625 -2.953125 L 1.90625 -2.953125 C 1.957031 -2.953125 2 -2.929688 2.03125 -2.890625 C 2.0625 -2.859375 2.078125 -2.820312 2.078125 -2.78125 L 2.078125 -2.5 C 2.078125 -2.132812 2.164062 -1.835938 2.34375 -1.609375 C 2.53125 -1.390625 2.769531 -1.28125 3.0625 -1.28125 C 3.34375 -1.28125 3.578125 -1.382812 3.765625 -1.59375 C 3.953125 -1.800781 4.046875 -2.082031 4.046875 -2.4375 C 4.046875 -2.675781 3.992188 -2.882812 3.890625 -3.0625 C 3.796875 -3.238281 3.65625 -3.40625 3.46875 -3.5625 C 3.28125 -3.71875 2.976562 -3.945312 2.5625 -4.25 C 2.101562 -4.582031 1.726562 -4.878906 1.4375 -5.140625 C 1.15625 -5.398438 0.921875 -5.710938 0.734375 -6.078125 C 0.546875 -6.453125 0.453125 -6.878906 0.453125 -7.359375 C 0.453125 -8.128906 0.679688 -8.742188 1.140625 -9.203125 C 1.609375 -9.660156 2.222656 -9.890625 2.984375 -9.890625 C 3.765625 -9.890625 4.390625 -9.648438 4.859375 -9.171875 C 5.335938 -8.691406 5.578125 -8.054688 5.578125 -7.265625 L 5.578125 -6.921875 C 5.578125 -6.878906 5.554688 -6.84375 5.515625 -6.8125 C 5.484375 -6.78125 5.445312 -6.765625 5.40625 -6.765625 L 4.15625 -6.765625 C 4.101562 -6.765625 4.0625 -6.78125 4.03125 -6.8125 C 4 -6.84375 3.984375 -6.878906 3.984375 -6.921875 L 3.984375 -7.296875 C 3.984375 -7.660156 3.890625 -7.953125 3.703125 -8.171875 C 3.523438 -8.390625 3.285156 -8.5 2.984375 -8.5 C 2.703125 -8.5 2.472656 -8.394531 2.296875 -8.1875 C 2.128906 -7.988281 2.046875 -7.710938 2.046875 -7.359375 C 2.046875 -7.023438 2.140625 -6.738281 2.328125 -6.5 C 2.515625 -6.269531 2.890625 -5.953125 3.453125 -5.546875 C 4.015625 -5.128906 4.441406 -4.785156 4.734375 -4.515625 C 5.023438 -4.253906 5.25 -3.960938 5.40625 -3.640625 C 5.5625 -3.328125 5.640625 -2.953125 5.640625 -2.515625 C 5.640625 -1.722656 5.398438 -1.085938 4.921875 -0.609375 C 4.453125 -0.128906 3.832031 0.109375 3.0625 0.109375 Z M 3.0625 0.109375 "/></g></g></g><g fill="#000000" fill-opacity="1"><g transform="translate(54.551255, 86.396418)"><g><path d="M 0.921875 0 C 0.878906 0 0.835938 -0.015625 0.796875 -0.046875 C 0.765625 -0.078125 0.75 -0.117188 0.75 -0.171875 L 0.75 -9.609375 C 0.75 -9.660156 0.765625 -9.703125 0.796875 -9.734375 C 0.835938 -9.765625 0.878906 -9.78125 0.921875 -9.78125 L 2.203125 -9.78125 C 2.253906 -9.78125 2.296875 -9.765625 2.328125 -9.734375 C 2.359375 -9.703125 2.375 -9.660156 2.375 -9.609375 L 2.375 -0.171875 C 2.375 -0.117188 2.359375 -0.078125 2.328125 -0.046875 C 2.296875 -0.015625 2.253906 0 2.203125 0 Z M 0.921875 0 "/></g></g></g><g fill="#000000" fill-opacity="1"><g transform="translate(57.679958, 86.396418)"><g><path d="M 3.25 0.109375 C 2.445312 0.109375 1.800781 -0.128906 1.3125 -0.609375 C 0.832031 -1.097656 0.59375 -1.742188 0.59375 -2.546875 L 0.59375 -7.234375 C 0.59375 -8.035156 0.832031 -8.675781 1.3125 -9.15625 C 1.800781 -9.644531 2.445312 -9.890625 3.25 -9.890625 C 4.050781 -9.890625 4.695312 -9.644531 5.1875 -9.15625 C 5.6875 -8.675781 5.9375 -8.035156 5.9375 -7.234375 L 5.9375 -2.546875 C 5.9375 -1.742188 5.6875 -1.097656 5.1875 -0.609375 C 4.695312 -0.128906 4.050781 0.109375 3.25 0.109375 Z M 3.25 -1.28125 C 3.570312 -1.28125 3.828125 -1.390625 4.015625 -1.609375 C 4.210938 -1.828125 4.3125 -2.113281 4.3125 -2.46875 L 4.3125 -7.3125 C 4.3125 -7.664062 4.210938 -7.953125 4.015625 -8.171875 C 3.828125 -8.390625 3.570312 -8.5 3.25 -8.5 C 2.9375 -8.5 2.679688 -8.390625 2.484375 -8.171875 C 2.296875 -7.953125 2.203125 -7.664062 2.203125 -7.3125 L 2.203125 -2.46875 C 2.203125 -2.113281 2.296875 -1.828125 2.484375 -1.609375 C 2.679688 -1.390625 2.9375 -1.28125 3.25 -1.28125 Z M 3.25 -1.28125 "/></g></g></g><g fill="#000000" fill-opacity="1"><g transform="translate(64.202739, 86.396418)"><g><path d="M 4.71875 -9.609375 C 4.71875 -9.660156 4.734375 -9.703125 4.765625 -9.734375 C 4.796875 -9.765625 4.835938 -9.78125 4.890625 -9.78125 L 6.15625 -9.78125 C 6.207031 -9.78125 6.25 -9.765625 6.28125 -9.734375 C 6.3125 -9.703125 6.328125 -9.660156 6.328125 -9.609375 L 6.328125 -0.171875 C 6.328125 -0.117188 6.3125 -0.078125 6.28125 -0.046875 C 6.25 -0.015625 6.207031 0 6.15625 0 L 4.6875 0 C 4.59375 0 4.535156 -0.046875 4.515625 -0.140625 L 2.4375 -6.0625 C 2.425781 -6.09375 2.40625 -6.101562 2.375 -6.09375 C 2.351562 -6.09375 2.34375 -6.078125 2.34375 -6.046875 L 2.359375 -0.171875 C 2.359375 -0.117188 2.34375 -0.078125 2.3125 -0.046875 C 2.28125 -0.015625 2.238281 0 2.1875 0 L 0.921875 0 C 0.878906 0 0.835938 -0.015625 0.796875 -0.046875 C 0.765625 -0.078125 0.75 -0.117188 0.75 -0.171875 L 0.75 -9.609375 C 0.75 -9.660156 0.765625 -9.703125 0.796875 -9.734375 C 0.835938 -9.765625 0.878906 -9.78125 0.921875 -9.78125 L 2.359375 -9.78125 C 2.453125 -9.78125 2.515625 -9.734375 2.546875 -9.640625 L 4.640625 -3.75 C 4.648438 -3.726562 4.664062 -3.71875 4.6875 -3.71875 C 4.707031 -3.726562 4.71875 -3.742188 4.71875 -3.765625 Z M 4.71875 -9.609375 "/></g></g></g><g fill="#000000" fill-opacity="1"><g transform="translate(71.284226, 86.396418)"><g><path d="M 5.625 -8.546875 C 5.625 -8.503906 5.609375 -8.460938 5.578125 -8.421875 C 5.546875 -8.390625 5.507812 -8.375 5.46875 -8.375 L 2.4375 -8.375 C 2.394531 -8.375 2.375 -8.351562 2.375 -8.3125 L 2.375 -5.671875 C 2.375 -5.617188 2.394531 -5.59375 2.4375 -5.59375 L 4.234375 -5.59375 C 4.273438 -5.59375 4.3125 -5.578125 4.34375 -5.546875 C 4.382812 -5.515625 4.40625 -5.476562 4.40625 -5.4375 L 4.40625 -4.359375 C 4.40625 -4.304688 4.382812 -4.265625 4.34375 -4.234375 C 4.3125 -4.203125 4.273438 -4.1875 4.234375 -4.1875 L 2.4375 -4.1875 C 2.394531 -4.1875 2.375 -4.164062 2.375 -4.125 L 2.375 -1.46875 C 2.375 -1.414062 2.394531 -1.390625 2.4375 -1.390625 L 5.46875 -1.390625 C 5.507812 -1.390625 5.546875 -1.375 5.578125 -1.34375 C 5.609375 -1.3125 5.625 -1.273438 5.625 -1.234375 L 5.625 -0.171875 C 5.625 -0.117188 5.609375 -0.078125 5.578125 -0.046875 C 5.546875 -0.015625 5.507812 0 5.46875 0 L 0.921875 0 C 0.878906 0 0.835938 -0.015625 0.796875 -0.046875 C 0.765625 -0.078125 0.75 -0.117188 0.75 -0.171875 L 0.75 -9.609375 C 0.75 -9.660156 0.765625 -9.703125 0.796875 -9.734375 C 0.835938 -9.765625 0.878906 -9.78125 0.921875 -9.78125 L 5.46875 -9.78125 C 5.507812 -9.78125 5.546875 -9.765625 5.578125 -9.734375 C 5.609375 -9.703125 5.625 -9.660156 5.625 -9.609375 Z M 5.625 -8.546875 "/></g></g></g><g fill="#000000" fill-opacity="1"><g transform="translate(77.36005, 86.396418)"><g><path d="M 3.0625 0.109375 C 2.289062 0.109375 1.664062 -0.117188 1.1875 -0.578125 C 0.707031 -1.046875 0.46875 -1.660156 0.46875 -2.421875 L 0.46875 -2.78125 C 0.46875 -2.820312 0.484375 -2.859375 0.515625 -2.890625 C 0.554688 -2.929688 0.597656 -2.953125 0.640625 -2.953125 L 1.90625 -2.953125 C 1.957031 -2.953125 2 -2.929688 2.03125 -2.890625 C 2.0625 -2.859375 2.078125 -2.820312 2.078125 -2.78125 L 2.078125 -2.5 C 2.078125 -2.132812 2.164062 -1.835938 2.34375 -1.609375 C 2.53125 -1.390625 2.769531 -1.28125 3.0625 -1.28125 C 3.34375 -1.28125 3.578125 -1.382812 3.765625 -1.59375 C 3.953125 -1.800781 4.046875 -2.082031 4.046875 -2.4375 C 4.046875 -2.675781 3.992188 -2.882812 3.890625 -3.0625 C 3.796875 -3.238281 3.65625 -3.40625 3.46875 -3.5625 C 3.28125 -3.71875 2.976562 -3.945312 2.5625 -4.25 C 2.101562 -4.582031 1.726562 -4.878906 1.4375 -5.140625 C 1.15625 -5.398438 0.921875 -5.710938 0.734375 -6.078125 C 0.546875 -6.453125 0.453125 -6.878906 0.453125 -7.359375 C 0.453125 -8.128906 0.679688 -8.742188 1.140625 -9.203125 C 1.609375 -9.660156 2.222656 -9.890625 2.984375 -9.890625 C 3.765625 -9.890625 4.390625 -9.648438 4.859375 -9.171875 C 5.335938 -8.691406 5.578125 -8.054688 5.578125 -7.265625 L 5.578125 -6.921875 C 5.578125 -6.878906 5.554688 -6.84375 5.515625 -6.8125 C 5.484375 -6.78125 5.445312 -6.765625 5.40625 -6.765625 L 4.15625 -6.765625 C 4.101562 -6.765625 4.0625 -6.78125 4.03125 -6.8125 C 4 -6.84375 3.984375 -6.878906 3.984375 -6.921875 L 3.984375 -7.296875 C 3.984375 -7.660156 3.890625 -7.953125 3.703125 -8.171875 C 3.523438 -8.390625 3.285156 -8.5 2.984375 -8.5 C 2.703125 -8.5 2.472656 -8.394531 2.296875 -8.1875 C 2.128906 -7.988281 2.046875 -7.710938 2.046875 -7.359375 C 2.046875 -7.023438 2.140625 -6.738281 2.328125 -6.5 C 2.515625 -6.269531 2.890625 -5.953125 3.453125 -5.546875 C 4.015625 -5.128906 4.441406 -4.785156 4.734375 -4.515625 C 5.023438 -4.253906 5.25 -3.960938 5.40625 -3.640625 C 5.5625 -3.328125 5.640625 -2.953125 5.640625 -2.515625 C 5.640625 -1.722656 5.398438 -1.085938 4.921875 -0.609375 C 4.453125 -0.128906 3.832031 0.109375 3.0625 0.109375 Z M 3.0625 0.109375 "/></g></g></g><g fill="#000000" fill-opacity="1"><g transform="translate(83.421915, 86.396418)"><g/></g></g><g fill="#000000" fill-opacity="1"><g transform="translate(86.215396, 86.396418)"><g><path d="M 5.28125 -4.28125 C 5.363281 -3.914062 5.40625 -3.503906 5.40625 -3.046875 C 5.40625 -2.585938 5.375 -2.195312 5.3125 -1.875 C 5.195312 -1.238281 4.941406 -0.75 4.546875 -0.40625 C 4.148438 -0.0625 3.613281 0.109375 2.9375 0.109375 C 2.226562 0.109375 1.648438 -0.078125 1.203125 -0.453125 C 0.753906 -0.828125 0.503906 -1.34375 0.453125 -2 C 0.429688 -2.207031 0.410156 -2.503906 0.390625 -2.890625 C 0.390625 -3.003906 0.445312 -3.0625 0.5625 -3.0625 L 1.84375 -3.0625 C 1.957031 -3.0625 2.015625 -3.003906 2.015625 -2.890625 C 2.035156 -2.578125 2.050781 -2.335938 2.0625 -2.171875 C 2.113281 -1.890625 2.210938 -1.671875 2.359375 -1.515625 C 2.503906 -1.359375 2.695312 -1.28125 2.9375 -1.28125 C 3.15625 -1.28125 3.335938 -1.351562 3.484375 -1.5 C 3.640625 -1.644531 3.738281 -1.851562 3.78125 -2.125 C 3.832031 -2.40625 3.859375 -2.769531 3.859375 -3.21875 C 3.859375 -3.6875 3.820312 -4.082031 3.75 -4.40625 C 3.695312 -4.644531 3.597656 -4.828125 3.453125 -4.953125 C 3.316406 -5.085938 3.144531 -5.15625 2.9375 -5.15625 C 2.789062 -5.15625 2.664062 -5.113281 2.5625 -5.03125 C 2.5 -4.988281 2.457031 -4.96875 2.4375 -4.96875 C 2.414062 -4.96875 2.375 -4.988281 2.3125 -5.03125 L 1.65625 -5.703125 C 1.625 -5.734375 1.609375 -5.773438 1.609375 -5.828125 C 1.609375 -5.859375 1.617188 -5.894531 1.640625 -5.9375 L 3.390625 -8.3125 C 3.410156 -8.332031 3.410156 -8.347656 3.390625 -8.359375 C 3.378906 -8.378906 3.363281 -8.390625 3.34375 -8.390625 L 0.6875 -8.390625 C 0.632812 -8.390625 0.59375 -8.40625 0.5625 -8.4375 C 0.53125 -8.476562 0.515625 -8.519531 0.515625 -8.5625 L 0.515625 -9.609375 C 0.515625 -9.660156 0.53125 -9.703125 0.5625 -9.734375 C 0.59375 -9.765625 0.632812 -9.78125 0.6875 -9.78125 L 5.203125 -9.78125 C 5.253906 -9.78125 5.296875 -9.765625 5.328125 -9.734375 C 5.359375 -9.703125 5.375 -9.660156 5.375 -9.609375 L 5.375 -8.5 C 5.375 -8.4375 5.351562 -8.367188 5.3125 -8.296875 L 3.71875 -6.125 C 3.675781 -6.0625 3.6875 -6.023438 3.75 -6.015625 C 4.125 -5.972656 4.445312 -5.789062 4.71875 -5.46875 C 5 -5.15625 5.1875 -4.757812 5.28125 -4.28125 Z M 5.28125 -4.28125 "/></g></g></g><g fill="#000000" fill-opacity="1"><g transform="translate(92.165524, 86.396418)"><g><path d="M 0.921875 0 C 0.878906 0 0.835938 -0.015625 0.796875 -0.046875 C 0.765625 -0.078125 0.75 -0.117188 0.75 -0.171875 L 0.75 -9.609375 C 0.75 -9.660156 0.765625 -9.703125 0.796875 -9.734375 C 0.835938 -9.765625 0.878906 -9.78125 0.921875 -9.78125 L 3.3125 -9.78125 C 4.113281 -9.78125 4.753906 -9.535156 5.234375 -9.046875 C 5.710938 -8.566406 5.953125 -7.921875 5.953125 -7.109375 L 5.953125 -2.671875 C 5.953125 -1.859375 5.710938 -1.207031 5.234375 -0.71875 C 4.753906 -0.238281 4.113281 0 3.3125 0 Z M 2.375 -1.46875 C 2.375 -1.414062 2.394531 -1.390625 2.4375 -1.390625 L 3.28125 -1.40625 C 3.59375 -1.40625 3.84375 -1.53125 4.03125 -1.78125 C 4.21875 -2.03125 4.316406 -2.359375 4.328125 -2.765625 L 4.328125 -7.015625 C 4.328125 -7.429688 4.226562 -7.757812 4.03125 -8 C 3.84375 -8.25 3.585938 -8.375 3.265625 -8.375 L 2.4375 -8.375 C 2.394531 -8.375 2.375 -8.351562 2.375 -8.3125 Z M 2.375 -1.46875 "/></g></g></g><g clip-path="url(#id4)"><path fill="#03989e" d="M 164.164062 73.375 L 164.164062 66.003906 L 120.511719 66.003906 L 120.511719 46.304688 L 164.164062 46.304688 L 164.164062 38.9375 L 187.089844 56.15625 Z M 164.164062 73.375 " fill-opacity="1" fill-rule="nonzero"/></g></svg>