<svg xmlns="http://www.w3.org/2000/svg" xmlns:xlink="http://www.w3.org/1999/xlink" width="150" zoomAndPan="magnify" viewBox="0 0 112.5 112.499997" height="150" preserveAspectRatio="xMidYMid meet" version="1.0"><defs><g/><clipPath id="id1"><path d="M 1 0 L 112.003906 0 L 112.003906 111 L 1 111 Z M 1 0 " clip-rule="nonzero"/></clipPath><clipPath id="id2"><path d="M 32 58 L 81 58 L 81 74.636719 L 32 74.636719 Z M 32 58 " clip-rule="nonzero"/></clipPath><clipPath id="id3"><path d="M 31.128906 17.636719 L 81.378906 17.636719 L 81.378906 50 L 31.128906 50 Z M 31.128906 17.636719 " clip-rule="nonzero"/></clipPath></defs><path fill="#03989e" d="M 108.488281 54.210938 C 108.488281 55.957031 108.402344 57.703125 108.230469 59.441406 C 108.058594 61.179688 107.804688 62.90625 107.464844 64.621094 C 107.125 66.332031 106.699219 68.027344 106.191406 69.699219 C 105.6875 71.371094 105.097656 73.015625 104.429688 74.628906 C 103.761719 76.242188 103.015625 77.820312 102.195312 79.359375 C 101.371094 80.902344 100.472656 82.398438 99.503906 83.851562 C 98.535156 85.304688 97.496094 86.707031 96.386719 88.058594 C 95.28125 89.410156 94.109375 90.703125 92.875 91.9375 C 91.640625 93.171875 90.347656 94.34375 89 95.453125 C 87.648438 96.5625 86.25 97.601562 84.796875 98.570312 C 83.34375 99.542969 81.851562 100.441406 80.308594 101.265625 C 78.769531 102.085938 77.195312 102.832031 75.582031 103.503906 C 73.96875 104.171875 72.328125 104.757812 70.65625 105.265625 C 68.984375 105.773438 67.292969 106.199219 65.582031 106.539062 C 63.867188 106.878906 62.144531 107.136719 60.40625 107.304688 C 58.667969 107.476562 56.925781 107.5625 55.179688 107.5625 C 53.433594 107.5625 51.695312 107.476562 49.957031 107.304688 C 48.21875 107.136719 46.492188 106.878906 44.78125 106.539062 C 43.070312 106.199219 41.378906 105.773438 39.707031 105.265625 C 38.035156 104.757812 36.394531 104.171875 34.78125 103.503906 C 33.167969 102.832031 31.59375 102.085938 30.050781 101.265625 C 28.511719 100.441406 27.015625 99.542969 25.566406 98.570312 C 24.113281 97.601562 22.714844 96.5625 21.363281 95.453125 C 20.015625 94.34375 18.722656 93.171875 17.488281 91.9375 C 16.253906 90.703125 15.082031 89.410156 13.972656 88.058594 C 12.867188 86.707031 11.828125 85.304688 10.859375 83.851562 C 9.886719 82.398438 8.992188 80.902344 8.167969 79.359375 C 7.347656 77.820312 6.601562 76.242188 5.933594 74.628906 C 5.265625 73.015625 4.675781 71.371094 4.167969 69.699219 C 3.664062 68.027344 3.238281 66.332031 2.898438 64.621094 C 2.558594 62.90625 2.300781 61.179688 2.132812 59.441406 C 1.960938 57.703125 1.875 55.957031 1.875 54.210938 C 1.875 52.464844 1.960938 50.722656 2.132812 48.980469 C 2.300781 47.242188 2.558594 45.515625 2.898438 43.804688 C 3.238281 42.089844 3.664062 40.394531 4.167969 38.722656 C 4.675781 37.050781 5.265625 35.410156 5.933594 33.792969 C 6.601562 32.179688 7.347656 30.601562 8.167969 29.0625 C 8.992188 27.519531 9.886719 26.023438 10.859375 24.570312 C 11.828125 23.117188 12.867188 21.714844 13.972656 20.363281 C 15.082031 19.015625 16.253906 17.722656 17.488281 16.484375 C 18.722656 15.25 20.015625 14.078125 21.363281 12.96875 C 22.714844 11.859375 24.113281 10.820312 25.566406 9.851562 C 27.015625 8.878906 28.511719 7.984375 30.050781 7.160156 C 31.59375 6.335938 33.167969 5.589844 34.78125 4.921875 C 36.394531 4.25 38.035156 3.664062 39.707031 3.15625 C 41.378906 2.648438 43.070312 2.226562 44.78125 1.882812 C 46.492188 1.542969 48.21875 1.289062 49.957031 1.117188 C 51.695312 0.945312 53.433594 0.859375 55.179688 0.859375 C 56.925781 0.859375 58.667969 0.945312 60.40625 1.117188 C 62.144531 1.289062 63.867188 1.542969 65.582031 1.882812 C 67.292969 2.226562 68.984375 2.648438 70.65625 3.15625 C 72.328125 3.664062 73.96875 4.25 75.582031 4.921875 C 77.195312 5.589844 78.769531 6.335938 80.308594 7.160156 C 81.851562 7.984375 83.34375 8.878906 84.796875 9.851562 C 86.25 10.820312 87.648438 11.859375 89 12.96875 C 90.347656 14.078125 91.640625 15.25 92.875 16.484375 C 94.109375 17.722656 95.28125 19.015625 96.386719 20.363281 C 97.496094 21.714844 98.535156 23.117188 99.503906 24.570312 C 100.472656 26.023438 101.371094 27.519531 102.195312 29.0625 C 103.015625 30.601562 103.761719 32.179688 104.429688 33.792969 C 105.097656 35.410156 105.6875 37.050781 106.191406 38.722656 C 106.699219 40.394531 107.125 42.089844 107.464844 43.804688 C 107.804688 45.515625 108.058594 47.242188 108.230469 48.980469 C 108.402344 50.722656 108.488281 52.464844 108.488281 54.210938 Z M 108.488281 54.210938 " fill-opacity="1" fill-rule="nonzero"/><g clip-path="url(#id1)"><path fill="#00c2cb" d="M 92.179688 14.691406 C 82.480469 5.585938 69.515625 0 55.179688 0 C 25.308594 0 1.015625 24.3125 1.015625 54.210938 C 1.015625 71.222656 8.914062 86.34375 21.101562 96.308594 C 30.800781 105.414062 43.851562 111 58.101562 111 C 87.972656 111 112.265625 86.6875 112.265625 56.789062 C 112.351562 39.863281 104.453125 24.65625 92.179688 14.691406 Z M 1.875 54.210938 C 1.875 24.742188 25.738281 0.859375 55.179688 0.859375 C 84.625 0.859375 108.488281 24.742188 108.488281 54.210938 C 108.488281 83.679688 84.625 107.5625 55.179688 107.5625 C 25.738281 107.5625 1.875 83.59375 1.875 54.210938 Z M 1.875 54.210938 " fill-opacity="1" fill-rule="nonzero"/></g><g clip-path="url(#id2)"><path fill="#131212" d="M 77.570312 74.636719 L 34.867188 74.636719 C 34.863281 74.636719 34.863281 74.636719 34.859375 74.636719 C 33.769531 74.632812 32.808594 74.074219 32.351562 73.179688 C 31.949219 72.390625 32.023438 71.488281 32.554688 70.757812 L 40.578125 59.742188 C 41.4375 58.5625 42.738281 58.589844 43.890625 58.609375 C 44.054688 58.609375 44.226562 58.613281 44.398438 58.613281 C 44.75 58.613281 45.035156 58.898438 45.035156 59.25 C 45.035156 59.601562 44.75 59.886719 44.398438 59.886719 C 44.21875 59.886719 44.039062 59.882812 43.863281 59.882812 C 42.722656 59.859375 42.058594 59.878906 41.609375 60.488281 L 33.585938 71.507812 C 33.25 71.96875 33.382812 72.390625 33.488281 72.601562 C 33.679688 72.96875 34.140625 73.363281 34.875 73.363281 L 77.570312 73.363281 C 78.308594 73.363281 78.769531 72.96875 78.957031 72.601562 C 79.066406 72.390625 79.195312 71.96875 78.859375 71.507812 L 70.835938 60.488281 C 70.390625 59.882812 69.773438 59.863281 68.632812 59.882812 C 68.464844 59.882812 68.300781 59.886719 68.128906 59.886719 C 67.773438 59.886719 67.488281 59.601562 67.488281 59.25 C 67.488281 58.898438 67.773438 58.613281 68.128906 58.613281 C 68.292969 58.613281 68.449219 58.613281 68.613281 58.609375 C 69.785156 58.589844 71.011719 58.566406 71.867188 59.742188 L 79.890625 70.757812 C 80.421875 71.488281 80.496094 72.390625 80.09375 73.179688 C 79.636719 74.078125 78.667969 74.636719 77.570312 74.636719 " fill-opacity="1" fill-rule="nonzero"/></g><path fill="#131212" d="M 56.175781 53.277344 C 55.824219 53.277344 55.539062 52.992188 55.539062 52.636719 L 55.539062 51.890625 C 55.539062 50.859375 54.699219 50.019531 53.664062 50.019531 L 50.511719 50.019531 C 49.023438 50.019531 48.246094 48.84375 48.246094 47.6875 C 48.246094 47.09375 48.445312 46.535156 48.804688 46.113281 C 49.21875 45.628906 49.828125 45.363281 50.511719 45.363281 L 62.359375 45.363281 C 62.90625 45.363281 63.351562 44.917969 63.351562 44.371094 C 63.351562 43.824219 62.90625 43.378906 62.359375 43.378906 L 58.691406 43.378906 C 56.953125 43.378906 55.539062 41.972656 55.539062 40.238281 L 55.539062 38.519531 C 55.539062 38.167969 55.828125 37.882812 56.175781 37.882812 C 56.527344 37.882812 56.816406 38.167969 56.816406 38.519531 L 56.816406 40.238281 C 56.816406 41.265625 57.65625 42.105469 58.691406 42.105469 L 62.359375 42.105469 C 63.609375 42.105469 64.628906 43.125 64.628906 44.371094 C 64.628906 45.621094 63.609375 46.636719 62.359375 46.636719 L 50.511719 46.636719 C 50.195312 46.636719 49.945312 46.738281 49.773438 46.941406 C 49.613281 47.128906 49.519531 47.398438 49.519531 47.6875 C 49.519531 47.796875 49.546875 48.746094 50.511719 48.746094 L 53.664062 48.746094 C 55.402344 48.746094 56.816406 50.15625 56.816406 51.890625 L 56.816406 52.636719 C 56.816406 52.992188 56.527344 53.277344 56.175781 53.277344 " fill-opacity="1" fill-rule="nonzero"/><path fill="#131212" d="M 49.988281 22.695312 C 49.570312 22.695312 49.230469 23.035156 49.230469 23.453125 L 49.230469 32.542969 C 49.230469 32.960938 49.570312 33.300781 49.988281 33.300781 L 62.457031 33.300781 C 62.878906 33.300781 63.214844 32.960938 63.214844 32.542969 L 63.214844 23.453125 C 63.214844 23.035156 62.878906 22.695312 62.457031 22.695312 Z M 62.457031 34.574219 L 49.988281 34.574219 C 48.867188 34.574219 47.957031 33.660156 47.957031 32.542969 L 47.957031 23.453125 C 47.957031 22.332031 48.867188 21.421875 49.988281 21.421875 L 62.457031 21.421875 C 63.578125 21.421875 64.492188 22.332031 64.492188 23.453125 L 64.492188 32.542969 C 64.492188 33.660156 63.578125 34.574219 62.457031 34.574219 " fill-opacity="1" fill-rule="nonzero"/><g clip-path="url(#id3)"><path fill="#131212" d="M 77.207031 49.199219 L 71.902344 49.199219 C 71.550781 49.199219 71.265625 48.914062 71.265625 48.5625 C 71.265625 48.210938 71.550781 47.925781 71.902344 47.925781 L 77.207031 47.925781 C 78.738281 47.925781 80.03125 47.011719 80.03125 45.921875 L 80.03125 20.914062 C 80.03125 19.828125 78.738281 18.910156 77.207031 18.910156 L 35.242188 18.910156 C 33.710938 18.910156 32.414062 19.828125 32.414062 20.914062 L 32.414062 45.921875 C 32.414062 47.011719 33.710938 47.925781 35.242188 47.925781 L 40.546875 47.925781 C 40.898438 47.925781 41.183594 48.210938 41.183594 48.5625 C 41.183594 48.914062 40.898438 49.199219 40.546875 49.199219 L 35.242188 49.199219 C 32.980469 49.199219 31.140625 47.730469 31.140625 45.921875 L 31.140625 20.914062 C 31.140625 19.105469 32.980469 17.636719 35.242188 17.636719 L 77.207031 17.636719 C 79.46875 17.636719 81.308594 19.105469 81.308594 20.914062 L 81.308594 45.921875 C 81.308594 47.730469 79.46875 49.199219 77.207031 49.199219 " fill-opacity="1" fill-rule="nonzero"/></g><path fill="#131212" d="M 59.699219 39.15625 L 52.746094 39.15625 C 51.984375 39.15625 51.367188 38.539062 51.367188 37.78125 L 51.367188 33.933594 C 51.367188 33.585938 51.652344 33.300781 52.003906 33.300781 C 52.355469 33.300781 52.640625 33.585938 52.640625 33.933594 L 52.640625 37.78125 C 52.640625 37.835938 52.6875 37.882812 52.746094 37.882812 L 59.699219 37.882812 C 59.757812 37.882812 59.804688 37.835938 59.804688 37.78125 L 59.804688 33.933594 C 59.804688 33.585938 60.089844 33.300781 60.445312 33.300781 C 60.796875 33.300781 61.082031 33.585938 61.082031 33.933594 L 61.082031 37.78125 C 61.082031 38.539062 60.460938 39.15625 59.699219 39.15625 " fill-opacity="1" fill-rule="nonzero"/><path fill="#131212" d="M 76.136719 26.695312 L 63.855469 26.695312 C 63.5 26.695312 63.214844 26.410156 63.214844 26.058594 C 63.214844 25.707031 63.5 25.421875 63.855469 25.421875 L 76.136719 25.421875 C 76.484375 25.421875 76.773438 25.707031 76.773438 26.058594 C 76.773438 26.410156 76.484375 26.695312 76.136719 26.695312 " fill-opacity="1" fill-rule="nonzero"/><path fill="#131212" d="M 76.136719 30.574219 L 63.855469 30.574219 C 63.5 30.574219 63.214844 30.289062 63.214844 29.9375 C 63.214844 29.585938 63.5 29.300781 63.855469 29.300781 L 76.136719 29.300781 C 76.484375 29.300781 76.773438 29.585938 76.773438 29.9375 C 76.773438 30.289062 76.484375 30.574219 76.136719 30.574219 " fill-opacity="1" fill-rule="nonzero"/><path fill="#131212" d="M 48.59375 26.695312 L 36.242188 26.695312 C 35.890625 26.695312 35.605469 26.410156 35.605469 26.058594 C 35.605469 25.707031 35.890625 25.421875 36.242188 25.421875 L 48.59375 25.421875 C 48.945312 25.421875 49.230469 25.707031 49.230469 26.058594 C 49.230469 26.410156 48.945312 26.695312 48.59375 26.695312 " fill-opacity="1" fill-rule="nonzero"/><path fill="#131212" d="M 48.59375 30.574219 L 36.242188 30.574219 C 35.890625 30.574219 35.605469 30.289062 35.605469 29.9375 C 35.605469 29.585938 35.890625 29.300781 36.242188 29.300781 L 48.59375 29.300781 C 48.945312 29.300781 49.230469 29.585938 49.230469 29.9375 C 49.230469 30.289062 48.945312 30.574219 48.59375 30.574219 " fill-opacity="1" fill-rule="nonzero"/><path fill="#131212" d="M 47.636719 66.25 L 55.585938 69.515625 L 55.585938 60.183594 L 47.636719 56.921875 Z M 56.222656 71.097656 C 56.140625 71.097656 56.058594 71.082031 55.980469 71.050781 L 46.757812 67.265625 C 46.519531 67.167969 46.363281 66.933594 46.363281 66.675781 L 46.363281 55.972656 C 46.363281 55.761719 46.46875 55.558594 46.644531 55.441406 C 46.820312 55.324219 47.046875 55.300781 47.242188 55.382812 L 56.464844 59.167969 C 56.707031 59.265625 56.863281 59.5 56.863281 59.757812 L 56.863281 70.460938 C 56.863281 70.675781 56.753906 70.875 56.578125 70.992188 C 56.472656 71.0625 56.347656 71.097656 56.222656 71.097656 " fill-opacity="1" fill-rule="nonzero"/><path fill="#131212" d="M 56.222656 71.097656 C 55.972656 71.097656 55.734375 70.953125 55.632812 70.703125 C 55.5 70.378906 55.65625 70.007812 55.980469 69.875 L 64.808594 66.25 L 64.808594 56.921875 L 56.464844 60.34375 C 56.140625 60.476562 55.769531 60.324219 55.632812 60 C 55.5 59.671875 55.65625 59.300781 55.980469 59.167969 L 65.203125 55.382812 C 65.402344 55.300781 65.625 55.324219 65.804688 55.441406 C 65.980469 55.558594 66.085938 55.761719 66.085938 55.972656 L 66.085938 66.675781 C 66.085938 66.933594 65.929688 67.167969 65.691406 67.265625 L 56.464844 71.050781 C 56.386719 71.085938 56.304688 71.097656 56.222656 71.097656 " fill-opacity="1" fill-rule="nonzero"/><path fill="#131212" d="M 65.445312 56.609375 C 65.375 56.609375 65.300781 56.59375 65.230469 56.570312 L 56.222656 53.316406 L 47.21875 56.570312 C 46.886719 56.691406 46.519531 56.519531 46.402344 56.1875 C 46.28125 55.859375 46.453125 55.492188 46.78125 55.371094 L 56.007812 52.039062 C 56.144531 51.992188 56.300781 51.992188 56.441406 52.039062 L 65.664062 55.371094 C 65.996094 55.492188 66.167969 55.859375 66.046875 56.1875 C 65.953125 56.449219 65.707031 56.609375 65.445312 56.609375 " fill-opacity="1" fill-rule="nonzero"/><g fill="#000000" fill-opacity="1"><g transform="translate(30.673827, 92.58792)"><g><path d="M 0.71875 0 C 0.6875 0 0.65625 -0.0078125 0.625 -0.03125 C 0.601562 -0.0625 0.59375 -0.09375 0.59375 -0.125 L 0.59375 -7.5625 C 0.59375 -7.601562 0.601562 -7.632812 0.625 -7.65625 C 0.65625 -7.6875 0.6875 -7.703125 0.71875 -7.703125 L 1.734375 -7.703125 C 1.773438 -7.703125 1.804688 -7.6875 1.828125 -7.65625 C 1.859375 -7.632812 1.875 -7.601562 1.875 -7.5625 L 1.875 -0.125 C 1.875 -0.09375 1.859375 -0.0625 1.828125 -0.03125 C 1.804688 -0.0078125 1.773438 0 1.734375 0 Z M 0.71875 0 "/></g></g></g><g fill="#000000" fill-opacity="1"><g transform="translate(33.137391, 92.58792)"><g><path d="M 5.40625 -5.703125 C 5.875 -5.703125 6.234375 -5.535156 6.484375 -5.203125 C 6.734375 -4.867188 6.859375 -4.40625 6.859375 -3.8125 L 6.859375 -0.125 C 6.859375 -0.09375 6.84375 -0.0625 6.8125 -0.03125 C 6.789062 -0.0078125 6.757812 0 6.71875 0 L 5.71875 0 C 5.6875 0 5.65625 -0.0078125 5.625 -0.03125 C 5.601562 -0.0625 5.59375 -0.09375 5.59375 -0.125 L 5.59375 -3.734375 C 5.59375 -4.003906 5.535156 -4.21875 5.421875 -4.375 C 5.316406 -4.53125 5.164062 -4.609375 4.96875 -4.609375 C 4.757812 -4.609375 4.597656 -4.53125 4.484375 -4.375 C 4.367188 -4.21875 4.3125 -4.003906 4.3125 -3.734375 L 4.3125 -0.125 C 4.3125 -0.09375 4.296875 -0.0625 4.265625 -0.03125 C 4.242188 -0.0078125 4.21875 0 4.1875 0 L 3.171875 0 C 3.140625 0 3.109375 -0.0078125 3.078125 -0.03125 C 3.054688 -0.0625 3.046875 -0.09375 3.046875 -0.125 L 3.046875 -3.734375 C 3.046875 -4.003906 2.988281 -4.21875 2.875 -4.375 C 2.757812 -4.53125 2.613281 -4.609375 2.4375 -4.609375 C 2.226562 -4.609375 2.0625 -4.53125 1.9375 -4.375 C 1.820312 -4.21875 1.765625 -4.003906 1.765625 -3.734375 L 1.765625 -0.125 C 1.765625 -0.09375 1.75 -0.0625 1.71875 -0.03125 C 1.695312 -0.0078125 1.671875 0 1.640625 0 L 0.640625 0 C 0.597656 0 0.5625 -0.0078125 0.53125 -0.03125 C 0.507812 -0.0625 0.5 -0.09375 0.5 -0.125 L 0.5 -5.484375 C 0.5 -5.523438 0.507812 -5.554688 0.53125 -5.578125 C 0.5625 -5.609375 0.597656 -5.625 0.640625 -5.625 L 1.640625 -5.625 C 1.671875 -5.625 1.695312 -5.609375 1.71875 -5.578125 C 1.75 -5.554688 1.765625 -5.523438 1.765625 -5.484375 L 1.765625 -5.3125 C 1.765625 -5.289062 1.769531 -5.273438 1.78125 -5.265625 C 1.800781 -5.265625 1.820312 -5.273438 1.84375 -5.296875 C 1.988281 -5.441406 2.148438 -5.546875 2.328125 -5.609375 C 2.515625 -5.671875 2.695312 -5.703125 2.875 -5.703125 C 3.414062 -5.703125 3.8125 -5.472656 4.0625 -5.015625 C 4.09375 -4.984375 4.128906 -4.992188 4.171875 -5.046875 C 4.316406 -5.285156 4.5 -5.453125 4.71875 -5.546875 C 4.945312 -5.648438 5.175781 -5.703125 5.40625 -5.703125 Z M 5.40625 -5.703125 "/></g></g></g><g fill="#000000" fill-opacity="1"><g transform="translate(40.451086, 92.58792)"><g><path d="M 2.875 -5.703125 C 3.375 -5.703125 3.757812 -5.539062 4.03125 -5.21875 C 4.300781 -4.90625 4.4375 -4.472656 4.4375 -3.921875 L 4.4375 -1.703125 C 4.4375 -1.140625 4.300781 -0.695312 4.03125 -0.375 C 3.757812 -0.0625 3.375 0.09375 2.875 0.09375 C 2.707031 0.09375 2.535156 0.0625 2.359375 0 C 2.179688 -0.0625 2.023438 -0.164062 1.890625 -0.3125 C 1.878906 -0.320312 1.863281 -0.320312 1.84375 -0.3125 C 1.832031 -0.3125 1.828125 -0.300781 1.828125 -0.28125 L 1.828125 1.953125 C 1.828125 1.984375 1.8125 2.007812 1.78125 2.03125 C 1.757812 2.0625 1.726562 2.078125 1.6875 2.078125 L 0.6875 2.078125 C 0.644531 2.078125 0.609375 2.0625 0.578125 2.03125 C 0.554688 2.007812 0.546875 1.984375 0.546875 1.953125 L 0.546875 -5.484375 C 0.546875 -5.523438 0.554688 -5.554688 0.578125 -5.578125 C 0.609375 -5.609375 0.644531 -5.625 0.6875 -5.625 L 1.6875 -5.625 C 1.726562 -5.625 1.757812 -5.609375 1.78125 -5.578125 C 1.8125 -5.554688 1.828125 -5.523438 1.828125 -5.484375 L 1.828125 -5.359375 C 1.828125 -5.335938 1.832031 -5.320312 1.84375 -5.3125 C 1.863281 -5.3125 1.882812 -5.328125 1.90625 -5.359375 C 2.164062 -5.585938 2.488281 -5.703125 2.875 -5.703125 Z M 3.171875 -3.828125 C 3.171875 -4.066406 3.109375 -4.257812 2.984375 -4.40625 C 2.859375 -4.550781 2.691406 -4.625 2.484375 -4.625 C 2.285156 -4.625 2.125 -4.550781 2 -4.40625 C 1.882812 -4.257812 1.828125 -4.066406 1.828125 -3.828125 L 1.828125 -1.796875 C 1.828125 -1.554688 1.882812 -1.363281 2 -1.21875 C 2.125 -1.082031 2.285156 -1.015625 2.484375 -1.015625 C 2.691406 -1.015625 2.859375 -1.082031 2.984375 -1.21875 C 3.109375 -1.363281 3.171875 -1.554688 3.171875 -1.796875 Z M 3.171875 -3.828125 "/></g></g></g><g fill="#000000" fill-opacity="1"><g transform="translate(45.301224, 92.58792)"><g><path d="M 2.8125 -5.6875 C 3.007812 -5.6875 3.160156 -5.648438 3.265625 -5.578125 C 3.328125 -5.535156 3.347656 -5.476562 3.328125 -5.40625 L 3.15625 -4.390625 C 3.144531 -4.296875 3.09375 -4.269531 3 -4.3125 C 2.894531 -4.34375 2.800781 -4.359375 2.71875 -4.359375 C 2.625 -4.359375 2.539062 -4.347656 2.46875 -4.328125 C 2.269531 -4.296875 2.101562 -4.175781 1.96875 -3.96875 C 1.84375 -3.769531 1.78125 -3.53125 1.78125 -3.25 L 1.78125 -0.140625 C 1.78125 -0.109375 1.765625 -0.078125 1.734375 -0.046875 C 1.710938 -0.0234375 1.6875 -0.015625 1.65625 -0.015625 L 0.640625 -0.015625 C 0.597656 -0.015625 0.5625 -0.0234375 0.53125 -0.046875 C 0.507812 -0.078125 0.5 -0.109375 0.5 -0.140625 L 0.5 -5.484375 C 0.5 -5.523438 0.507812 -5.554688 0.53125 -5.578125 C 0.5625 -5.609375 0.597656 -5.625 0.640625 -5.625 L 1.65625 -5.625 C 1.6875 -5.625 1.710938 -5.609375 1.734375 -5.578125 C 1.765625 -5.554688 1.78125 -5.523438 1.78125 -5.484375 L 1.78125 -4.984375 C 1.78125 -4.953125 1.785156 -4.929688 1.796875 -4.921875 C 1.816406 -4.921875 1.832031 -4.9375 1.84375 -4.96875 C 2.039062 -5.445312 2.363281 -5.6875 2.8125 -5.6875 Z M 2.8125 -5.6875 "/></g></g></g><g fill="#000000" fill-opacity="1"><g transform="translate(48.743612, 92.58792)"><g><path d="M 4.3125 -2.46875 C 4.3125 -2.4375 4.296875 -2.40625 4.265625 -2.375 C 4.242188 -2.351562 4.21875 -2.34375 4.1875 -2.34375 L 1.75 -2.34375 C 1.707031 -2.34375 1.6875 -2.320312 1.6875 -2.28125 L 1.6875 -1.796875 C 1.6875 -1.566406 1.75 -1.378906 1.875 -1.234375 C 2 -1.085938 2.160156 -1.015625 2.359375 -1.015625 C 2.535156 -1.015625 2.679688 -1.066406 2.796875 -1.171875 C 2.921875 -1.273438 3 -1.410156 3.03125 -1.578125 C 3.050781 -1.648438 3.097656 -1.6875 3.171875 -1.6875 L 4.15625 -1.65625 C 4.195312 -1.65625 4.226562 -1.640625 4.25 -1.609375 C 4.28125 -1.585938 4.289062 -1.550781 4.28125 -1.5 C 4.226562 -0.988281 4.039062 -0.59375 3.71875 -0.3125 C 3.394531 -0.0390625 2.941406 0.09375 2.359375 0.09375 C 1.765625 0.09375 1.289062 -0.0664062 0.9375 -0.390625 C 0.59375 -0.710938 0.421875 -1.144531 0.421875 -1.6875 L 0.421875 -3.921875 C 0.421875 -4.460938 0.59375 -4.894531 0.9375 -5.21875 C 1.289062 -5.539062 1.765625 -5.703125 2.359375 -5.703125 C 2.960938 -5.703125 3.4375 -5.539062 3.78125 -5.21875 C 4.132812 -4.894531 4.3125 -4.460938 4.3125 -3.921875 Z M 2.359375 -4.609375 C 2.160156 -4.609375 2 -4.535156 1.875 -4.390625 C 1.75 -4.242188 1.6875 -4.054688 1.6875 -3.828125 L 1.6875 -3.328125 C 1.6875 -3.296875 1.707031 -3.28125 1.75 -3.28125 L 2.984375 -3.28125 C 3.023438 -3.28125 3.046875 -3.296875 3.046875 -3.328125 L 3.046875 -3.828125 C 3.046875 -4.066406 2.984375 -4.253906 2.859375 -4.390625 C 2.734375 -4.535156 2.566406 -4.609375 2.359375 -4.609375 Z M 2.359375 -4.609375 "/></g></g></g><g fill="#000000" fill-opacity="1"><g transform="translate(53.428777, 92.58792)"><g><path d="M 2.234375 0.0625 C 1.648438 0.0625 1.1875 -0.0703125 0.84375 -0.34375 C 0.5 -0.625 0.328125 -1.003906 0.328125 -1.484375 L 0.328125 -1.5625 C 0.328125 -1.59375 0.335938 -1.617188 0.359375 -1.640625 C 0.390625 -1.671875 0.425781 -1.6875 0.46875 -1.6875 L 1.40625 -1.6875 C 1.445312 -1.6875 1.476562 -1.671875 1.5 -1.640625 C 1.53125 -1.617188 1.546875 -1.59375 1.546875 -1.5625 L 1.546875 -1.5 C 1.546875 -1.332031 1.613281 -1.1875 1.75 -1.0625 C 1.882812 -0.945312 2.050781 -0.890625 2.25 -0.890625 C 2.4375 -0.890625 2.582031 -0.941406 2.6875 -1.046875 C 2.800781 -1.160156 2.859375 -1.300781 2.859375 -1.46875 C 2.859375 -1.613281 2.8125 -1.734375 2.71875 -1.828125 C 2.625 -1.929688 2.519531 -2.007812 2.40625 -2.0625 C 2.300781 -2.113281 2.101562 -2.203125 1.8125 -2.328125 C 1.394531 -2.484375 1.050781 -2.6875 0.78125 -2.9375 C 0.519531 -3.1875 0.390625 -3.554688 0.390625 -4.046875 C 0.390625 -4.554688 0.550781 -4.957031 0.875 -5.25 C 1.195312 -5.539062 1.640625 -5.6875 2.203125 -5.6875 C 2.773438 -5.6875 3.226562 -5.535156 3.5625 -5.234375 C 3.894531 -4.929688 4.0625 -4.519531 4.0625 -4 C 4.0625 -3.96875 4.046875 -3.9375 4.015625 -3.90625 C 3.992188 -3.882812 3.960938 -3.875 3.921875 -3.875 L 3 -3.875 C 2.96875 -3.875 2.9375 -3.882812 2.90625 -3.90625 C 2.882812 -3.9375 2.875 -3.96875 2.875 -4 L 2.875 -4.0625 C 2.875 -4.238281 2.8125 -4.382812 2.6875 -4.5 C 2.570312 -4.625 2.421875 -4.6875 2.234375 -4.6875 C 2.046875 -4.6875 1.894531 -4.625 1.78125 -4.5 C 1.664062 -4.382812 1.609375 -4.238281 1.609375 -4.0625 C 1.609375 -3.925781 1.648438 -3.8125 1.734375 -3.71875 C 1.828125 -3.625 1.925781 -3.546875 2.03125 -3.484375 C 2.144531 -3.429688 2.328125 -3.351562 2.578125 -3.25 C 2.890625 -3.125 3.148438 -3 3.359375 -2.875 C 3.566406 -2.75 3.75 -2.578125 3.90625 -2.359375 C 4.0625 -2.140625 4.140625 -1.863281 4.140625 -1.53125 C 4.140625 -1.039062 3.96875 -0.648438 3.625 -0.359375 C 3.28125 -0.078125 2.816406 0.0625 2.234375 0.0625 Z M 2.234375 0.0625 "/></g></g></g><g fill="#000000" fill-opacity="1"><g transform="translate(57.805999, 92.58792)"><g><path d="M 1.171875 -6.390625 C 0.953125 -6.390625 0.765625 -6.460938 0.609375 -6.609375 C 0.460938 -6.753906 0.390625 -6.941406 0.390625 -7.171875 C 0.390625 -7.398438 0.460938 -7.585938 0.609375 -7.734375 C 0.765625 -7.878906 0.953125 -7.953125 1.171875 -7.953125 C 1.398438 -7.953125 1.585938 -7.878906 1.734375 -7.734375 C 1.878906 -7.585938 1.953125 -7.398438 1.953125 -7.171875 C 1.953125 -6.941406 1.875 -6.753906 1.71875 -6.609375 C 1.570312 -6.460938 1.390625 -6.390625 1.171875 -6.390625 Z M 0.6875 0 C 0.644531 0 0.609375 -0.0078125 0.578125 -0.03125 C 0.554688 -0.0625 0.546875 -0.09375 0.546875 -0.125 L 0.546875 -5.484375 C 0.546875 -5.523438 0.554688 -5.554688 0.578125 -5.578125 C 0.609375 -5.609375 0.644531 -5.625 0.6875 -5.625 L 1.6875 -5.625 C 1.726562 -5.625 1.757812 -5.609375 1.78125 -5.578125 C 1.8125 -5.554688 1.828125 -5.523438 1.828125 -5.484375 L 1.828125 -0.125 C 1.828125 -0.09375 1.8125 -0.0625 1.78125 -0.03125 C 1.757812 -0.0078125 1.726562 0 1.6875 0 Z M 0.6875 0 "/></g></g></g><g fill="#000000" fill-opacity="1"><g transform="translate(60.170577, 92.58792)"><g><path d="M 2.375 0.09375 C 1.769531 0.09375 1.289062 -0.0664062 0.9375 -0.390625 C 0.59375 -0.710938 0.421875 -1.148438 0.421875 -1.703125 L 0.421875 -3.921875 C 0.421875 -4.460938 0.59375 -4.894531 0.9375 -5.21875 C 1.289062 -5.539062 1.769531 -5.703125 2.375 -5.703125 C 2.976562 -5.703125 3.457031 -5.539062 3.8125 -5.21875 C 4.164062 -4.894531 4.34375 -4.460938 4.34375 -3.921875 L 4.34375 -1.703125 C 4.34375 -1.148438 4.164062 -0.710938 3.8125 -0.390625 C 3.46875 -0.0664062 2.988281 0.09375 2.375 0.09375 Z M 2.375 -1.015625 C 2.582031 -1.015625 2.75 -1.085938 2.875 -1.234375 C 3 -1.378906 3.0625 -1.566406 3.0625 -1.796875 L 3.0625 -3.828125 C 3.0625 -4.054688 3 -4.242188 2.875 -4.390625 C 2.75 -4.535156 2.582031 -4.609375 2.375 -4.609375 C 2.164062 -4.609375 2 -4.535156 1.875 -4.390625 C 1.75 -4.253906 1.6875 -4.066406 1.6875 -3.828125 L 1.6875 -1.796875 C 1.6875 -1.566406 1.75 -1.378906 1.875 -1.234375 C 2 -1.085938 2.164062 -1.015625 2.375 -1.015625 Z M 1.875 -6.328125 C 1.820312 -6.328125 1.785156 -6.335938 1.765625 -6.359375 C 1.742188 -6.390625 1.742188 -6.429688 1.765625 -6.484375 L 2.421875 -7.609375 C 2.453125 -7.671875 2.503906 -7.703125 2.578125 -7.703125 L 3.375 -7.703125 C 3.4375 -7.703125 3.472656 -7.679688 3.484375 -7.640625 C 3.503906 -7.609375 3.5 -7.570312 3.46875 -7.53125 L 2.65625 -6.40625 C 2.613281 -6.351562 2.5625 -6.328125 2.5 -6.328125 Z M 1.875 -6.328125 "/></g></g></g><g fill="#000000" fill-opacity="1"><g transform="translate(64.921728, 92.58792)"><g><path d="M 2.921875 -5.703125 C 3.390625 -5.703125 3.742188 -5.539062 3.984375 -5.21875 C 4.234375 -4.90625 4.359375 -4.457031 4.359375 -3.875 L 4.359375 -0.125 C 4.359375 -0.09375 4.347656 -0.0625 4.328125 -0.03125 C 4.304688 -0.0078125 4.273438 0 4.234375 0 L 3.21875 0 C 3.1875 0 3.15625 -0.0078125 3.125 -0.03125 C 3.101562 -0.0625 3.09375 -0.09375 3.09375 -0.125 L 3.09375 -3.765625 C 3.09375 -4.035156 3.035156 -4.242188 2.921875 -4.390625 C 2.816406 -4.535156 2.660156 -4.609375 2.453125 -4.609375 C 2.242188 -4.609375 2.078125 -4.53125 1.953125 -4.375 C 1.835938 -4.21875 1.78125 -4.003906 1.78125 -3.734375 L 1.78125 -0.125 C 1.78125 -0.09375 1.765625 -0.0625 1.734375 -0.03125 C 1.710938 -0.0078125 1.6875 0 1.65625 0 L 0.640625 0 C 0.597656 0 0.5625 -0.0078125 0.53125 -0.03125 C 0.507812 -0.0625 0.5 -0.09375 0.5 -0.125 L 0.5 -5.484375 C 0.5 -5.523438 0.507812 -5.554688 0.53125 -5.578125 C 0.5625 -5.609375 0.597656 -5.625 0.640625 -5.625 L 1.65625 -5.625 C 1.6875 -5.625 1.710938 -5.609375 1.734375 -5.578125 C 1.765625 -5.554688 1.78125 -5.523438 1.78125 -5.484375 L 1.78125 -5.265625 C 1.78125 -5.242188 1.789062 -5.226562 1.8125 -5.21875 C 1.832031 -5.21875 1.851562 -5.234375 1.875 -5.265625 C 2.125 -5.554688 2.472656 -5.703125 2.921875 -5.703125 Z M 2.921875 -5.703125 "/></g></g></g><g fill="#000000" fill-opacity="1"><g transform="translate(69.74987, 92.58792)"><g/></g></g><g fill="#000000" fill-opacity="1"><g transform="translate(71.949476, 92.58792)"><g><path d="M 4.15625 -3.375 C 4.21875 -3.082031 4.25 -2.753906 4.25 -2.390625 C 4.25 -2.035156 4.226562 -1.726562 4.1875 -1.46875 C 4.09375 -0.96875 3.890625 -0.582031 3.578125 -0.3125 C 3.265625 -0.0390625 2.84375 0.09375 2.3125 0.09375 C 1.75 0.09375 1.289062 -0.0507812 0.9375 -0.34375 C 0.59375 -0.644531 0.398438 -1.054688 0.359375 -1.578125 C 0.335938 -1.734375 0.320312 -1.96875 0.3125 -2.28125 C 0.3125 -2.363281 0.351562 -2.40625 0.4375 -2.40625 L 1.453125 -2.40625 C 1.535156 -2.40625 1.578125 -2.363281 1.578125 -2.28125 C 1.597656 -2.03125 1.613281 -1.84375 1.625 -1.71875 C 1.664062 -1.488281 1.742188 -1.3125 1.859375 -1.1875 C 1.972656 -1.070312 2.125 -1.015625 2.3125 -1.015625 C 2.488281 -1.015625 2.632812 -1.070312 2.75 -1.1875 C 2.863281 -1.300781 2.941406 -1.460938 2.984375 -1.671875 C 3.015625 -1.890625 3.03125 -2.175781 3.03125 -2.53125 C 3.03125 -2.90625 3.003906 -3.21875 2.953125 -3.46875 C 2.910156 -3.65625 2.832031 -3.800781 2.71875 -3.90625 C 2.613281 -4.007812 2.476562 -4.0625 2.3125 -4.0625 C 2.195312 -4.0625 2.097656 -4.023438 2.015625 -3.953125 C 1.972656 -3.929688 1.9375 -3.921875 1.90625 -3.921875 C 1.894531 -3.921875 1.867188 -3.929688 1.828125 -3.953125 L 1.3125 -4.484375 C 1.28125 -4.515625 1.265625 -4.550781 1.265625 -4.59375 C 1.265625 -4.613281 1.273438 -4.640625 1.296875 -4.671875 L 2.671875 -6.546875 C 2.679688 -6.554688 2.679688 -6.566406 2.671875 -6.578125 C 2.660156 -6.597656 2.644531 -6.609375 2.625 -6.609375 L 0.53125 -6.609375 C 0.5 -6.609375 0.46875 -6.617188 0.4375 -6.640625 C 0.414062 -6.671875 0.40625 -6.707031 0.40625 -6.75 L 0.40625 -7.5625 C 0.40625 -7.601562 0.414062 -7.632812 0.4375 -7.65625 C 0.46875 -7.6875 0.5 -7.703125 0.53125 -7.703125 L 4.109375 -7.703125 C 4.140625 -7.703125 4.164062 -7.6875 4.1875 -7.65625 C 4.21875 -7.632812 4.234375 -7.601562 4.234375 -7.5625 L 4.234375 -6.703125 C 4.234375 -6.648438 4.21875 -6.59375 4.1875 -6.53125 L 2.921875 -4.8125 C 2.890625 -4.769531 2.898438 -4.742188 2.953125 -4.734375 C 3.253906 -4.703125 3.507812 -4.5625 3.71875 -4.3125 C 3.9375 -4.0625 4.082031 -3.75 4.15625 -3.375 Z M 4.15625 -3.375 "/></g></g></g><g fill="#000000" fill-opacity="1"><g transform="translate(76.634641, 92.58792)"><g><path d="M 0.71875 0 C 0.6875 0 0.65625 -0.0078125 0.625 -0.03125 C 0.601562 -0.0625 0.59375 -0.09375 0.59375 -0.125 L 0.59375 -7.5625 C 0.59375 -7.601562 0.601562 -7.632812 0.625 -7.65625 C 0.65625 -7.6875 0.6875 -7.703125 0.71875 -7.703125 L 2.609375 -7.703125 C 3.234375 -7.703125 3.734375 -7.507812 4.109375 -7.125 C 4.492188 -6.75 4.6875 -6.238281 4.6875 -5.59375 L 4.6875 -2.09375 C 4.6875 -1.457031 4.492188 -0.945312 4.109375 -0.5625 C 3.734375 -0.1875 3.234375 0 2.609375 0 Z M 1.875 -1.15625 C 1.875 -1.113281 1.890625 -1.09375 1.921875 -1.09375 L 2.578125 -1.109375 C 2.828125 -1.109375 3.023438 -1.203125 3.171875 -1.390625 C 3.328125 -1.585938 3.40625 -1.847656 3.40625 -2.171875 L 3.40625 -5.515625 C 3.40625 -5.847656 3.328125 -6.109375 3.171875 -6.296875 C 3.023438 -6.492188 2.828125 -6.59375 2.578125 -6.59375 L 1.921875 -6.59375 C 1.890625 -6.59375 1.875 -6.578125 1.875 -6.546875 Z M 1.875 -1.15625 "/></g></g></g></svg>