<svg xmlns="http://www.w3.org/2000/svg" xmlns:xlink="http://www.w3.org/1999/xlink" width="250" zoomAndPan="magnify" viewBox="0 0 187.5 112.499997" height="150" preserveAspectRatio="xMidYMid meet" version="1.0"><defs><g/><clipPath id="id1"><path d="M 0.164062 0 L 111.71875 0 L 111.71875 110.804688 L 0.164062 110.804688 Z M 0.164062 0 " clip-rule="nonzero"/></clipPath><clipPath id="id2"><path d="M 26.6875 19.472656 L 85 19.472656 L 85 68.882812 L 26.6875 68.882812 Z M 26.6875 19.472656 " clip-rule="nonzero"/></clipPath><clipPath id="id3"><path d="M 120.484375 38.9375 L 186.835938 38.9375 L 186.835938 73.375 L 120.484375 73.375 Z M 120.484375 38.9375 " clip-rule="nonzero"/></clipPath></defs><path fill="#03989e" d="M 107.65625 54.117188 C 107.65625 55.859375 107.570312 57.601562 107.398438 59.335938 C 107.230469 61.070312 106.972656 62.792969 106.632812 64.503906 C 106.292969 66.214844 105.871094 67.90625 105.363281 69.574219 C 104.859375 71.246094 104.273438 72.882812 103.605469 74.496094 C 102.9375 76.109375 102.195312 77.683594 101.371094 79.222656 C 100.550781 80.757812 99.65625 82.253906 98.6875 83.703125 C 97.71875 85.152344 96.683594 86.554688 95.578125 87.902344 C 94.472656 89.25 93.300781 90.539062 92.070312 91.773438 C 90.835938 93.007812 89.546875 94.175781 88.199219 95.285156 C 86.851562 96.390625 85.457031 97.429688 84.007812 98.398438 C 82.558594 99.367188 81.0625 100.261719 79.527344 101.085938 C 77.988281 101.90625 76.417969 102.652344 74.804688 103.320312 C 73.195312 103.988281 71.558594 104.574219 69.890625 105.078125 C 68.222656 105.585938 66.53125 106.007812 64.824219 106.351562 C 63.113281 106.691406 61.394531 106.945312 59.660156 107.117188 C 57.925781 107.289062 56.183594 107.375 54.441406 107.375 C 52.699219 107.375 50.960938 107.289062 49.226562 107.117188 C 47.492188 106.945312 45.769531 106.691406 44.0625 106.351562 C 42.351562 106.007812 40.664062 105.585938 38.996094 105.078125 C 37.328125 104.574219 35.6875 103.988281 34.078125 103.320312 C 32.46875 102.652344 30.894531 101.90625 29.359375 101.085938 C 27.820312 100.261719 26.328125 99.367188 24.878906 98.398438 C 23.429688 97.429688 22.03125 96.390625 20.683594 95.285156 C 19.335938 94.175781 18.046875 93.007812 16.816406 91.773438 C 15.582031 90.539062 14.414062 89.25 13.308594 87.902344 C 12.203125 86.554688 11.164062 85.152344 10.199219 83.703125 C 9.230469 82.253906 8.335938 80.757812 7.511719 79.222656 C 6.691406 77.683594 5.945312 76.109375 5.28125 74.496094 C 4.613281 72.882812 4.027344 71.246094 3.519531 69.574219 C 3.015625 67.90625 2.589844 66.214844 2.25 64.503906 C 1.910156 62.792969 1.65625 61.070312 1.484375 59.335938 C 1.316406 57.601562 1.230469 55.859375 1.230469 54.117188 C 1.230469 52.371094 1.316406 50.632812 1.484375 48.894531 C 1.65625 47.160156 1.910156 45.4375 2.25 43.726562 C 2.589844 42.015625 3.015625 40.324219 3.519531 38.65625 C 4.027344 36.984375 4.613281 35.347656 5.28125 33.734375 C 5.945312 32.121094 6.691406 30.546875 7.511719 29.011719 C 8.335938 27.472656 9.230469 25.976562 10.199219 24.527344 C 11.164062 23.078125 12.203125 21.675781 13.308594 20.328125 C 14.414062 18.980469 15.582031 17.691406 16.816406 16.457031 C 18.046875 15.222656 19.335938 14.054688 20.683594 12.945312 C 22.03125 11.839844 23.429688 10.800781 24.878906 9.832031 C 26.328125 8.863281 27.820312 7.96875 29.359375 7.144531 C 30.894531 6.324219 32.46875 5.578125 34.078125 4.910156 C 35.6875 4.242188 37.328125 3.65625 38.996094 3.152344 C 40.664062 2.644531 42.351562 2.222656 44.0625 1.882812 C 45.769531 1.539062 47.492188 1.285156 49.226562 1.113281 C 50.960938 0.941406 52.699219 0.859375 54.441406 0.859375 C 56.183594 0.859375 57.925781 0.941406 59.660156 1.113281 C 61.394531 1.285156 63.113281 1.539062 64.824219 1.882812 C 66.53125 2.222656 68.222656 2.644531 69.890625 3.152344 C 71.558594 3.65625 73.195312 4.242188 74.804688 4.910156 C 76.417969 5.578125 77.988281 6.324219 79.527344 7.144531 C 81.0625 7.96875 82.558594 8.863281 84.007812 9.832031 C 85.457031 10.800781 86.851562 11.839844 88.199219 12.945312 C 89.546875 14.054688 90.835938 15.222656 92.070312 16.457031 C 93.300781 17.691406 94.472656 18.980469 95.578125 20.328125 C 96.683594 21.675781 97.71875 23.078125 98.6875 24.527344 C 99.65625 25.976562 100.550781 27.472656 101.371094 29.011719 C 102.195312 30.546875 102.9375 32.121094 103.605469 33.734375 C 104.273438 35.347656 104.859375 36.984375 105.363281 38.65625 C 105.871094 40.324219 106.292969 42.015625 106.632812 43.726562 C 106.972656 45.4375 107.230469 47.160156 107.398438 48.894531 C 107.570312 50.632812 107.65625 52.371094 107.65625 54.117188 Z M 107.65625 54.117188 " fill-opacity="1" fill-rule="nonzero"/><g clip-path="url(#id1)"><path fill="#00c2cb" d="M 91.375 14.664062 C 81.691406 5.574219 68.753906 0 54.441406 0 C 24.621094 0 0.371094 24.269531 0.371094 54.117188 C 0.371094 71.097656 8.253906 86.191406 20.421875 96.136719 C 30.105469 105.230469 43.132812 110.804688 57.355469 110.804688 C 87.175781 110.804688 111.425781 86.53125 111.425781 56.6875 C 111.511719 39.792969 103.628906 24.613281 91.375 14.664062 Z M 1.230469 54.117188 C 1.230469 24.699219 25.050781 0.859375 54.441406 0.859375 C 83.832031 0.859375 107.65625 24.699219 107.65625 54.117188 C 107.65625 83.53125 83.832031 107.375 54.441406 107.375 C 25.050781 107.375 1.230469 83.445312 1.230469 54.117188 Z M 1.230469 54.117188 " fill-opacity="1" fill-rule="nonzero"/></g><path fill="#000000" d="M 46.582031 32.429688 L 48.125 32.832031 L 55.226562 34.671875 L 55.226562 45.214844 L 46.582031 42.980469 Z M 55.796875 29.285156 L 63.476562 31.644531 L 55.796875 33.636719 L 48.113281 31.644531 Z M 65.011719 42.980469 L 56.363281 45.214844 L 56.363281 34.671875 L 63.433594 32.839844 L 65.011719 32.429688 Z M 43.445312 46.527344 C 43.585938 46.527344 43.730469 46.472656 43.84375 46.367188 L 46.179688 44.058594 L 55.652344 46.511719 C 55.703125 46.519531 55.746094 46.527344 55.796875 46.527344 C 55.84375 46.527344 55.890625 46.519531 55.9375 46.511719 L 65.421875 44.050781 L 67.949219 46.378906 C 68.058594 46.480469 68.195312 46.527344 68.332031 46.527344 C 68.484375 46.527344 68.640625 46.464844 68.753906 46.34375 C 68.964844 46.105469 68.945312 45.746094 68.714844 45.53125 L 66.148438 43.171875 L 66.148438 31.695312 C 66.148438 31.6875 66.144531 31.683594 66.144531 31.671875 C 66.136719 31.601562 66.121094 31.535156 66.09375 31.472656 C 66.085938 31.453125 66.074219 31.4375 66.066406 31.417969 C 66.035156 31.359375 65.992188 31.304688 65.9375 31.261719 C 65.933594 31.253906 65.929688 31.25 65.925781 31.242188 C 65.925781 31.238281 65.921875 31.238281 65.921875 31.238281 C 65.867188 31.199219 65.808594 31.167969 65.746094 31.148438 L 56.363281 28.265625 L 56.363281 24.207031 C 56.363281 23.894531 56.109375 23.636719 55.796875 23.636719 C 55.480469 23.636719 55.226562 23.894531 55.226562 24.207031 L 55.226562 28.265625 L 45.847656 31.148438 C 45.78125 31.167969 45.722656 31.199219 45.671875 31.238281 C 45.667969 31.238281 45.667969 31.238281 45.664062 31.242188 C 45.660156 31.25 45.65625 31.253906 45.648438 31.261719 C 45.601562 31.304688 45.554688 31.359375 45.523438 31.417969 C 45.515625 31.4375 45.503906 31.453125 45.496094 31.472656 C 45.46875 31.535156 45.449219 31.601562 45.449219 31.671875 C 45.449219 31.683594 45.445312 31.6875 45.445312 31.695312 L 45.445312 43.179688 L 43.046875 45.550781 C 42.824219 45.769531 42.820312 46.128906 43.035156 46.355469 C 43.148438 46.472656 43.292969 46.527344 43.445312 46.527344 " fill-opacity="1" fill-rule="nonzero"/><g clip-path="url(#id2)"><path fill="#000000" d="M 83.742188 50.199219 L 28.035156 50.199219 L 28.035156 20.617188 L 83.742188 20.617188 Z M 83.742188 58.679688 L 28.035156 58.679688 L 28.035156 51.34375 L 83.742188 51.34375 Z M 59.199219 67.796875 L 52.578125 67.796875 L 52.578125 59.828125 L 59.199219 59.828125 Z M 84.3125 19.472656 L 27.464844 19.472656 C 27.152344 19.472656 26.898438 19.726562 26.898438 20.046875 L 26.898438 59.257812 C 26.898438 59.570312 27.152344 59.828125 27.464844 59.828125 L 51.433594 59.828125 L 51.433594 67.796875 L 46.183594 67.796875 C 45.867188 67.796875 45.613281 68.054688 45.613281 68.367188 C 45.613281 68.683594 45.867188 68.9375 46.183594 68.9375 L 65.589844 68.9375 C 65.90625 68.9375 66.160156 68.683594 66.160156 68.367188 C 66.160156 68.054688 65.90625 67.796875 65.589844 67.796875 L 60.339844 67.796875 L 60.339844 59.828125 L 84.3125 59.828125 C 84.625 59.828125 84.878906 59.570312 84.878906 59.257812 L 84.878906 20.046875 C 84.878906 19.726562 84.625 19.472656 84.3125 19.472656 " fill-opacity="1" fill-rule="nonzero"/></g><g fill="#000000" fill-opacity="1"><g transform="translate(27.57869, 84.903543)"><g><path d="M 0.921875 0 C 0.878906 0 0.835938 -0.015625 0.796875 -0.046875 C 0.765625 -0.078125 0.75 -0.117188 0.75 -0.171875 L 0.75 -9.609375 C 0.75 -9.660156 0.765625 -9.703125 0.796875 -9.734375 C 0.835938 -9.765625 0.878906 -9.78125 0.921875 -9.78125 L 3.3125 -9.78125 C 4.113281 -9.78125 4.753906 -9.535156 5.234375 -9.046875 C 5.710938 -8.566406 5.953125 -7.921875 5.953125 -7.109375 L 5.953125 -2.671875 C 5.953125 -1.859375 5.710938 -1.207031 5.234375 -0.71875 C 4.753906 -0.238281 4.113281 0 3.3125 0 Z M 2.375 -1.46875 C 2.375 -1.414062 2.394531 -1.390625 2.4375 -1.390625 L 3.28125 -1.40625 C 3.59375 -1.40625 3.84375 -1.53125 4.03125 -1.78125 C 4.21875 -2.03125 4.316406 -2.359375 4.328125 -2.765625 L 4.328125 -7.015625 C 4.328125 -7.429688 4.226562 -7.757812 4.03125 -8 C 3.84375 -8.25 3.585938 -8.375 3.265625 -8.375 L 2.4375 -8.375 C 2.394531 -8.375 2.375 -8.351562 2.375 -8.3125 Z M 2.375 -1.46875 "/></g></g></g><g fill="#000000" fill-opacity="1"><g transform="translate(34.171317, 84.903543)"><g><path d="M 0.921875 0 C 0.878906 0 0.835938 -0.015625 0.796875 -0.046875 C 0.765625 -0.078125 0.75 -0.117188 0.75 -0.171875 L 0.75 -9.609375 C 0.75 -9.660156 0.765625 -9.703125 0.796875 -9.734375 C 0.835938 -9.765625 0.878906 -9.78125 0.921875 -9.78125 L 2.203125 -9.78125 C 2.253906 -9.78125 2.296875 -9.765625 2.328125 -9.734375 C 2.359375 -9.703125 2.375 -9.660156 2.375 -9.609375 L 2.375 -0.171875 C 2.375 -0.117188 2.359375 -0.078125 2.328125 -0.046875 C 2.296875 -0.015625 2.253906 0 2.203125 0 Z M 0.921875 0 "/></g></g></g><g fill="#000000" fill-opacity="1"><g transform="translate(37.30002, 84.903543)"><g><path d="M 3.0625 0.109375 C 2.289062 0.109375 1.664062 -0.117188 1.1875 -0.578125 C 0.707031 -1.046875 0.46875 -1.660156 0.46875 -2.421875 L 0.46875 -2.78125 C 0.46875 -2.820312 0.484375 -2.859375 0.515625 -2.890625 C 0.554688 -2.929688 0.597656 -2.953125 0.640625 -2.953125 L 1.90625 -2.953125 C 1.957031 -2.953125 2 -2.929688 2.03125 -2.890625 C 2.0625 -2.859375 2.078125 -2.820312 2.078125 -2.78125 L 2.078125 -2.5 C 2.078125 -2.132812 2.164062 -1.835938 2.34375 -1.609375 C 2.53125 -1.390625 2.769531 -1.28125 3.0625 -1.28125 C 3.34375 -1.28125 3.578125 -1.382812 3.765625 -1.59375 C 3.953125 -1.800781 4.046875 -2.082031 4.046875 -2.4375 C 4.046875 -2.675781 3.992188 -2.882812 3.890625 -3.0625 C 3.796875 -3.238281 3.65625 -3.40625 3.46875 -3.5625 C 3.28125 -3.71875 2.976562 -3.945312 2.5625 -4.25 C 2.101562 -4.582031 1.726562 -4.878906 1.4375 -5.140625 C 1.15625 -5.398438 0.921875 -5.710938 0.734375 -6.078125 C 0.546875 -6.453125 0.453125 -6.878906 0.453125 -7.359375 C 0.453125 -8.128906 0.679688 -8.742188 1.140625 -9.203125 C 1.609375 -9.660156 2.222656 -9.890625 2.984375 -9.890625 C 3.765625 -9.890625 4.390625 -9.648438 4.859375 -9.171875 C 5.335938 -8.691406 5.578125 -8.054688 5.578125 -7.265625 L 5.578125 -6.921875 C 5.578125 -6.878906 5.554688 -6.84375 5.515625 -6.8125 C 5.484375 -6.78125 5.445312 -6.765625 5.40625 -6.765625 L 4.15625 -6.765625 C 4.101562 -6.765625 4.0625 -6.78125 4.03125 -6.8125 C 4 -6.84375 3.984375 -6.878906 3.984375 -6.921875 L 3.984375 -7.296875 C 3.984375 -7.660156 3.890625 -7.953125 3.703125 -8.171875 C 3.523438 -8.390625 3.285156 -8.5 2.984375 -8.5 C 2.703125 -8.5 2.472656 -8.394531 2.296875 -8.1875 C 2.128906 -7.988281 2.046875 -7.710938 2.046875 -7.359375 C 2.046875 -7.023438 2.140625 -6.738281 2.328125 -6.5 C 2.515625 -6.269531 2.890625 -5.953125 3.453125 -5.546875 C 4.015625 -5.128906 4.441406 -4.785156 4.734375 -4.515625 C 5.023438 -4.253906 5.25 -3.960938 5.40625 -3.640625 C 5.5625 -3.328125 5.640625 -2.953125 5.640625 -2.515625 C 5.640625 -1.722656 5.398438 -1.085938 4.921875 -0.609375 C 4.453125 -0.128906 3.832031 0.109375 3.0625 0.109375 Z M 3.0625 0.109375 "/></g></g></g><g fill="#000000" fill-opacity="1"><g transform="translate(43.361884, 84.903543)"><g><path d="M 5.625 -8.546875 C 5.625 -8.503906 5.609375 -8.460938 5.578125 -8.421875 C 5.546875 -8.390625 5.507812 -8.375 5.46875 -8.375 L 2.4375 -8.375 C 2.394531 -8.375 2.375 -8.351562 2.375 -8.3125 L 2.375 -5.671875 C 2.375 -5.617188 2.394531 -5.59375 2.4375 -5.59375 L 4.234375 -5.59375 C 4.273438 -5.59375 4.3125 -5.578125 4.34375 -5.546875 C 4.382812 -5.515625 4.40625 -5.476562 4.40625 -5.4375 L 4.40625 -4.359375 C 4.40625 -4.304688 4.382812 -4.265625 4.34375 -4.234375 C 4.3125 -4.203125 4.273438 -4.1875 4.234375 -4.1875 L 2.4375 -4.1875 C 2.394531 -4.1875 2.375 -4.164062 2.375 -4.125 L 2.375 -1.46875 C 2.375 -1.414062 2.394531 -1.390625 2.4375 -1.390625 L 5.46875 -1.390625 C 5.507812 -1.390625 5.546875 -1.375 5.578125 -1.34375 C 5.609375 -1.3125 5.625 -1.273438 5.625 -1.234375 L 5.625 -0.171875 C 5.625 -0.117188 5.609375 -0.078125 5.578125 -0.046875 C 5.546875 -0.015625 5.507812 0 5.46875 0 L 0.921875 0 C 0.878906 0 0.835938 -0.015625 0.796875 -0.046875 C 0.765625 -0.078125 0.75 -0.117188 0.75 -0.171875 L 0.75 -9.609375 C 0.75 -9.660156 0.765625 -9.703125 0.796875 -9.734375 C 0.835938 -9.765625 0.878906 -9.78125 0.921875 -9.78125 L 5.46875 -9.78125 C 5.507812 -9.78125 5.546875 -9.765625 5.578125 -9.734375 C 5.609375 -9.703125 5.625 -9.660156 5.625 -9.609375 Z M 5.625 -8.546875 "/></g></g></g><g fill="#000000" fill-opacity="1"><g transform="translate(49.437708, 84.903543)"><g><path d="M 4.71875 -9.609375 C 4.71875 -9.660156 4.734375 -9.703125 4.765625 -9.734375 C 4.796875 -9.765625 4.835938 -9.78125 4.890625 -9.78125 L 6.15625 -9.78125 C 6.207031 -9.78125 6.25 -9.765625 6.28125 -9.734375 C 6.3125 -9.703125 6.328125 -9.660156 6.328125 -9.609375 L 6.328125 -0.171875 C 6.328125 -0.117188 6.3125 -0.078125 6.28125 -0.046875 C 6.25 -0.015625 6.207031 0 6.15625 0 L 4.6875 0 C 4.59375 0 4.535156 -0.046875 4.515625 -0.140625 L 2.4375 -6.0625 C 2.425781 -6.09375 2.40625 -6.101562 2.375 -6.09375 C 2.351562 -6.09375 2.34375 -6.078125 2.34375 -6.046875 L 2.359375 -0.171875 C 2.359375 -0.117188 2.34375 -0.078125 2.3125 -0.046875 C 2.28125 -0.015625 2.238281 0 2.1875 0 L 0.921875 0 C 0.878906 0 0.835938 -0.015625 0.796875 -0.046875 C 0.765625 -0.078125 0.75 -0.117188 0.75 -0.171875 L 0.75 -9.609375 C 0.75 -9.660156 0.765625 -9.703125 0.796875 -9.734375 C 0.835938 -9.765625 0.878906 -9.78125 0.921875 -9.78125 L 2.359375 -9.78125 C 2.453125 -9.78125 2.515625 -9.734375 2.546875 -9.640625 L 4.640625 -3.75 C 4.648438 -3.726562 4.664062 -3.71875 4.6875 -3.71875 C 4.707031 -3.726562 4.71875 -3.742188 4.71875 -3.765625 Z M 4.6875 -11.296875 C 4.5625 -11.296875 4.441406 -11.316406 4.328125 -11.359375 C 4.222656 -11.398438 4.09375 -11.46875 3.9375 -11.5625 C 3.863281 -11.601562 3.789062 -11.644531 3.71875 -11.6875 C 3.644531 -11.738281 3.578125 -11.773438 3.515625 -11.796875 C 3.460938 -11.816406 3.398438 -11.828125 3.328125 -11.828125 C 3.117188 -11.828125 2.941406 -11.71875 2.796875 -11.5 C 2.734375 -11.414062 2.65625 -11.398438 2.5625 -11.453125 L 2.109375 -11.765625 C 2.023438 -11.828125 2.003906 -11.90625 2.046875 -12 C 2.179688 -12.289062 2.347656 -12.507812 2.546875 -12.65625 C 2.742188 -12.800781 2.960938 -12.875 3.203125 -12.875 C 3.359375 -12.875 3.5 -12.84375 3.625 -12.78125 C 3.757812 -12.726562 3.910156 -12.648438 4.078125 -12.546875 C 4.109375 -12.535156 4.160156 -12.503906 4.234375 -12.453125 C 4.316406 -12.398438 4.390625 -12.359375 4.453125 -12.328125 C 4.523438 -12.304688 4.597656 -12.296875 4.671875 -12.296875 C 4.898438 -12.296875 5.078125 -12.394531 5.203125 -12.59375 C 5.253906 -12.707031 5.328125 -12.734375 5.421875 -12.671875 L 5.875 -12.359375 C 5.914062 -12.328125 5.9375 -12.28125 5.9375 -12.21875 C 5.9375 -12.164062 5.921875 -12.101562 5.890625 -12.03125 C 5.734375 -11.769531 5.546875 -11.582031 5.328125 -11.46875 C 5.109375 -11.351562 4.894531 -11.296875 4.6875 -11.296875 Z M 4.6875 -11.296875 "/></g></g></g><g fill="#000000" fill-opacity="1"><g transform="translate(56.519195, 84.903543)"><g><path d="M 3.25 0.109375 C 2.445312 0.109375 1.800781 -0.128906 1.3125 -0.609375 C 0.832031 -1.097656 0.59375 -1.742188 0.59375 -2.546875 L 0.59375 -7.234375 C 0.59375 -8.035156 0.832031 -8.675781 1.3125 -9.15625 C 1.800781 -9.644531 2.445312 -9.890625 3.25 -9.890625 C 4.050781 -9.890625 4.695312 -9.644531 5.1875 -9.15625 C 5.6875 -8.675781 5.9375 -8.035156 5.9375 -7.234375 L 5.9375 -2.546875 C 5.9375 -1.742188 5.6875 -1.097656 5.1875 -0.609375 C 4.695312 -0.128906 4.050781 0.109375 3.25 0.109375 Z M 3.25 -1.28125 C 3.570312 -1.28125 3.828125 -1.390625 4.015625 -1.609375 C 4.210938 -1.828125 4.3125 -2.113281 4.3125 -2.46875 L 4.3125 -7.3125 C 4.3125 -7.664062 4.210938 -7.953125 4.015625 -8.171875 C 3.828125 -8.390625 3.570312 -8.5 3.25 -8.5 C 2.9375 -8.5 2.679688 -8.390625 2.484375 -8.171875 C 2.296875 -7.953125 2.203125 -7.664062 2.203125 -7.3125 L 2.203125 -2.46875 C 2.203125 -2.113281 2.296875 -1.828125 2.484375 -1.609375 C 2.679688 -1.390625 2.9375 -1.28125 3.25 -1.28125 Z M 3.25 -1.28125 "/></g></g></g><g fill="#000000" fill-opacity="1"><g transform="translate(63.041977, 84.903543)"><g><path d="M 3.0625 0.109375 C 2.289062 0.109375 1.664062 -0.117188 1.1875 -0.578125 C 0.707031 -1.046875 0.46875 -1.660156 0.46875 -2.421875 L 0.46875 -2.78125 C 0.46875 -2.820312 0.484375 -2.859375 0.515625 -2.890625 C 0.554688 -2.929688 0.597656 -2.953125 0.640625 -2.953125 L 1.90625 -2.953125 C 1.957031 -2.953125 2 -2.929688 2.03125 -2.890625 C 2.0625 -2.859375 2.078125 -2.820312 2.078125 -2.78125 L 2.078125 -2.5 C 2.078125 -2.132812 2.164062 -1.835938 2.34375 -1.609375 C 2.53125 -1.390625 2.769531 -1.28125 3.0625 -1.28125 C 3.34375 -1.28125 3.578125 -1.382812 3.765625 -1.59375 C 3.953125 -1.800781 4.046875 -2.082031 4.046875 -2.4375 C 4.046875 -2.675781 3.992188 -2.882812 3.890625 -3.0625 C 3.796875 -3.238281 3.65625 -3.40625 3.46875 -3.5625 C 3.28125 -3.71875 2.976562 -3.945312 2.5625 -4.25 C 2.101562 -4.582031 1.726562 -4.878906 1.4375 -5.140625 C 1.15625 -5.398438 0.921875 -5.710938 0.734375 -6.078125 C 0.546875 -6.453125 0.453125 -6.878906 0.453125 -7.359375 C 0.453125 -8.128906 0.679688 -8.742188 1.140625 -9.203125 C 1.609375 -9.660156 2.222656 -9.890625 2.984375 -9.890625 C 3.765625 -9.890625 4.390625 -9.648438 4.859375 -9.171875 C 5.335938 -8.691406 5.578125 -8.054688 5.578125 -7.265625 L 5.578125 -6.921875 C 5.578125 -6.878906 5.554688 -6.84375 5.515625 -6.8125 C 5.484375 -6.78125 5.445312 -6.765625 5.40625 -6.765625 L 4.15625 -6.765625 C 4.101562 -6.765625 4.0625 -6.78125 4.03125 -6.8125 C 4 -6.84375 3.984375 -6.878906 3.984375 -6.921875 L 3.984375 -7.296875 C 3.984375 -7.660156 3.890625 -7.953125 3.703125 -8.171875 C 3.523438 -8.390625 3.285156 -8.5 2.984375 -8.5 C 2.703125 -8.5 2.472656 -8.394531 2.296875 -8.1875 C 2.128906 -7.988281 2.046875 -7.710938 2.046875 -7.359375 C 2.046875 -7.023438 2.140625 -6.738281 2.328125 -6.5 C 2.515625 -6.269531 2.890625 -5.953125 3.453125 -5.546875 C 4.015625 -5.128906 4.441406 -4.785156 4.734375 -4.515625 C 5.023438 -4.253906 5.25 -3.960938 5.40625 -3.640625 C 5.5625 -3.328125 5.640625 -2.953125 5.640625 -2.515625 C 5.640625 -1.722656 5.398438 -1.085938 4.921875 -0.609375 C 4.453125 -0.128906 3.832031 0.109375 3.0625 0.109375 Z M 3.0625 0.109375 "/></g></g></g><g fill="#000000" fill-opacity="1"><g transform="translate(69.103841, 84.903543)"><g/></g></g><g fill="#000000" fill-opacity="1"><g transform="translate(71.897323, 84.903543)"><g><path d="M 5.28125 -4.28125 C 5.363281 -3.914062 5.40625 -3.503906 5.40625 -3.046875 C 5.40625 -2.585938 5.375 -2.195312 5.3125 -1.875 C 5.195312 -1.238281 4.941406 -0.75 4.546875 -0.40625 C 4.148438 -0.0625 3.613281 0.109375 2.9375 0.109375 C 2.226562 0.109375 1.648438 -0.078125 1.203125 -0.453125 C 0.753906 -0.828125 0.503906 -1.34375 0.453125 -2 C 0.429688 -2.207031 0.410156 -2.503906 0.390625 -2.890625 C 0.390625 -3.003906 0.445312 -3.0625 0.5625 -3.0625 L 1.84375 -3.0625 C 1.957031 -3.0625 2.015625 -3.003906 2.015625 -2.890625 C 2.035156 -2.578125 2.050781 -2.335938 2.0625 -2.171875 C 2.113281 -1.890625 2.210938 -1.671875 2.359375 -1.515625 C 2.503906 -1.359375 2.695312 -1.28125 2.9375 -1.28125 C 3.15625 -1.28125 3.335938 -1.351562 3.484375 -1.5 C 3.640625 -1.644531 3.738281 -1.851562 3.78125 -2.125 C 3.832031 -2.40625 3.859375 -2.769531 3.859375 -3.21875 C 3.859375 -3.6875 3.820312 -4.082031 3.75 -4.40625 C 3.695312 -4.644531 3.597656 -4.828125 3.453125 -4.953125 C 3.316406 -5.085938 3.144531 -5.15625 2.9375 -5.15625 C 2.789062 -5.15625 2.664062 -5.113281 2.5625 -5.03125 C 2.5 -4.988281 2.457031 -4.96875 2.4375 -4.96875 C 2.414062 -4.96875 2.375 -4.988281 2.3125 -5.03125 L 1.65625 -5.703125 C 1.625 -5.734375 1.609375 -5.773438 1.609375 -5.828125 C 1.609375 -5.859375 1.617188 -5.894531 1.640625 -5.9375 L 3.390625 -8.3125 C 3.410156 -8.332031 3.410156 -8.347656 3.390625 -8.359375 C 3.378906 -8.378906 3.363281 -8.390625 3.34375 -8.390625 L 0.6875 -8.390625 C 0.632812 -8.390625 0.59375 -8.40625 0.5625 -8.4375 C 0.53125 -8.476562 0.515625 -8.519531 0.515625 -8.5625 L 0.515625 -9.609375 C 0.515625 -9.660156 0.53125 -9.703125 0.5625 -9.734375 C 0.59375 -9.765625 0.632812 -9.78125 0.6875 -9.78125 L 5.203125 -9.78125 C 5.253906 -9.78125 5.296875 -9.765625 5.328125 -9.734375 C 5.359375 -9.703125 5.375 -9.660156 5.375 -9.609375 L 5.375 -8.5 C 5.375 -8.4375 5.351562 -8.367188 5.3125 -8.296875 L 3.71875 -6.125 C 3.675781 -6.0625 3.6875 -6.023438 3.75 -6.015625 C 4.125 -5.972656 4.445312 -5.789062 4.71875 -5.46875 C 5 -5.15625 5.1875 -4.757812 5.28125 -4.28125 Z M 5.28125 -4.28125 "/></g></g></g><g fill="#000000" fill-opacity="1"><g transform="translate(77.84745, 84.903543)"><g><path d="M 0.921875 0 C 0.878906 0 0.835938 -0.015625 0.796875 -0.046875 C 0.765625 -0.078125 0.75 -0.117188 0.75 -0.171875 L 0.75 -9.609375 C 0.75 -9.660156 0.765625 -9.703125 0.796875 -9.734375 C 0.835938 -9.765625 0.878906 -9.78125 0.921875 -9.78125 L 3.3125 -9.78125 C 4.113281 -9.78125 4.753906 -9.535156 5.234375 -9.046875 C 5.710938 -8.566406 5.953125 -7.921875 5.953125 -7.109375 L 5.953125 -2.671875 C 5.953125 -1.859375 5.710938 -1.207031 5.234375 -0.71875 C 4.753906 -0.238281 4.113281 0 3.3125 0 Z M 2.375 -1.46875 C 2.375 -1.414062 2.394531 -1.390625 2.4375 -1.390625 L 3.28125 -1.40625 C 3.59375 -1.40625 3.84375 -1.53125 4.03125 -1.78125 C 4.21875 -2.03125 4.316406 -2.359375 4.328125 -2.765625 L 4.328125 -7.015625 C 4.328125 -7.429688 4.226562 -7.757812 4.03125 -8 C 3.84375 -8.25 3.585938 -8.375 3.265625 -8.375 L 2.4375 -8.375 C 2.394531 -8.375 2.375 -8.351562 2.375 -8.3125 Z M 2.375 -1.46875 "/></g></g></g><g clip-path="url(#id3)"><path fill="#03989e" d="M 164.164062 73.375 L 164.164062 66.003906 L 120.511719 66.003906 L 120.511719 46.304688 L 164.164062 46.304688 L 164.164062 38.9375 L 187.089844 56.15625 Z M 164.164062 73.375 " fill-opacity="1" fill-rule="nonzero"/></g></svg>